<?xml version="1.0" encoding="utf-8"?>
<!-- Generator: Adobe Illustrator 16.0.0, SVG Export Plug-In . SVG Version: 6.00 Build 0)  -->
<!DOCTYPE svg PUBLIC "-//W3C//DTD SVG 1.1//EN" "http://www.w3.org/Graphics/SVG/1.1/DTD/svg11.dtd">
<svg version="1.1" id="Layer_1" xmlns="http://www.w3.org/2000/svg" xmlns:xlink="http://www.w3.org/1999/xlink" x="0px" y="0px"
	 width="299.798px" height="299.798px" viewBox="0 0 299.798 299.798" enable-background="new 0 0 299.798 299.798"
	 xml:space="preserve">
<g>
	<path fill-rule="evenodd" clip-rule="evenodd" d="M149.899,299.798c82.787,0,149.899-67.111,149.899-149.899
		C299.798,67.112,232.686,0,149.899,0C67.112,0,0,67.112,0,149.899C0,232.687,67.112,299.798,149.899,299.798L149.899,299.798z
		 M237.928,64.169l13.879-11.88l5.347,6.858l-2.809,11.558l7.696-6.913l3.982,4.739l-13.826,12.043l-5.454-6.049l2.971-12.583
		l-7.885,6.859L237.928,64.169L237.928,64.169z M270.992,78.709L255.708,88.74l3.889,5.4l15.229-9.667L270.992,78.709
		L270.992,78.709z M47.954,56.014l14.419-13.825l3.079,3.132l-5.076,4.86l9.666,9.127l-4.698,4.32L56,54.718l-4.644,4.698
		L47.954,56.014L47.954,56.014z M131.197,7.843c1.021-1.466,2.19-2.013,3.97-2.255c1.89-0.295,2.369,0.811,3.834,1.081
		c1.15,0.212,2.507-0.414,3.563-1.134c0.44-0.3,0.944-0.01,0.688,0.715c-0.294,1.742-1.379,2.773-2.651,2.962
		c-1.767,0.263-2.84-1.259-4.881-1.261c-1.364-0.001-2.218,0.137-3.578,1.255C131.176,10,130.649,8.627,131.197,7.843L131.197,7.843
		z M225.503,32.054l5.351,3.845l-6.03,8.223c-2.23,3.042,4.615,7.815,6.209,5.495l6.171-8.984l5.352,3.898l-6.561,8.563
		c-2.036,2.657-6.879,3.263-9.414,1.405l-5.961-4.367c-2.063-1.513-2.576-7.132-1.39-8.874L225.503,32.054L225.503,32.054z
		 M30.503,79.424l3.997-5.238l8.046,6.264c2.976,2.317,7.945-4.388,5.67-6.049l-8.803-6.426l4.05-5.239l8.371,6.805
		c2.598,2.112,3.064,6.969,1.134,9.451l-4.537,5.832c-1.571,2.02-7.203,2.371-8.91,1.134L30.503,79.424L30.503,79.424z
		 M284.277,195.062l-15.908-6.95l-2.893,5.574l6.117,3.268l-2.997,6.17c-4.485,9.231,7.473,11.935,10.55,4.437L284.277,195.062
		L284.277,195.062z M278.599,199.92l-4.084-1.683l-1.952,4.384c-1.391,3.121,2.841,4.192,4.004,1.683L278.599,199.92L278.599,199.92
		z M16.951,107.681l15.877,7.021l2.916-5.562l-6.103-3.294l3.024-6.156c4.525-9.212-7.42-11.968-10.531-4.482L16.951,107.681
		L16.951,107.681z M22.648,102.848l4.077,1.701l1.971-4.375c1.404-3.116-2.822-4.206-3.997-1.701L22.648,102.848L22.648,102.848z
		 M274.806,154.745l16.909,2.325l-0.855,9.217l-10.002,2.747l8.763,4.303l-0.853,9.432l-16.668-2.561l0.437-5.015l11.91,1.187
		l-11.205-6.085l0.456-4.69l13.172-3.269l-12.382-1.899L274.806,154.745L274.806,154.745z M27.906,149.279l-16.958-1.944
		l0.648-9.233l9.937-2.971l-8.856-4.104l0.641-9.449l16.721,2.186l-0.324,5.022l-11.935-0.918l11.341,5.832l-0.351,4.699
		l-13.095,3.564l12.421,1.621L27.906,149.279L27.906,149.279z M22.358,190.231l2.679,5.789c-3.265,4.104-0.234,10.861,5.443,9.332
		c4.906-1.322,2.694-9.803-1.555-10.11l-2.851-6.479c10.268-2.306,18.826,17.214,7.344,22.379
		C21.454,216.523,13.651,195.653,22.358,190.231L22.358,190.231z M118.027,19.689l-5.615,2.678
		c-4.002-3.251-10.557-0.221-9.045,5.439c1.306,4.891,9.539,2.676,9.818-1.562l6.285-2.852c0.999,4.472-2.051,8.623-6.225,10.926v0
		l-0.017,0.739h-0.001l-0.012,0.545c1.492-0.341,2.528-0.186,3.132,0.432c1.626,1.664-2.759,4.48-3.375,3.699l-0.406-0.513
		c0.982-0.18,3.684-1.199,2.214-2.403c-0.681-0.558-1.814-0.188-3.321,0.864c0.507-0.959,0.636-1.849,0.352-2.664v0
		c-5.17,2.206-11.449,1.613-14.058-4.276C92.47,18.817,112.719,11.011,118.027,19.689L118.027,19.689z M281.246,118.327
		l-2.307-5.777c3.505-3.783,0.908-10.52-4.839-9.381c-4.966,0.985-3.291,9.343,0.92,9.9l2.435,6.458
		c-10.365,1.614-17.671-17.837-5.918-22.15C283.782,92.882,290.251,113.596,281.246,118.327L281.246,118.327z M176.039,278.598
		l-6.307,0.955c-3.028-4.282-10.363-3.261-10.48,2.617c-0.103,5.08,8.657,5.326,10.141,1.333l7.02-0.927
		c-0.656,10.503-21.791,13.265-23.541,0.797C151.047,270.383,173.267,268.723,176.039,278.598L176.039,278.598z M231.133,255.196
		l-5.506,2.979c-4.218-2.947-10.65,0.436-8.806,5.902c1.595,4.722,9.764,2.036,9.806-2.143l6.172-3.189
		c2.887,9.915-15.707,19.491-21.468,8.563C205.33,255.919,225.292,247,231.133,255.196L231.133,255.196z M183.492,269.598
		l5.939,17.335l18.415-6.318l-1.509-3.964l-11.56,4.019l-1.01-2.948l8.895-3.047l-1.242-3.295l-8.772,3.069l-1.219-3.555
		l11.35-3.593l0.228,0.595l-1.532-4.022L183.492,269.598L183.492,269.598z M167.743,10.331c6.956,0,12.595,4.545,12.595,10.152
		c0,5.607-5.639,10.153-12.595,10.153c-6.954,0-12.593-4.546-12.593-10.153C155.15,14.876,160.789,10.331,167.743,10.331
		L167.743,10.331z M167.571,15.731c2.828,0,5.119,2.002,5.119,4.472s-2.291,4.471-5.119,4.471c-2.827,0-5.12-2.001-5.12-4.471
		S164.744,15.731,167.571,15.731L167.571,15.731z M30.086,168.781c0.633,6.925-3.38,12.954-8.964,13.465
		c-5.583,0.51-10.624-4.691-11.256-11.617c-0.634-6.927,3.38-12.955,8.964-13.466S29.454,161.853,30.086,168.781L30.086,168.781z
		 M24.693,169.099c0.258,2.816-1.528,5.281-3.987,5.505c-2.459,0.227-4.662-1.875-4.918-4.69c-0.258-2.816,1.527-5.28,3.987-5.505
		C22.233,164.183,24.436,166.284,24.693,169.099L24.693,169.099z M76.796,52.837L72.96,34.421l7.342-4.788l16.144,10.724
		l-5.86,3.579l-1.954-1.022l-6.562,4.153l0.769,2.612L76.796,52.837L76.796,52.837z M80.638,43.232l4.349-2.814l-5.543-3.635
		L80.638,43.232L80.638,43.232z M127.325,29.647l5.719-17.921l8.749-0.557l8.779,17.278l-6.862,0.233l-1.198-1.852l-7.757,0.388
		l-0.616,2.652L127.325,29.647L127.325,29.647z M135.395,23.175l5.17-0.311l-3.038-5.893L135.395,23.175L135.395,23.175z
		 M272.604,126.641l18.212,4.709l1.044,8.703l-16.76,9.73l-0.617-6.838l1.782-1.299l-0.821-7.724l-2.683-0.467L272.604,126.641
		L272.604,126.641z M279.517,134.336l0.6,5.144l5.714-3.362L279.517,134.336L279.517,134.336z M122.763,289.981l8.867-16.591
		l8.705,1.034l5.508,18.582l-6.791-1.012l-0.843-2.037l-7.7-1.022l-1.085,2.497L122.763,289.981L122.763,289.981z M131.872,285.074
		l5.141,0.63l-1.923-6.344L131.872,285.074L131.872,285.074z M91.505,278.525l12.736-13.844l8.168,3.18l0.684,19.369l-6.322-2.679
		l-0.306-2.185l-7.199-2.916l-1.675,2.147L91.505,278.525L91.505,278.525z M101.551,276.054l4.82,1.896l-0.273-6.625
		L101.551,276.054L101.551,276.054z M63.5,262.904l14.991-11.362l7.475,4.58L83.2,275.303l-5.746-3.759l0.087-2.202l-6.567-4.147
		l-2.03,1.814L63.5,262.904L63.5,262.904z M73.824,262.256l4.407,2.722l0.907-6.566L73.824,262.256L73.824,262.256z M92.325,153.742
		c0.157-3.145,1.102-6.289,2.988-9.433c2.766,0.457,6.275,2.152,9.109-3.817c5.67-11.942,18.003-23.507,45.114-34.526
		c-2.31-10.358-7.585-19.41-18.394-26.023c12.039-10.829,24.919-11.744,38.829-0.54c-1.324,9.185-3.681,17.854-7.021,26.03
		c21.094-1.396,66.762-18.96,74.417-29.702c2.105,1.675,3.745,3.563,4.915,5.67c-10.912,6.481-24.402,13.018-40.393,18.093
		c-20.47,6.498-34.734,9.135-40.394,8.749c3.443-10.074,5.807-18.966,4.281-24.715c-1.218-4.583-6.108-6.894-11.044-7.817
		c-5.39-1.008-12.843-0.851-20.566,3.586c13.924,4.772,18.771,12.468,16.525,30.674c-28.379,8.152-40.5,22.232-44.393,39.314
		c-3.393-0.098-6.58-0.66-9.396-2.053C95.377,148.27,93.851,150.399,92.325,153.742L92.325,153.742z M59.779,169.98
		c-9.324-35.24-0.147-49.5,19.775-66.022c-23.676,13.512-29.707,37.9-25.348,68.693c-2.675,2.256-3.405,5.186-1.008,8.928
		c0.687,1.072,1.038,2.65,1.872,4.608c8.145,19.107,29.046,31.808,57.06,34.743c1.09-11.771,24.017-16.367,36.147-18.2
		c16.989-2.567,26.205-1.889,38.17,5.858c13.593,8.801,29.666,20.163,41.151,25.816l8.208-7.992
		c-19.563-9.685-34.199-19.925-43.218-30.909c-1.221-1.486-1.353-3.033-0.81-5.021c2.325-8.535,3.238-17.549,2.733-26.932
		c-1.199-22.288-6.655-31.341-19.404-33.986c9.778,8.598,15.257,18.231,14.474,28.766c-0.807,10.83-4.906,21.085-11.162,30.998
		c-1.025,1.626-5.202,3.522-7.158,4.02c-15.066,3.828-25.73,5.406-39.747,7.056c2.644-3.817,4.339-7.635,5.449-11.452
		c-13.539,12.836-25.225,20.189-26.209,31.178c-14.531,0.626-34.242-10.895-46.405-25.1c-7.076-8.264-8.294-15.771-4.628-22.415
		C60.38,171.42,60.024,170.909,59.779,169.98L59.779,169.98z M221.873,175.096c15.659,8.058,27.342,6.389,39.315,2.377
		c-1.23,5.921-2.801,11.001-4.607,15.481C235.012,194.832,226.999,188.46,221.873,175.096L221.873,175.096z M230.158,153.513
		c12.762-0.381,24.466-2.26,34.923-5.904c0.319,3.646,0.159,7.249-0.576,10.8C252.486,160.573,242.464,159.893,230.158,153.513
		L230.158,153.513z M220.155,126.328c4.046-6.261,7.635-9.794,15.949-15.315c5.113-3.397,11.808-10.098,15.805-14.495
		c4.258,7.269,7.383,15.556,9.721,24.554C245.208,120.813,230.622,121.977,220.155,126.328L220.155,126.328z M116.572,141.809
		c4.288-6.385,9.375-13.423,15.662-19.73c3.867-3.879,7.335-5.432,10.333-2.268c2.015,2.127,3.963,4.959,5.076,7.561
		c-3.185-2.946-7.146-3.72-11.809,0.179C129.896,132.515,123.21,137.524,116.572,141.809L116.572,141.809z M82.565,164.542
		c-1.359-0.62-1.563,1.175-0.648,2.035c0.91,0.856,2.579,1.158,2.664,0.216C84.667,165.843,83.648,165.039,82.565,164.542
		L82.565,164.542z M79.159,160.061c2.573-1.932,3.834-4.681,4.391-7.091c0.845,1.028,1.22,1.565,1.746,2.808
		c0.665,1.571,2.133,1.64,3.835,0.972c3.406-1.338,5.748,1.094,3.42,8.208C90,160.278,86.198,158.392,79.159,160.061L79.159,160.061
		z M72.101,163.565c-3.749-3.832-5.708-9.381-7.056-15.518c-2.192,4.925,0.028,13.358,3.384,18.757L72.101,163.565L72.101,163.565z
		 M113.826,156.832c2.568-2.404,3.98-4.387,5.577-5.173c0.672-0.329,5.518-1.213,9.146-1.495c-2.576,3.525-5.063,5.773-7.451,6.199
		C118.511,156.825,116.127,156.877,113.826,156.832L113.826,156.832z M102.37,159.72l1.44-3.313
		c7.769-0.027,13.688-4.003,17.138-13.248c7.299-0.714,14.494-3.751,21.601-8.785c0.259,0.999,0.264,1.918-0.071,3.235
		c2.667-0.185,6.626,1,8.297,3.029c-5.033,1.862-9.088,4.71-12.691,7.993c-4.561,4.155-9.936,7.107-15.553,9.504
		c0.783,0.368,1.991,1.934,2.305,3.601C117.567,160.356,110.117,159.562,102.37,159.72L102.37,159.72z M95.79,94.267
		c-32.668,9.113-49.826,32.66-43.707,77.873c-2.988,2.262-4.075,6.037-1.373,10.425c0.631,1.023,1.114,1.595,1.475,2.424
		c10.17,23.291,31.143,35.068,61.533,38.203c-0.709-7.733,10.01-14.998,32.69-17.927c12.206-1.576,22.83-5.598,41.404,6.553
		c12.867,8.416,25.405,16.689,38.107,24.01c-20.235,17.742-46.788,28.51-75.87,28.51c-63.43,0-114.85-51.193-114.85-114.343
		c0-63.148,51.42-114.341,114.85-114.341c34.141,0,64.796,14.837,85.833,38.38c-8.475,7.919-19.778,13.468-32.737,18.27
		c-15.938,5.905-28.522,10.115-37.037,10.786c3.196-7.789,5.108-16.163,6.192-24.914c-16.771-13.546-31.618-11.823-44.932,2.088
		c10.929,6.268,16.552,14.758,19.224,24.483c-23.697,9.396-38.948,21.997-45.94,37.731c-2.126,0.208-3.323,0.102-5.832-0.938
		c-2.451,2.492-3.742,5.886-4.465,9.721c-2.355-1.017-4.354-2.929-5.94-5.868c-1.05,0.778-2.011,1.684-2.844,2.772
		C70.613,123.456,79.469,107.257,95.79,94.267L95.79,94.267z M199.589,33.642c2.286,0,4.14-1.838,4.14-4.104
		s-1.854-4.104-4.14-4.104c-2.287,0-4.141,1.838-4.141,4.104S197.302,33.642,199.589,33.642L199.589,33.642z M257.453,233.284
		c2.287,0,4.141-1.838,4.141-4.104c0-2.266-1.854-4.104-4.141-4.104s-4.14,1.839-4.14,4.104
		C253.313,231.446,255.166,233.284,257.453,233.284L257.453,233.284z M45.145,234.423c2.287,0,4.141-1.838,4.141-4.105
		c0-2.266-1.854-4.104-4.141-4.104c-2.286,0-4.14,1.838-4.14,4.104C41.004,232.585,42.858,234.423,45.145,234.423L45.145,234.423z"
		/>
</g>
<g>
</g>
<g>
</g>
<g>
</g>
<g>
</g>
<g>
</g>
<g>
</g>
<g>
</g>
<g>
</g>
<g>
</g>
<g>
</g>
<g>
</g>
<g>
</g>
<g>
</g>
<g>
</g>
<g>
</g>
</svg>
