<?xml version="1.0" encoding="UTF-8" standalone="no"?>
<!-- Created with Inkscape (http://www.inkscape.org/) -->

<svg
   xmlns:dc="http://purl.org/dc/elements/1.1/"
   xmlns:cc="http://creativecommons.org/ns#"
   xmlns:rdf="http://www.w3.org/1999/02/22-rdf-syntax-ns#"
   xmlns:svg="http://www.w3.org/2000/svg"
   xmlns="http://www.w3.org/2000/svg"
   xmlns:sodipodi="http://sodipodi.sourceforge.net/DTD/sodipodi-0.dtd"
   xmlns:inkscape="http://www.inkscape.org/namespaces/inkscape"
   width="272.87488"
   height="279.81015"
   id="svg2"
   version="1.1"
   inkscape:version="0.91 r13725"
   sodipodi:docname="computing4all.svg">
  <defs
     id="defs4" />
  <sodipodi:namedview
     id="base"
     pagecolor="#ffffff"
     bordercolor="#666666"
     borderopacity="1.0"
     inkscape:pageopacity="0.0"
     inkscape:pageshadow="2"
     inkscape:zoom="1.99488"
     inkscape:cx="155.88591"
     inkscape:cy="199.36347"
     inkscape:document-units="px"
     inkscape:current-layer="layer6"
     showgrid="false"
     showguides="true"
     inkscape:guide-bbox="true"
     inkscape:window-width="1366"
     inkscape:window-height="710"
     inkscape:window-x="0"
     inkscape:window-y="0"
     inkscape:window-maximized="1"
     fit-margin-top="0"
     fit-margin-left="0"
     fit-margin-right="0"
     fit-margin-bottom="0" />
  <metadata
     id="metadata7">
    <rdf:RDF>
      <cc:Work
         rdf:about="">
        <dc:format>image/svg+xml</dc:format>
        <dc:type
           rdf:resource="http://purl.org/dc/dcmitype/StillImage" />
        <dc:title />
      </cc:Work>
    </rdf:RDF>
  </metadata>
  <g
     inkscape:groupmode="layer"
     id="layer5"
     inkscape:label="base"
     transform="translate(-41.174522,-55.465321)" />
  <g
     inkscape:groupmode="layer"
     id="layer2"
     inkscape:label="text_logo"
     style="display:inline"
     transform="translate(-41.174522,-55.465321)" />
  <g
     inkscape:groupmode="layer"
     id="layer3"
     inkscape:label="prompt"
     style="display:inline"
     transform="translate(-41.174522,-55.465321)"
     sodipodi:insensitive="true" />
  <g
     inkscape:groupmode="layer"
     id="layer4"
     inkscape:label="people"
     style="display:inline"
     transform="translate(-41.174522,-55.465321)" />
  <g
     inkscape:groupmode="layer"
     id="layer6"
     inkscape:label="tags"
     style="display:inline">
    <g
       id="g3412">
      <g
         id="text5256"
         style="display:inline;font-style:normal;font-variant:normal;font-stretch:normal;font-size:29.13637161px;line-height:125%;font-family:'URW Gothic L';-inkscape-font-specification:'URW Gothic L Book';text-align:center;letter-spacing:0px;word-spacing:0px;writing-mode:lr-tb;text-anchor:middle;fill:#000000;fill-opacity:1;stroke:none"
         transform="translate(-41.174522,-55.465321)">
        <path
           id="path3360"
           style="font-style:normal;font-variant:normal;font-stretch:normal;font-size:29.13637161px;line-height:125%;font-family:'URW Gothic L';-inkscape-font-specification:'URW Gothic L Book';text-align:center;writing-mode:lr-tb;text-anchor:middle"
           d="m 88.576993,315.90306 -2.389183,0 c -2.272637,2.85536 -4.341319,4.04995 -7.488047,4.04995 -4.98232,0 -9.090548,-4.13736 -9.090548,-9.17796 0,-5.18627 3.93341,-9.14882 9.061411,-9.14882 3.030183,0 5.565047,1.10719 7.400639,3.99169 l 2.418319,0 c -1.660773,-3.70032 -5.448502,-5.97296 -9.906367,-5.97296 -6.410001,0 -11.15923,4.77836 -11.15923,11.2175 0,6.29346 4.865774,11.07182 11.304912,11.07182 4.370456,0 7.692002,-2.03954 9.848094,-6.03122 z" />
        <path
           id="path3362"
           style="font-style:normal;font-variant:normal;font-stretch:normal;font-size:29.13637161px;line-height:125%;font-family:'URW Gothic L';-inkscape-font-specification:'URW Gothic L Book';text-align:center;writing-mode:lr-tb;text-anchor:middle"
           d="m 107.67588,313.63042 c 0,-4.86578 -3.49636,-8.39128 -8.274725,-8.39128 -4.720093,0 -8.362139,3.58378 -8.362139,8.2456 0,4.89491 3.583774,8.44954 8.536957,8.44954 4.661817,0 8.099907,-3.5255 8.099907,-8.30386 z m -2.18522,0.0291 c 0,3.64205 -2.50573,6.29346 -5.97296,6.29346 -3.671183,0 -6.293456,-2.68055 -6.293456,-6.41 0,-3.61291 2.65141,-6.32259 6.176911,-6.32259 3.496365,0 6.089505,2.73882 6.089505,6.43913 z" />
        <path
           id="path3364"
           style="font-style:normal;font-variant:normal;font-stretch:normal;font-size:29.13637161px;line-height:125%;font-family:'URW Gothic L';-inkscape-font-specification:'URW Gothic L Book';text-align:center;writing-mode:lr-tb;text-anchor:middle"
           d="m 134.37345,321.55551 0,-9.46932 c 0,-4.63268 -2.62227,-6.87618 -6.26432,-6.87618 -2.47659,0 -4.19564,0.9615 -5.53591,3.08845 -1.25287,-2.12695 -2.82623,-3.05932 -5.21541,-3.05932 -2.01041,0 -3.26328,0.61187 -4.487,2.21437 l 0,-1.83559 -2.1561,0 0,15.93759 2.1561,0 0,-9.2945 c 0,-3.17587 1.6025,-5.04059 4.28304,-5.04059 2.44746,0 4.31219,1.48595 4.31219,5.04059 l 0,9.2945 2.15609,0 0,-9.23623 c 0,-3.61291 1.83559,-5.128 4.37045,-5.128 2.62228,0 4.22478,1.54423 4.22478,5.128 l 0,9.23623 2.15609,0 z" />
        <path
           id="path3366"
           style="font-style:normal;font-variant:normal;font-stretch:normal;font-size:29.13637161px;line-height:125%;font-family:'URW Gothic L';-inkscape-font-specification:'URW Gothic L Book';text-align:center;writing-mode:lr-tb;text-anchor:middle"
           d="m 155.29701,313.63042 c 0,-4.74923 -3.64205,-8.39128 -8.39128,-8.39128 -2.70968,0 -4.92404,1.10719 -6.26432,3.1176 l 0,-2.73882 -2.15609,0 0,21.53177 2.15609,0 0,-8.333 c 1.39855,2.03955 3.55464,3.11759 6.20605,3.11759 4.74923,0 8.44955,-3.64204 8.44955,-8.30386 z m -2.18523,0 c 0,3.58377 -2.70968,6.32259 -6.26432,6.32259 -3.64205,0 -6.35173,-2.76795 -6.35173,-6.43914 0,-3.5255 2.79709,-6.29345 6.32259,-6.29345 3.58378,0 6.29346,2.73882 6.29346,6.41 z" />
        <path
           id="path3368"
           style="font-style:normal;font-variant:normal;font-stretch:normal;font-size:29.13637161px;line-height:125%;font-family:'URW Gothic L';-inkscape-font-specification:'URW Gothic L Book';text-align:center;writing-mode:lr-tb;text-anchor:middle"
           d="m 172.38959,321.55551 0,-15.93759 -2.15609,0 0,8.18732 c 0,4.34132 -2.03955,6.14777 -4.95319,6.14777 -3.08845,0 -4.77836,-1.68991 -4.77836,-5.73986 l 0,-8.59523 -2.15609,0 0,8.59523 c 0,5.56504 2.70968,7.72113 6.75963,7.72113 2.4766,0 4.04996,-0.87409 5.12801,-2.85536 l 0,2.47659 2.15609,0 z" />
        <path
           id="path3370"
           style="font-style:normal;font-variant:normal;font-stretch:normal;font-size:29.13637161px;line-height:125%;font-family:'URW Gothic L';-inkscape-font-specification:'URW Gothic L Book';text-align:center;writing-mode:lr-tb;text-anchor:middle"
           d="m 183.73593,307.57005 0,-1.95213 -3.58378,0 0,-5.59419 -2.15609,0 0,5.59419 -3.43809,0 0,1.95213 3.43809,0 0,13.98546 2.15609,0 0,-13.98546 3.58378,0 z" />
        <path
           id="path3372"
           style="font-style:normal;font-variant:normal;font-stretch:normal;font-size:29.13637161px;line-height:125%;font-family:'URW Gothic L';-inkscape-font-specification:'URW Gothic L Book';text-align:center;writing-mode:lr-tb;text-anchor:middle"
           d="m 188.10183,321.55551 0,-15.93759 -2.15609,0 0,15.93759 2.15609,0 z m 0,-17.68578 0,-3.67118 -2.15609,0 0,3.67118 2.15609,0 z" />
        <path
           id="path3374"
           style="font-style:normal;font-variant:normal;font-stretch:normal;font-size:29.13637161px;line-height:125%;font-family:'URW Gothic L';-inkscape-font-specification:'URW Gothic L Book';text-align:center;writing-mode:lr-tb;text-anchor:middle"
           d="m 205.85226,321.55551 0,-8.36214 c 0,-5.59418 -2.82623,-7.95423 -6.81791,-7.95423 -2.09782,0 -3.78773,0.81582 -5.12801,2.44746 l 0,-2.06868 -2.15609,0 0,15.93759 2.15609,0 0,-8.77005 c 0,-3.90427 1.98128,-5.56504 4.86578,-5.56504 2.94277,0 4.92405,1.63163 4.92405,5.97295 l 0,8.36214 2.15609,0 z" />
        <path
           id="path3376"
           style="font-style:normal;font-variant:normal;font-stretch:normal;font-size:29.13637161px;line-height:125%;font-family:'URW Gothic L';-inkscape-font-specification:'URW Gothic L Book';text-align:center;writing-mode:lr-tb;text-anchor:middle"
           d="m 225.44282,318.70015 0,-13.08223 -2.15609,0 0,2.82622 c -1.6025,-2.18522 -3.55464,-3.205 -6.23518,-3.205 -4.66182,0 -8.15819,3.61291 -8.15819,8.42041 0,4.66182 3.64205,8.27473 8.30387,8.27473 2.85536,0 4.83664,-1.16545 6.0895,-3.61291 l 0,1.07805 c 0,4.19564 -2.01041,6.43914 -5.85641,6.43914 -2.68055,0 -4.22477,-0.90323 -5.85641,-3.78773 l -2.09782,0 c 1.16546,3.72946 3.99168,5.769 8.0125,5.769 2.76796,0 5.09887,-1.04891 6.46828,-2.85536 1.07804,-1.45682 1.48595,-3.14673 1.48595,-6.26432 z m -2.15609,-5.30282 c 0,3.72945 -2.62227,6.55568 -6.0895,6.55568 -3.49637,0 -6.11864,-2.76795 -6.11864,-6.46827 0,-3.64205 2.564,-6.26432 6.0895,-6.26432 3.43809,0 6.11864,2.70968 6.11864,6.17691 z" />
        <path
           id="path3378"
           style="font-style:normal;font-variant:normal;font-stretch:normal;font-size:29.13637161px;line-height:125%;font-family:'URW Gothic L';-inkscape-font-specification:'URW Gothic L Book';text-align:center;writing-mode:lr-tb;text-anchor:middle"
           d="m 250.7382,317.6221 0,-1.95214 -1.98127,0 0,-15.64623 -2.53486,0 -10.4891,15.64623 0,1.95214 10.897,0 0,3.93341 2.12696,0 0,-3.93341 1.98127,0 z m -4.10823,-1.95214 -8.42041,0 8.42041,-12.67432 0,12.67432 z" />
        <path
           id="path3380"
           style="font-style:normal;font-variant:normal;font-stretch:normal;font-size:29.13637161px;line-height:125%;font-family:'URW Gothic L';-inkscape-font-specification:'URW Gothic L Book';text-align:center;writing-mode:lr-tb;text-anchor:middle"
           d="m 280.86612,321.55551 -9.26537,-21.53178 -2.41831,0 -9.23623,21.53178 2.27263,0 3.14673,-7.25496 10.02291,0 3.11759,7.25496 2.36005,0 z m -6.32259,-9.20709 -8.36214,0 4.22477,-9.87723 4.13737,9.87723 z" />
        <path
           id="path3382"
           style="font-style:normal;font-variant:normal;font-stretch:normal;font-size:29.13637161px;line-height:125%;font-family:'URW Gothic L';-inkscape-font-specification:'URW Gothic L Book';text-align:center;writing-mode:lr-tb;text-anchor:middle"
           d="m 285.18512,321.55551 0,-21.53178 -2.15609,0 0,21.53178 2.15609,0 z" />
        <path
           id="path3384"
           style="font-style:normal;font-variant:normal;font-stretch:normal;font-size:29.13637161px;line-height:125%;font-family:'URW Gothic L';-inkscape-font-specification:'URW Gothic L Book';text-align:center;writing-mode:lr-tb;text-anchor:middle"
           d="m 290.98964,321.55551 0,-21.53178 -2.15609,0 0,21.53178 2.15609,0 z" />
      </g>
      <path
         transform="matrix(-0.39256437,0,0,0.39256437,-291.90751,98.433869)"
         d="m -1000,72.362183 a 91.428574,91.428574 0 0 1 -91.4286,91.428577 91.428574,91.428574 0 0 1 -91.4286,-91.428577 91.428574,91.428574 0 0 1 91.4286,-91.428574 91.428574,91.428574 0 0 1 91.4286,91.428574 z"
         sodipodi:ry="91.428574"
         sodipodi:rx="91.428574"
         sodipodi:cy="72.362183"
         sodipodi:cx="-1091.4286"
         id="path5234"
         style="display:inline;fill:#7d729b;fill-opacity:1;stroke:none"
         sodipodi:type="arc" />
      <rect
         style="display:inline;fill:#000000;fill-opacity:1;stroke:none"
         id="rect5236"
         width="82.474838"
         height="82.474838"
         x="140.28409"
         y="135.82401"
         ry="24.717035"
         transform="matrix(0,1,1,0,-41.174522,-55.465321)" />
      <path
         transform="matrix(-0.13683707,-0.09581435,0.09581435,-0.13683707,-103.35804,-24.894053)"
         d="m -1000,72.362183 a 91.428574,91.428574 0 0 1 -91.4286,91.428577 91.428574,91.428574 0 0 1 -91.4286,-91.428577 91.428574,91.428574 0 0 1 91.4286,-91.428574 91.428574,91.428574 0 0 1 91.4286,91.428574 z"
         sodipodi:ry="91.428574"
         sodipodi:rx="91.428574"
         sodipodi:cy="72.362183"
         sodipodi:cx="-1091.4286"
         id="path5218"
         style="display:inline;fill:#ff9800;fill-opacity:1;stroke:none"
         sodipodi:type="arc" />
      <rect
         transform="matrix(-0.81915205,-0.57357643,0.57357643,-0.81915205,-41.174522,-55.465321)"
         ry="3.4331911"
         y="-87.530724"
         x="-189.87253"
         height="77.819"
         width="11.972155"
         id="rect5220"
         style="display:inline;fill:#ff9800;fill-opacity:1;stroke:none;stroke-width:1;stroke-miterlimit:4;stroke-dasharray:none" />
      <path
         sodipodi:type="arc"
         style="display:inline;fill:#ee0529;fill-opacity:1;stroke:none"
         id="path5222"
         sodipodi:cx="-1091.4286"
         sodipodi:cy="72.362183"
         sodipodi:rx="91.428574"
         sodipodi:ry="91.428574"
         d="m -1000,72.362183 a 91.428574,91.428574 0 0 1 -91.4286,91.428577 91.428574,91.428574 0 0 1 -91.4286,-91.428577 91.428574,91.428574 0 0 1 91.4286,-91.428574 91.428574,91.428574 0 0 1 91.4286,91.428574 z"
         transform="matrix(0.13683707,-0.09581435,-0.09581435,-0.13683707,209.2044,89.580999)" />
      <rect
         transform="matrix(0.81915205,-0.57357643,-0.57357643,-0.81915205,-41.174522,-55.465321)"
         style="display:inline;fill:#ee0529;fill-opacity:1;stroke:none;stroke-width:1;stroke-miterlimit:4;stroke-dasharray:none"
         id="rect5224"
         width="11.972155"
         height="77.819"
         x="-31.429541"
         y="-289.25107"
         ry="3.4331911" />
      <path
         transform="matrix(0.05300486,0.15841483,-0.15841483,0.05300486,236.20673,390.44463)"
         d="m -1000,72.362183 a 91.428574,91.428574 0 0 1 -91.4286,91.428577 91.428574,91.428574 0 0 1 -91.4286,-91.428577 91.428574,91.428574 0 0 1 91.4286,-91.428574 91.428574,91.428574 0 0 1 91.4286,91.428574 z"
         sodipodi:ry="91.428574"
         sodipodi:rx="91.428574"
         sodipodi:cy="72.362183"
         sodipodi:cx="-1091.4286"
         id="path5226"
         style="display:inline;fill:#4cd610;fill-opacity:1;stroke:none"
         sodipodi:type="arc" />
      <rect
         transform="matrix(0.31730463,0.94832366,-0.94832366,0.31730463,-41.174522,-55.465321)"
         ry="3.4331911"
         y="-148.37744"
         x="287.6037"
         height="77.819"
         width="11.972155"
         id="rect5228"
         style="display:inline;fill:#4cd610;fill-opacity:1;stroke:none;stroke-width:1;stroke-miterlimit:4;stroke-dasharray:none" />
      <path
         sodipodi:type="arc"
         style="display:inline;fill:#00b8fb;fill-opacity:1;stroke:none"
         id="path5230"
         sodipodi:cx="-1091.4286"
         sodipodi:cy="72.362183"
         sodipodi:rx="91.428574"
         sodipodi:ry="91.428574"
         d="m -1000,72.362183 a 91.428574,91.428574 0 0 1 -91.4286,91.428577 91.428574,91.428574 0 0 1 -91.4286,-91.428577 91.428574,91.428574 0 0 1 91.4286,-91.428574 91.428574,91.428574 0 0 1 91.4286,91.428574 z"
         transform="matrix(-0.05300486,0.15841483,0.15841483,0.05300486,97.578208,202.41234)" />
      <rect
         transform="matrix(-0.31730463,0.94832366,0.94832366,0.31730463,-41.174522,-55.465321)"
         style="display:inline;fill:#00b8fb;fill-opacity:1;stroke:none;stroke-width:1;stroke-miterlimit:4;stroke-dasharray:none"
         id="rect5232"
         width="11.972155"
         height="77.819"
         x="47.191673"
         y="186.58376"
         ry="3.4331911" />
      <path
         sodipodi:type="arc"
         style="display:inline;fill:#7d729b;fill-opacity:1;stroke:none"
         id="path5238"
         sodipodi:cx="-1091.4286"
         sodipodi:cy="72.362183"
         sodipodi:rx="91.428574"
         sodipodi:ry="91.428574"
         d="m -1000,72.362183 a 91.428574,91.428574 0 0 1 -91.4286,91.428577 91.428574,91.428574 0 0 1 -91.4286,-91.428577 91.428574,91.428574 0 0 1 91.4286,-91.428574 91.428574,91.428574 0 0 1 91.4286,91.428574 z"
         transform="matrix(0.16704722,0,0,0.16704722,420.43536,114.01552)" />
      <rect
         style="display:inline;fill:#7d729b;fill-opacity:1;stroke:none;stroke-width:1;stroke-miterlimit:4;stroke-dasharray:none"
         id="rect5240"
         width="11.972155"
         height="77.819"
         x="238.33047"
         y="142.65926"
         ry="3.4331911"
         transform="translate(-41.174522,-55.465321)" />
      <g
         style="fill:none;stroke:#ffffff;stroke-width:25.14877129;stroke-miterlimit:4;stroke-opacity:1;stroke-dasharray:none;display:inline"
         transform="matrix(0.17776093,0,0,0.14231481,237.80913,32.253417)"
         id="g5242">
        <path
           style="fill:none;stroke:#ffffff;stroke-width:25.14877129;stroke-linecap:round;stroke-linejoin:miter;stroke-miterlimit:4;stroke-opacity:1;stroke-dasharray:none"
           d="m -649.43054,570.89541 -89.72266,76.85385"
           id="path5244"
           inkscape:connector-curvature="0" />
        <path
           inkscape:connector-curvature="0"
           id="path5246"
           d="M -649.43054,725.74926 -739.1532,648.89541"
           style="fill:none;stroke:#ffffff;stroke-width:25.14877129;stroke-linecap:round;stroke-linejoin:miter;stroke-miterlimit:4;stroke-opacity:1;stroke-dasharray:none" />
      </g>
      <g
         style="fill:none;stroke:#ffffff;stroke-width:25.14877129;stroke-linecap:round;stroke-miterlimit:4;stroke-opacity:1;stroke-dasharray:none;display:inline"
         transform="matrix(-0.17776093,0,0,0.14231481,32.213722,32.253417)"
         id="g5248">
        <path
           inkscape:connector-curvature="0"
           id="path5250"
           d="m -649.43054,570.89541 -89.72266,76.85385"
           style="fill:none;stroke:#ffffff;stroke-width:25.14877129;stroke-linecap:round;stroke-linejoin:miter;stroke-miterlimit:4;stroke-opacity:1;stroke-dasharray:none" />
        <path
           style="fill:none;stroke:#ffffff;stroke-width:25.14877129;stroke-linecap:round;stroke-linejoin:miter;stroke-miterlimit:4;stroke-opacity:1;stroke-dasharray:none"
           d="M -649.43054,725.74926 -739.1532,648.89541"
           id="path5252"
           inkscape:connector-curvature="0" />
      </g>
      <path
         inkscape:connector-curvature="0"
         id="path5254"
         d="m 182.77935,168.96553 -12.29224,22.19664"
         style="fill:none;stroke:#ffffff;stroke-width:4;stroke-linecap:round;stroke-linejoin:miter;stroke-miterlimit:4;stroke-opacity:1;stroke-dasharray:none;display:inline"
         transform="translate(-41.174522,-55.465321)" />
    </g>
  </g>
</svg>
