<?xml version="1.0" encoding="utf-8"?>
<!-- Generator: Adobe Illustrator 16.0.0, SVG Export Plug-In . SVG Version: 6.00 Build 0)  -->
<!DOCTYPE svg PUBLIC "-//W3C//DTD SVG 1.1//EN" "http://www.w3.org/Graphics/SVG/1.1/DTD/svg11.dtd">
<svg version="1.1" id="Layer_1" xmlns="http://www.w3.org/2000/svg" xmlns:xlink="http://www.w3.org/1999/xlink" x="0px" y="0px"
	 width="299.799px" height="70.285px" viewBox="0 0 299.799 70.285" enable-background="new 0 0 299.799 70.285"
	 xml:space="preserve">
<g>
	<g>
		<g>
			<path fill-rule="evenodd" clip-rule="evenodd" fill="#231F20" d="M80.223,26.777h4.01c-1.033,3.024-2.436,5.227-4.207,6.605
				c-1.297,1.02-2.821,1.718-4.578,2.112c-1.765,0.394-4.255,0.591-7.468,0.591c-4.305,0-7.431-0.161-9.396-0.476
				c-1.957-0.313-3.359-0.877-4.193-1.7c-1.831-1.835-1.912-5.344-0.237-10.516c1.183-3.652,2.598-6.391,4.24-8.226
				c1.608-1.79,3.486-2.999,5.633-3.633c2.148-0.637,5.43-0.959,9.852-0.959c3.983,0,6.879,0.207,8.688,0.619
				c1.81,0.411,3.054,1.127,3.732,2.157c0.478,0.733,0.719,1.593,0.737,2.559c0.01,0.967-0.21,2.255-0.67,3.867h-4.108
				c0.702-2.336,0.435-3.885-0.802-4.627c-1.236-0.744-4.134-1.11-8.698-1.11c-4.476,0-7.55,0.457-9.221,1.361
				c-1.108,0.599-2.071,1.557-2.909,2.873c-0.839,1.315-1.629,3.125-2.372,5.415c-0.702,2.167-1.002,3.867-0.915,5.119
				c0.095,1.254,0.593,2.148,1.485,2.687c1.224,0.751,4.395,1.126,9.515,1.126c4.037,0,6.805-0.366,8.316-1.109
				C78.16,30.769,79.354,29.184,80.223,26.777z M114.928,10.576c3.912,0,6.765,0.116,8.548,0.359
				c1.786,0.233,3.105,0.662,3.947,1.297c1.271,0.94,1.972,2.282,2.107,4.019c0.137,1.736-0.282,4.107-1.248,7.088
				c-1.075,3.321-2.316,5.854-3.717,7.582c-1.032,1.307-2.18,2.335-3.447,3.07c-1.258,0.733-2.772,1.262-4.535,1.593
				c-1.718,0.331-4.45,0.501-8.191,0.501c-3.526,0-6.156-0.117-7.877-0.358c-1.723-0.233-3.046-0.655-3.965-1.271
				c-1.378-0.886-2.143-2.201-2.296-3.938c-0.151-1.745,0.28-4.181,1.291-7.303c1.134-3.5,2.511-6.149,4.123-7.948
				c1.647-1.853,3.497-3.088,5.556-3.724C107.281,10.917,110.518,10.595,114.928,10.576z M114.432,14.04
				c-2.604,0-4.596,0.098-5.99,0.287c-1.389,0.197-2.558,0.546-3.508,1.047c-1.125,0.6-2.101,1.54-2.936,2.819
				c-0.838,1.29-1.609,3.035-2.328,5.254c-0.815,2.516-1.149,4.404-0.988,5.647c0.149,1.253,0.83,2.14,2.022,2.66
				c1.315,0.581,4.148,0.867,8.499,0.867c2.828,0,4.948-0.107,6.358-0.313c1.403-0.215,2.593-0.599,3.568-1.18
				c1.065-0.609,1.991-1.532,2.76-2.749c0.773-1.226,1.518-2.945,2.237-5.164c0.85-2.623,1.177-4.547,0.972-5.764
				c-0.219-1.369-1.027-2.273-2.427-2.731C121.27,14.264,118.522,14.04,114.432,14.04z M143.299,10.89h3.93l-1.214,3.75h0.287
				c1.357-1.592,2.984-2.666,4.892-3.221c1.901-0.563,4.899-0.842,8.99-0.842c3.571,0,6.146,0.197,7.746,0.592
				c1.591,0.394,2.714,1.101,3.354,2.138c0.506,0.814,0.718,1.844,0.622,3.08c-0.091,1.226-0.518,3.006-1.271,5.333l-4.551,14.053
				h-3.931l4.01-12.379c0.72-2.22,1.146-3.813,1.27-4.78c0.135-0.967,0.024-1.79-0.313-2.452c-0.423-0.77-1.257-1.316-2.531-1.638
				c-1.265-0.323-3.262-0.484-5.994-0.484c-3.041,0-5.485,0.224-7.331,0.671c-1.833,0.439-3.351,1.172-4.538,2.184
				c-0.829,0.734-1.489,1.558-1.966,2.479c-0.484,0.913-1.1,2.543-1.861,4.887l-3.728,11.511h-3.929L143.299,10.89z M175.068,44.712
				l10.953-33.823h3.932l-1.035,3.195h0.233c1.316-1.414,2.828-2.354,4.533-2.81c1.708-0.465,4.513-0.699,8.435-0.699
				c3.373,0,5.865,0.125,7.496,0.368c1.623,0.241,2.884,0.689,3.776,1.333c1.384,1.002,2.115,2.362,2.192,4.091
				c0.08,1.683-0.355,4-1.319,6.972c-1.215,3.76-2.689,6.534-4.419,8.315c-1.736,1.798-3.69,2.989-5.836,3.562
				c-2.157,0.583-5.677,0.869-10.574,0.869c-3.589,0-6.085-0.225-7.497-0.672c-1.406-0.438-2.357-1.315-2.852-2.604h-0.232
				L179,44.712H175.068z M201.909,14.04c-3.167,0-5.545,0.098-7.152,0.305c-1.602,0.196-2.864,0.554-3.779,1.056
				c-1.136,0.635-2.094,1.548-2.89,2.738c-0.801,1.199-1.539,2.847-2.219,4.941c-0.798,2.46-1.177,4.322-1.136,5.584
				c0.04,1.253,0.499,2.184,1.391,2.775c1.179,0.788,3.95,1.18,8.326,1.18c2.919,0,5.153-0.098,6.695-0.303
				c1.541-0.198,2.775-0.556,3.709-1.057c1.152-0.636,2.125-1.558,2.926-2.767c0.805-1.216,1.557-2.898,2.254-5.047
				c0.786-2.426,1.165-4.26,1.123-5.486c-0.038-1.234-0.506-2.149-1.396-2.739C208.62,14.434,205.999,14.04,201.909,14.04z
				 M250.939,28.092h4.115c-1.033,2.972-2.754,5.047-5.153,6.22c-2.416,1.182-6.133,1.773-11.173,1.773
				c-4.161,0-7.27-0.161-9.322-0.484c-2.052-0.323-3.505-0.869-4.356-1.637c-1.938-1.782-2.059-5.309-0.354-10.571
				c1.195-3.688,2.628-6.453,4.293-8.307c1.582-1.762,3.438-2.962,5.546-3.579c2.116-0.619,5.411-0.932,9.887-0.932
				c4.286,0,7.304,0.225,9.061,0.68c1.761,0.457,2.996,1.334,3.717,2.623c0.589,1.083,0.832,2.346,0.718,3.777
				c-0.114,1.432-0.635,3.616-1.549,6.551H228.65c-0.898,3.097-0.977,5.218-0.232,6.374c0.501,0.778,1.536,1.315,3.087,1.611
				c1.562,0.287,4.201,0.429,7.924,0.429c2.819,0,4.922-0.134,6.321-0.393c1.392-0.26,2.523-0.743,3.402-1.441
				C249.81,30.25,250.417,29.346,250.939,28.092z M253.105,20.852c0.766-2.426,0.673-4.125-0.295-5.084
				c-0.635-0.644-1.662-1.091-3.09-1.351c-1.431-0.251-3.612-0.376-6.529-0.376c-2.551,0-4.531,0.117-5.952,0.358
				c-1.406,0.233-2.589,0.645-3.535,1.245c-1.543,0.958-2.822,2.694-3.834,5.209H253.105z M292.986,26.777h4.011
				c-1.033,3.024-2.437,5.227-4.208,6.605c-1.297,1.02-2.819,1.718-4.576,2.112c-1.766,0.394-4.257,0.591-7.468,0.591
				c-4.306,0-7.433-0.161-9.397-0.476c-1.956-0.313-3.358-0.877-4.193-1.7c-1.83-1.835-1.911-5.344-0.235-10.516
				c1.182-3.652,2.597-6.391,4.238-8.226c1.61-1.79,3.485-2.999,5.634-3.633c2.149-0.637,5.43-0.959,9.854-0.959
				c3.98,0,6.875,0.207,8.685,0.619c1.811,0.411,3.055,1.127,3.732,2.157c0.478,0.733,0.72,1.593,0.737,2.559
				c0.011,0.967-0.211,2.255-0.671,3.867h-4.107c0.702-2.336,0.434-3.885-0.802-4.627c-1.236-0.744-4.132-1.11-8.698-1.11
				c-4.477,0-7.55,0.457-9.22,1.361c-1.109,0.599-2.07,1.557-2.909,2.873s-1.629,3.125-2.372,5.415
				c-0.701,2.167-1.001,3.867-0.915,5.119c0.095,1.254,0.594,2.148,1.487,2.687c1.222,0.751,4.393,1.126,9.513,1.126
				c4.036,0,6.806-0.366,8.315-1.109C290.924,30.769,292.116,29.184,292.986,26.777z"/>
			<g>
				<circle fill-rule="evenodd" clip-rule="evenodd" fill="#F48120" cx="89.906" cy="23.813" r="2.132"/>
				<circle fill-rule="evenodd" clip-rule="evenodd" fill="#F48120" cx="132.991" cy="23.813" r="2.132"/>
				<circle fill-rule="evenodd" clip-rule="evenodd" fill="#F48120" cx="175.644" cy="23.813" r="2.132"/>
				<circle fill-rule="evenodd" clip-rule="evenodd" fill="#F48120" cx="220.034" cy="23.813" r="2.132"/>
				<circle fill-rule="evenodd" clip-rule="evenodd" fill="#F48120" cx="261.335" cy="23.813" r="2.132"/>
			</g>
			<path fill-rule="evenodd" clip-rule="evenodd" fill="#231F20" d="M14.488,56.639h0.979c-0.017,0.707-0.266,1.201-0.748,1.479
				c-0.482,0.283-1.322,0.422-2.522,0.422c-0.99,0-1.742-0.038-2.256-0.114c-0.513-0.078-0.9-0.207-1.163-0.391
				C8.18,57.611,7.88,56.772,7.88,55.52c0-0.877,0.128-1.537,0.381-1.978c0.241-0.419,0.589-0.704,1.043-0.852
				c0.456-0.146,1.216-0.221,2.281-0.221c1.021,0,1.755,0.053,2.209,0.162c0.455,0.109,0.817,0.317,1.087,0.624
				c0.223,0.258,0.378,0.558,0.462,0.899c0.083,0.34,0.128,0.861,0.136,1.56H8.883c0.025,0.736,0.17,1.241,0.437,1.517
				c0.179,0.185,0.466,0.313,0.859,0.383c0.394,0.069,1.033,0.103,1.919,0.103c0.671,0,1.161-0.033,1.473-0.094
				c0.312-0.062,0.543-0.177,0.699-0.343C14.386,57.151,14.46,56.936,14.488,56.639z M14.445,54.915
				c-0.004-0.578-0.158-0.982-0.462-1.211c-0.2-0.153-0.479-0.26-0.839-0.321c-0.36-0.059-0.888-0.089-1.583-0.089
				c-0.607,0-1.069,0.027-1.388,0.085c-0.318,0.055-0.566,0.153-0.746,0.296c-0.293,0.229-0.464,0.641-0.511,1.24H14.445z
				 M31.22,52.544h0.942v0.78c0.295-0.359,0.592-0.59,0.892-0.694c0.301-0.107,0.812-0.16,1.536-0.16
				c0.969,0,1.664,0.07,2.088,0.212c0.422,0.141,0.75,0.413,0.982,0.816c0.191-0.386,0.488-0.655,0.887-0.806
				c0.4-0.149,1.024-0.223,1.872-0.223c0.808,0,1.413,0.051,1.815,0.155c0.4,0.104,0.727,0.291,0.976,0.562
				c0.191,0.216,0.317,0.459,0.374,0.728c0.058,0.268,0.087,0.748,0.087,1.437v3.114h-0.935v-3.331c0-0.729-0.109-1.198-0.324-1.41
				c-0.292-0.289-0.958-0.431-1.998-0.431c-0.597,0-1.05,0.041-1.362,0.118c-0.313,0.08-0.549,0.211-0.713,0.4
				c-0.162,0.191-0.273,0.445-0.33,0.764c-0.058,0.317-0.088,0.837-0.088,1.555v2.334h-0.935v-3.331c0-0.42-0.023-0.731-0.068-0.931
				c-0.047-0.198-0.133-0.355-0.257-0.474c-0.304-0.291-0.972-0.436-2.01-0.436c-0.599,0-1.061,0.041-1.382,0.121
				c-0.322,0.081-0.571,0.219-0.746,0.416c-0.149,0.17-0.249,0.403-0.296,0.699c-0.049,0.293-0.073,0.828-0.073,1.601v2.334H31.22
				V52.544z M59.648,60.594v-8.05h0.935v0.761h0.056c0.204-0.337,0.492-0.561,0.862-0.67c0.37-0.11,1.021-0.166,1.954-0.166
				c0.803,0,1.406,0.03,1.813,0.086c0.405,0.058,0.74,0.166,1.001,0.318c0.407,0.238,0.687,0.562,0.837,0.974
				c0.149,0.399,0.224,0.952,0.224,1.659c0,0.894-0.136,1.554-0.412,1.979c-0.274,0.428-0.647,0.711-1.113,0.848
				c-0.469,0.139-1.285,0.206-2.45,0.206c-0.854,0-1.465-0.053-1.836-0.16c-0.369-0.104-0.663-0.313-0.879-0.62h-0.056v2.833H59.648
				z M63.673,53.294c-0.754,0-1.313,0.023-1.679,0.072c-0.366,0.046-0.639,0.133-0.818,0.252c-0.222,0.15-0.379,0.368-0.477,0.651
				c-0.098,0.286-0.147,0.678-0.147,1.176c0,0.585,0.053,1.028,0.16,1.328c0.106,0.299,0.288,0.521,0.545,0.662
				c0.341,0.187,1.031,0.281,2.073,0.281c0.694,0,1.218-0.024,1.57-0.073c0.351-0.047,0.618-0.131,0.8-0.251
				c0.226-0.151,0.386-0.37,0.484-0.658c0.097-0.29,0.146-0.69,0.146-1.201c0-0.578-0.051-1.015-0.156-1.306
				c-0.104-0.294-0.285-0.511-0.543-0.652C65.3,53.387,64.646,53.294,63.673,53.294z M83.108,52.544h0.935v0.799h0.062
				c0.147-0.266,0.369-0.478,0.669-0.631c0.18-0.091,0.416-0.156,0.707-0.189c0.295-0.037,0.733-0.053,1.315-0.053
				c0.584,0,1.018,0.031,1.302,0.096c0.285,0.066,0.53,0.183,0.734,0.353c0.399,0.346,0.599,0.907,0.599,1.679v0.611H88.47v-0.423
				c0-0.328-0.021-0.578-0.066-0.747c-0.043-0.167-0.121-0.306-0.234-0.415c-0.236-0.219-0.731-0.33-1.479-0.33
				c-1.129,0-1.852,0.146-2.17,0.439c-0.318,0.294-0.478,0.96-0.478,2v2.732h-0.935V52.544z M111.492,56.639h0.98
				c-0.017,0.707-0.266,1.201-0.748,1.479c-0.483,0.283-1.323,0.422-2.522,0.422c-0.99,0-1.742-0.038-2.256-0.114
				c-0.513-0.078-0.901-0.207-1.163-0.391c-0.599-0.424-0.898-1.262-0.898-2.515c0-0.877,0.127-1.537,0.382-1.978
				c0.24-0.419,0.589-0.704,1.043-0.852c0.456-0.146,1.216-0.221,2.281-0.221c1.021,0,1.755,0.053,2.209,0.162
				c0.454,0.109,0.816,0.317,1.087,0.624c0.223,0.258,0.379,0.558,0.462,0.899c0.083,0.34,0.127,0.861,0.137,1.56h-6.598
				c0.025,0.736,0.171,1.241,0.437,1.517c0.179,0.185,0.466,0.313,0.859,0.383c0.394,0.069,1.033,0.103,1.919,0.103
				c0.671,0,1.161-0.033,1.474-0.094c0.311-0.062,0.543-0.177,0.699-0.343C111.39,57.151,111.464,56.936,111.492,56.639z
				 M111.45,54.915c-0.004-0.578-0.158-0.982-0.463-1.211c-0.2-0.153-0.479-0.26-0.839-0.321c-0.36-0.059-0.888-0.089-1.583-0.089
				c-0.607,0-1.069,0.027-1.389,0.085c-0.318,0.055-0.566,0.153-0.746,0.296c-0.294,0.229-0.464,0.641-0.511,1.24H111.45z
				 M128.062,56.4h1c0,0.083,0,0.138,0,0.168c0,0.32,0.034,0.55,0.102,0.686c0.068,0.139,0.205,0.243,0.409,0.32
				c0.271,0.096,1.048,0.143,2.335,0.143c0.803,0,1.361-0.018,1.674-0.054c0.315-0.037,0.541-0.104,0.678-0.208
				c0.188-0.141,0.281-0.36,0.281-0.656c0-0.358-0.112-0.601-0.336-0.732c-0.226-0.131-0.635-0.194-1.23-0.19
				c-0.187,0.004-1.088-0.007-2.702-0.032c-0.42-0.008-0.757-0.041-1.008-0.1c-0.25-0.058-0.46-0.152-0.625-0.282
				c-0.318-0.246-0.476-0.658-0.476-1.241c0-0.616,0.198-1.064,0.592-1.342c0.208-0.145,0.55-0.249,1.025-0.315
				c0.473-0.064,1.157-0.097,2.047-0.097c0.992,0,1.727,0.054,2.199,0.163c0.473,0.108,0.82,0.3,1.04,0.575
				c0.108,0.132,0.178,0.272,0.208,0.421c0.033,0.147,0.047,0.396,0.047,0.746h-0.986c-0.005-0.362-0.063-0.599-0.182-0.711
				c-0.127-0.129-0.376-0.224-0.748-0.281c-0.37-0.058-0.907-0.087-1.61-0.087c-1.28,0-2.059,0.09-2.333,0.269
				c-0.2,0.132-0.3,0.358-0.3,0.673c0,0.326,0.117,0.539,0.35,0.643c0.232,0.104,0.704,0.149,1.41,0.139
				c0.699-0.013,1.604,0.004,2.714,0.049c0.675,0.025,1.161,0.171,1.459,0.443c0.297,0.27,0.445,0.698,0.445,1.286
				c0,0.354-0.051,0.639-0.156,0.861c-0.104,0.219-0.272,0.401-0.506,0.543c-0.202,0.125-0.537,0.213-0.997,0.264
				c-0.463,0.054-1.132,0.079-2.004,0.079c-0.979,0-1.703-0.03-2.176-0.087c-0.473-0.058-0.818-0.162-1.04-0.313
				c-0.224-0.149-0.382-0.331-0.471-0.541c-0.09-0.213-0.135-0.51-0.135-0.889C128.055,56.662,128.058,56.558,128.062,56.4z
				 M152.297,54.323h-0.973c-0.01-0.109-0.015-0.194-0.015-0.256c0-0.619,0.233-1.042,0.7-1.267
				c0.466-0.224,1.339-0.336,2.621-0.336c1.007,0,1.73,0.045,2.172,0.136c0.439,0.091,0.784,0.266,1.036,0.527
				c0.209,0.205,0.343,0.45,0.406,0.733c0.061,0.284,0.092,0.778,0.092,1.485v3.121h-0.931l0.021-0.691h-0.051
				c-0.232,0.323-0.511,0.532-0.839,0.626c-0.328,0.092-0.943,0.139-1.851,0.139c-1.036,0-1.756-0.025-2.159-0.075
				c-0.402-0.051-0.711-0.152-0.916-0.313c-0.208-0.149-0.355-0.328-0.435-0.537c-0.081-0.206-0.122-0.498-0.122-0.873
				c0-0.456,0.063-0.808,0.183-1.055c0.124-0.245,0.331-0.428,0.622-0.548c0.315-0.138,1.055-0.206,2.216-0.206
				c1.214,0,2.01,0.036,2.384,0.109c0.374,0.072,0.661,0.249,0.866,0.527h0.081v-0.636c0-0.521-0.094-0.896-0.28-1.123
				c-0.167-0.206-0.42-0.343-0.758-0.416c-0.339-0.072-0.893-0.108-1.661-0.108c-1.013,0-1.667,0.059-1.966,0.177
				c-0.295,0.119-0.444,0.378-0.444,0.778C152.297,54.263,152.297,54.289,152.297,54.323z M154.693,55.765
				c-0.771,0-1.309,0.012-1.616,0.04c-0.309,0.028-0.527,0.079-0.654,0.153c-0.245,0.146-0.368,0.414-0.368,0.803
				c0,0.388,0.145,0.65,0.437,0.787c0.235,0.113,1.035,0.168,2.396,0.168c0.994,0,1.65-0.065,1.971-0.194
				c0.32-0.128,0.48-0.391,0.48-0.784c0-0.384-0.177-0.641-0.535-0.773C156.442,55.831,155.742,55.765,154.693,55.765z
				 M180.966,52.544h0.937v5.79c0,0.549-0.018,0.927-0.055,1.133c-0.034,0.207-0.117,0.396-0.246,0.571
				c-0.149,0.201-0.335,0.338-0.554,0.415c-0.225,0.077-0.551,0.115-0.987,0.115h-0.149v-0.861c0.334-0.008,0.555-0.025,0.664-0.049
				c0.111-0.025,0.199-0.084,0.265-0.174c0.055-0.077,0.091-0.169,0.105-0.28c0.014-0.11,0.021-0.339,0.021-0.683V52.544z
				 M180.966,49.947h0.937v1.08h-0.937V49.947z M197.811,52.544h0.936v3.001c0,0.554,0.03,0.95,0.088,1.188
				c0.057,0.238,0.172,0.433,0.341,0.584c0.172,0.144,0.408,0.246,0.712,0.308c0.299,0.061,0.725,0.091,1.274,0.091
				c0.713,0,1.264-0.054,1.658-0.163c0.394-0.108,0.689-0.287,0.89-0.537c0.124-0.149,0.211-0.339,0.258-0.565
				c0.05-0.226,0.072-0.553,0.072-0.981v-2.927h0.935v5.921h-0.935v-0.887h-0.057c-0.238,0.38-0.553,0.633-0.948,0.766
				c-0.394,0.13-1.055,0.196-1.978,0.196c-0.726,0-1.292-0.044-1.704-0.131c-0.413-0.087-0.733-0.233-0.966-0.437
				c-0.215-0.182-0.364-0.436-0.448-0.754c-0.087-0.32-0.128-0.787-0.128-1.397V52.544z M201.909,49.43l0.926,0.792l-1.617,1.685
				l-0.638-0.53L201.909,49.43z M220.882,52.544h0.936v0.892h0.068c0.201-0.379,0.506-0.635,0.916-0.767
				c0.41-0.133,1.102-0.199,2.074-0.199c0.851,0,1.479,0.047,1.889,0.14c0.41,0.094,0.731,0.262,0.964,0.509
				c0.185,0.194,0.313,0.438,0.385,0.733c0.072,0.292,0.108,0.715,0.108,1.27v3.344h-0.935V55.52c0-0.529-0.022-0.907-0.065-1.138
				c-0.043-0.23-0.134-0.426-0.265-0.583c-0.16-0.184-0.4-0.313-0.729-0.391c-0.326-0.077-0.813-0.114-1.463-0.114
				c-0.725,0-1.29,0.053-1.693,0.159c-0.402,0.104-0.707,0.28-0.913,0.52c-0.138,0.174-0.233,0.371-0.276,0.59
				c-0.044,0.217-0.065,0.605-0.065,1.163v2.739h-0.936V52.544z M244.13,52.544h0.935v5.921h-0.935V52.544z M244.13,49.947h0.935
				v1.11h-0.935V49.947z M264.532,52.47c0.93,0,1.619,0.027,2.062,0.085c0.443,0.055,0.791,0.157,1.04,0.309
				c0.376,0.223,0.646,0.542,0.813,0.956c0.164,0.414,0.248,0.977,0.248,1.688c0,0.79-0.102,1.393-0.302,1.804
				c-0.144,0.311-0.336,0.556-0.584,0.73c-0.242,0.175-0.562,0.301-0.953,0.379c-0.386,0.079-1.022,0.119-1.912,0.119
				c-0.84,0-1.475-0.027-1.903-0.085c-0.427-0.054-0.774-0.155-1.043-0.302c-0.395-0.211-0.678-0.524-0.847-0.937
				c-0.172-0.415-0.257-0.995-0.257-1.738c0-0.833,0.124-1.464,0.368-1.892c0.248-0.442,0.594-0.735,1.035-0.886
				C262.738,52.55,263.485,52.474,264.532,52.47z M264.682,53.294c-0.62,0-1.087,0.023-1.401,0.067
				c-0.317,0.047-0.57,0.13-0.757,0.25c-0.222,0.143-0.38,0.367-0.481,0.671c-0.101,0.307-0.149,0.722-0.149,1.25
				c0,0.598,0.065,1.048,0.201,1.344c0.133,0.298,0.361,0.51,0.685,0.632c0.357,0.139,1.055,0.208,2.09,0.208
				c0.673,0,1.17-0.026,1.491-0.075c0.315-0.051,0.568-0.142,0.757-0.281c0.207-0.144,0.355-0.365,0.445-0.654
				c0.088-0.292,0.134-0.701,0.134-1.229c0-0.625-0.068-1.082-0.212-1.373c-0.157-0.325-0.421-0.541-0.79-0.65
				C266.326,53.347,265.655,53.294,264.682,53.294z M284.471,52.544h0.936v0.799h0.062c0.146-0.266,0.368-0.478,0.668-0.631
				c0.18-0.091,0.416-0.156,0.707-0.189c0.295-0.037,0.732-0.053,1.315-0.053s1.018,0.031,1.302,0.096
				c0.284,0.066,0.529,0.183,0.735,0.353c0.397,0.346,0.599,0.907,0.599,1.679v0.611h-0.962v-0.423c0-0.328-0.022-0.578-0.064-0.747
				c-0.044-0.167-0.123-0.306-0.235-0.415c-0.236-0.219-0.731-0.33-1.479-0.33c-1.128,0-1.853,0.146-2.171,0.439
				c-0.317,0.294-0.477,0.96-0.477,2v2.732h-0.936V52.544z"/>
			<path fill-rule="evenodd" clip-rule="evenodd" fill="#F48120" d="M30.231,1.093c2.326,0.741,4.482,1.838,6.413,3.22
				c-15.137,13.912-13.136,26.296-1.542,38.761c-1.71,1.028-3.558,1.841-5.501,2.403C9.955,32.071,8.9,15.384,30.231,1.093z
				 M40.347,7.61c4.234,4.667,6.575,11.025,5.937,17.767c-0.573,6.049-3.443,11.345-7.664,15.106
				C28.516,30.074,28.601,18.384,40.347,7.61z M23.168,46.383c-0.714-0.001-1.435-0.034-2.16-0.102
				C8.292,45.078-1.099,33.724,0.104,21.005C1.244,8.973,11.472-0.081,23.342,0C2.354,16.889,6.584,31.434,23.168,46.383z"/>
		</g>
		<rect x="0.001" y="68.333" fill-rule="evenodd" clip-rule="evenodd" fill="#F48120" width="298.554" height="1.951"/>
	</g>
</g>
<g>
</g>
<g>
</g>
<g>
</g>
<g>
</g>
<g>
</g>
<g>
</g>
<g>
</g>
<g>
</g>
<g>
</g>
<g>
</g>
<g>
</g>
<g>
</g>
<g>
</g>
<g>
</g>
<g>
</g>
</svg>
