<?xml version="1.0" encoding="utf-8"?>
<!-- Generator: Adobe Illustrator 16.0.0, SVG Export Plug-In . SVG Version: 6.00 Build 0)  -->
<!DOCTYPE svg PUBLIC "-//W3C//DTD SVG 1.1//EN" "http://www.w3.org/Graphics/SVG/1.1/DTD/svg11.dtd">
<svg version="1.1" xmlns="http://www.w3.org/2000/svg" xmlns:xlink="http://www.w3.org/1999/xlink" x="0px" y="0px" width="300px"
	 height="300px" viewBox="0 0 300 300" enable-background="new 0 0 300 300" xml:space="preserve">
<g id="Layer_2">
</g>
<g id="Layer_1">
	<polygon points="178.233,58.594 148.88,40.858 76.103,84.28 76.103,171.126 148.88,212.716 224.104,169.905 224.104,82.445 
		194.14,66.545 120.137,107.52 150.104,126.785 191.079,105.073 191.079,154.001 150.104,176.021 106.682,152.168 106.07,101.406 	
		"/>
	<g>
		<path d="M95.588,245.688c0.028,0.026,0.042,0.083,0.042,0.164c0,1.614-0.027,2.987-0.082,4.108
			c-0.055,1.125-0.137,1.975-0.247,2.548c-0.329,1.89-1.164,3.317-2.506,4.273c-0.686,0.467-1.562,0.809-2.631,1.029
			c-1.068,0.22-2.342,0.327-3.821,0.327h-9.247c-1.808,0-3.365-0.116-4.665-0.35c-1.301-0.229-2.377-0.608-3.227-1.13
			c-0.767-0.52-1.41-1.169-1.931-1.95s-0.891-1.733-1.109-2.855c-0.11-0.686-0.192-1.688-0.247-3.001
			c-0.057-1.313-0.082-2.987-0.082-5.014c0-4.685,0.834-7.85,2.506-9.493H68.3c1.671-1.644,4.822-2.465,9.452-2.465h8.59
			c3.068,0,5.377,0.614,6.926,1.847c1.546,1.233,2.32,3.099,2.32,5.592v0.081c0,0.247-0.109,0.369-0.329,0.369h-2.588
			c-0.247,0-0.37-0.122-0.37-0.369c-0.027-0.795-0.171-1.479-0.432-2.054c-0.261-0.576-0.705-1.028-1.336-1.357
			c-0.465-0.219-1.046-0.396-1.745-0.535c-0.699-0.136-1.516-0.205-2.446-0.205h-8.836c-1.507,0-2.767,0.098-3.781,0.289
			c-1.014,0.191-1.808,0.438-2.384,0.739c-1.042,0.631-1.712,1.795-2.014,3.492c-0.165,0.903-0.247,3.056-0.247,6.452
			c0,3.59,0.411,5.903,1.234,6.947c0.958,1.095,3.123,1.643,6.493,1.643h9.534c2.438,0,4.027-0.411,4.768-1.232
			c0.329-0.385,0.588-0.968,0.78-1.747c0.19-0.781,0.288-1.789,0.288-3.021H80.383c-0.273,0-0.411-0.137-0.411-0.411v-2.548
			c0-0.273,0.138-0.411,0.411-0.411h14.918c0.028,0,0.056,0.017,0.083,0.04L95.588,245.688z"/>
		<path d="M124.687,258.142h-0.247c0-0.027-0.014-0.07-0.042-0.125l0.042,0.041l-3.082-6.04h-17.303l-3.04,6.04v-0.041
			c0,0.055,0,0.098,0,0.125h-0.206h-2.876c-0.247,0-0.371-0.125-0.371-0.37v-0.041c0-0.057,0.027-0.112,0.083-0.164v0.081
			l12.904-25.438c0.055-0.054,0.137-0.082,0.247-0.082h3.987c0.083,0,0.128,0.006,0.142,0.021c0.015,0.015,0.035,0.032,0.063,0.062
			l12.986,25.438v-0.081c0.025,0.052,0.041,0.107,0.041,0.164v0.041c0,0.245-0.109,0.37-0.329,0.37H124.687z M105.782,248.771
			h13.848l-6.863-13.644L105.782,248.771z"/>
		<path d="M164.261,258.142c-0.246,0-0.369-0.125-0.369-0.37V234.88h-0.781l-13.397,23.177c-0.055,0.056-0.151,0.082-0.288,0.082
			h-1.767c-0.056,0-0.109-0.012-0.164-0.04l-13.275-23.219h-0.74v22.892c0,0.245-0.123,0.37-0.37,0.37h-2.671
			c-0.247,0-0.371-0.125-0.371-0.37v-25.233c0-0.275,0.125-0.411,0.371-0.411h5.919c0.082,0,0.148,0.013,0.205,0.041l12.042,21.244
			l12.411-21.203c0.057-0.054,0.151-0.082,0.289-0.082h5.59c0.192,0,0.287,0.136,0.287,0.411v25.233c0,0.245-0.095,0.37-0.287,0.37
			H164.261z"/>
		<path d="M199.029,253.908c-0.768,1.699-2.109,2.835-4.027,3.411c0,0.024-0.015,0.04-0.041,0.04
			c-0.768,0.246-1.788,0.438-3.062,0.574c-1.275,0.138-2.815,0.208-4.624,0.208h-3.861c-1.811,0-3.35-0.07-4.626-0.208
			c-1.273-0.136-2.308-0.328-3.104-0.574c-0.026,0-0.054-0.016-0.082-0.04c-0.986-0.304-1.808-0.742-2.464-1.316
			c-0.659-0.575-1.192-1.275-1.604-2.097c-0.384-0.822-0.665-1.878-0.842-3.164c-0.18-1.287-0.269-2.792-0.269-4.521v-13.684
			c0-0.275,0.109-0.411,0.331-0.411h2.587c0.248,0,0.37,0.136,0.37,0.411v13.684c0,2.794,0.26,4.794,0.782,6.001
			c0.493,1.123,1.398,1.821,2.713,2.097c1.068,0.272,3.135,0.41,6.206,0.41h3.86c3.069,0,5.139-0.138,6.208-0.41
			c1.314-0.302,2.177-1.001,2.588-2.097c0.303-0.575,0.499-1.365,0.596-2.362c0.097-1.002,0.145-2.214,0.145-3.639v-13.684
			c0-0.275,0.138-0.411,0.412-0.411h2.547c0.246,0,0.368,0.136,0.368,0.411v13.684C200.138,249.702,199.771,252.266,199.029,253.908
			z"/>
		<path d="M230.592,258.142c-0.055,0-0.109,0-0.165,0c-0.054,0-0.081-0.027-0.081-0.084l-11.755-11.794l-11.507,11.753
			c-0.083,0.084-0.179,0.125-0.288,0.125h-3.575c-0.22,0-0.328-0.125-0.328-0.37c0-0.028,0-0.069,0-0.124
			c0-0.057,0.026-0.109,0.081-0.164l12.659-13.067l-11.508-11.632c-0.056-0.027-0.082-0.066-0.082-0.122c0-0.055,0-0.097,0-0.124
			c0-0.273,0.138-0.411,0.41-0.411h3.575c0.056,0,0.109,0,0.165,0c0.054,0,0.096,0.03,0.124,0.082l10.314,10.438l10.151-10.438
			c0.026-0.052,0.108-0.082,0.246-0.082h3.494c0.219,0,0.327,0.138,0.327,0.411c0,0.027,0,0.069,0,0.124
			c0,0.056-0.026,0.095-0.081,0.122l-11.343,11.632l12.863,13.067c0.055,0.055,0.082,0.107,0.082,0.164c0,0.055,0,0.096,0,0.124
			c0,0.245-0.108,0.37-0.329,0.37H230.592z"/>
	</g>
	<g>
	</g>
	<g>
	</g>
	<g>
	</g>
	<g>
	</g>
	<g>
	</g>
	<g>
	</g>
	<g>
	</g>
	<g>
	</g>
	<g>
	</g>
	<g>
	</g>
	<g>
	</g>
	<g>
	</g>
	<g>
	</g>
	<g>
	</g>
	<g>
	</g>
</g>
</svg>
