<?xml version="1.0" encoding="utf-8"?>
<!-- Generator: Adobe Illustrator 16.0.0, SVG Export Plug-In . SVG Version: 6.00 Build 0)  -->
<!DOCTYPE svg PUBLIC "-//W3C//DTD SVG 1.1//EN" "http://www.w3.org/Graphics/SVG/1.1/DTD/svg11.dtd">
<svg version="1.1" id="Layer_1" xmlns="http://www.w3.org/2000/svg" xmlns:xlink="http://www.w3.org/1999/xlink" x="0px" y="0px"
	 width="193.656px" height="77.876px" viewBox="53.253 111.18 193.656 77.876"
	 enable-background="new 53.253 111.18 193.656 77.876" xml:space="preserve">
<g>
	<path d="M246.908,117.75c0,21.553,0,43.105,0,64.658c-0.029,0.128-0.066,0.255-0.088,0.384c-0.144,0.892-0.412,1.741-0.881,2.515
		c-1.504,2.485-3.733,3.674-6.627,3.674c-59.487-0.002-118.977-0.002-178.464-0.002c-0.227,0-0.454-0.002-0.681-0.014
		c-2.884-0.13-5.472-2.023-6.442-4.748c-0.208-0.584-0.317-1.203-0.472-1.809c0-21.553,0-43.105,0-64.658
		c0.027-0.101,0.063-0.201,0.079-0.303c0.452-2.992,2.529-5.294,5.451-6.04c0.319-0.081,0.64-0.151,0.96-0.227
		c60.225,0,120.45,0,180.674,0c0.071,0.026,0.144,0.065,0.217,0.078c2.88,0.489,4.841,2.101,5.859,4.833
		C246.691,116.622,246.773,117.196,246.908,117.75z M86.447,145.009c0,3.251,0,6.464,0,9.73c8.57,0,17.12,0,25.681,0
		c-0.007,0.106-0.005,0.159-0.014,0.212c-0.375,2.307-2.469,4.242-4.916,4.546c-0.304,0.038-0.611,0.075-0.917,0.075
		c-6.97,0.004-13.939,0.007-20.909-0.006c-0.941,0-1.86-0.188-2.704-0.631c-2.061-1.078-3.458-2.619-3.463-5.096
		c-0.005-2.631-0.013-5.261,0.003-7.891c0.009-1.492,0.61-2.734,1.68-3.767c1.429-1.378,3.159-1.912,5.107-1.911
		c11.216,0.006,22.432,0.003,33.647,0.003c0.171,0,0.342,0,0.537,0c0-3.677,0-7.316,0-11.003c-0.175,0-0.331,0-0.487,0
		c-3.952,0-7.904,0-11.856,0c-8.799,0-17.598,0.007-26.397-0.005c-2.153-0.003-4.117,0.535-5.824,1.872
		c-2.764,2.165-4.159,5.016-4.165,8.525c-0.012,6.943-0.009,13.886-0.001,20.829c0.003,2.81,0.896,5.298,2.826,7.365
		c1.927,2.065,4.327,3.023,7.15,3.021c9.6-0.015,19.2-0.006,28.8-0.007c0.267,0,0.534-0.004,0.8-0.021
		c2.671-0.168,4.86-1.307,6.609-3.313c1.813-2.08,2.575-4.532,2.571-7.262c-0.007-4.939-0.002-9.88-0.002-14.82
		c0-0.143,0-0.287,0-0.446C108.93,145.009,97.705,145.009,86.447,145.009z M187.693,154.867c0.211,0,0.369,0,0.525,0
		c7.25,0,14.502,0.003,21.752-0.008c0.336-0.002,0.521,0.102,0.694,0.389c3.116,5.102,6.245,10.191,9.362,15.292
		c0.149,0.245,0.305,0.341,0.598,0.339c2.55-0.013,5.102-0.007,7.65-0.008c0.123,0,0.246-0.014,0.416-0.023
		c-3.274-5.344-6.519-10.633-9.81-15.998c0.349,0,0.587,0.006,0.825-0.002c1.463-0.049,2.896-0.258,4.266-0.799
		c1.582-0.626,2.83-1.633,3.605-3.179c0.663-1.323,0.995-2.742,1.043-4.202c0.074-2.307,0.079-4.618,0.064-6.927
		c-0.011-1.778-0.375-3.496-1.09-5.133c-0.759-1.739-1.89-3.153-3.58-4.065c-1.644-0.886-3.404-1.275-5.271-1.274
		c-12.779,0.007-25.56,0.004-38.337,0.004c-0.141,0-0.281,0.013-0.422,0.02c0,3.681,0,7.317,0,11c13.563,0,27.097,0,40.63,0
		c0,1.586,0,3.128,0,4.711c-13.56,0-27.093,0-40.626,0c0,8.643,0,17.246,0,25.848c2.58,0,5.126,0,7.699,0
		C187.693,165.533,187.693,160.236,187.693,154.867z M125.691,145.015c0,0.145,0,0.263,0,0.38c0,4.993-0.007,9.987,0.008,14.981
		c0.002,0.718,0.046,1.446,0.173,2.151c0.802,4.475,4.559,8.392,9.854,8.365c12.737-0.063,25.476-0.021,38.213-0.021
		c0.156,0,0.313,0,0.478,0c0-3.785,0-7.527,0-11.313c-13.674,0-27.312,0-40.935,0c0-1.584,0-3.125,0-4.697
		c13.661,0,27.29,0,40.943,0c0-3.299,0-6.563,0-9.848C158.188,145.015,141.971,145.015,125.691,145.015z M125.707,140.247
		c16.256,0,32.482,0,48.717,0c0-3.666,0-7.304,0-10.956c-0.132-0.007-0.236-0.018-0.343-0.018c-12.845,0-25.687,0.002-38.531-0.002
		c-2.337-0.001-4.402,0.72-6.163,2.267C126.773,133.834,125.579,136.74,125.707,140.247z"/>
	<path fill="#FFFFFF" d="M53.254,182.408c0.154,0.604,0.263,1.225,0.472,1.809c0.971,2.725,3.559,4.618,6.442,4.748
		c0.227,0.012,0.454,0.014,0.681,0.014c59.488,0,118.977,0,178.465,0.002c2.893,0,5.121-1.188,6.627-3.674
		c0.468-0.772,0.736-1.623,0.881-2.515c0.021-0.129,0.058-0.256,0.087-0.384c0,2.217,0,4.433,0,6.648c-64.552,0-129.103,0-193.654,0
		C53.254,186.841,53.254,184.625,53.254,182.408z"/>
	<path fill="#FFFFFF" d="M59.744,111.18c-0.32,0.076-0.642,0.146-0.96,0.227c-2.922,0.745-4.999,3.048-5.451,6.04
		c-0.016,0.103-0.052,0.202-0.079,0.303c0-2.183,0-4.366,0-6.57C55.417,111.18,57.581,111.18,59.744,111.18z"/>
	<path fill="#FFFFFF" d="M246.908,117.75c-0.135-0.554-0.217-1.128-0.414-1.659c-1.02-2.733-2.979-4.345-5.859-4.833
		c-0.074-0.013-0.145-0.051-0.217-0.078c2.164,0,4.327,0,6.49,0C246.908,113.37,246.908,115.56,246.908,117.75z"/>
	<path fill="#FFFFFF" d="M86.447,145.009c11.258,0,22.482,0,33.757,0c0,0.159,0,0.303,0,0.446c0,4.94-0.005,9.881,0.002,14.82
		c0.004,2.729-0.757,5.182-2.571,7.262c-1.749,2.006-3.938,3.145-6.609,3.313c-0.266,0.019-0.534,0.021-0.8,0.021
		c-9.6,0.001-19.2-0.008-28.8,0.007c-2.824,0.004-5.223-0.954-7.15-3.021c-1.93-2.067-2.822-4.557-2.826-7.365
		c-0.008-6.942-0.011-13.886,0.001-20.829c0.006-3.509,1.401-6.36,4.165-8.525c1.707-1.336,3.671-1.875,5.824-1.872
		c8.799,0.012,17.598,0.005,26.397,0.005c3.952,0,7.904,0,11.856,0c0.156,0,0.312,0,0.487,0c0,3.687,0,7.326,0,11.003
		c-0.195,0-0.366,0-0.537,0c-11.215,0-22.431,0.003-33.647-0.003c-1.949-0.001-3.679,0.533-5.107,1.911
		c-1.07,1.032-1.671,2.275-1.68,3.767c-0.016,2.63-0.008,5.26-0.003,7.891c0.005,2.477,1.403,4.018,3.463,5.096
		c0.843,0.441,1.762,0.631,2.704,0.631c6.97,0.013,13.939,0.01,20.909,0.006c0.306,0,0.612-0.037,0.917-0.075
		c2.447-0.304,4.541-2.239,4.916-4.546c0.009-0.053,0.007-0.104,0.014-0.212c-8.561,0-17.11,0-25.681,0
		C86.447,151.473,86.447,148.261,86.447,145.009z"/>
	<path fill="#FFFFFF" d="M187.693,154.867c0,5.369,0,10.666,0,15.982c-2.574,0-5.119,0-7.7,0c0-8.602,0-17.203,0-25.847
		c13.534,0,27.065,0,40.626,0c0-1.583,0-3.125,0-4.711c-13.533,0-27.064,0-40.631,0c0-3.682,0-7.319,0-11
		c0.142-0.007,0.281-0.02,0.423-0.02c12.778,0,25.558,0.003,38.337-0.004c1.865-0.001,3.627,0.389,5.27,1.274
		c1.691,0.912,2.822,2.326,3.582,4.065c0.713,1.637,1.078,3.354,1.09,5.133c0.014,2.309,0.01,4.62-0.065,6.927
		c-0.048,1.46-0.38,2.879-1.043,4.202c-0.774,1.546-2.022,2.553-3.606,3.179c-1.367,0.541-2.802,0.75-4.265,0.8
		c-0.237,0.008-0.478,0-0.825,0c3.291,5.366,6.534,10.655,9.811,15.998c-0.172,0.012-0.295,0.024-0.416,0.024
		c-2.551,0.001-5.103-0.005-7.651,0.008c-0.293,0.002-0.446-0.094-0.597-0.339c-3.118-5.1-6.247-10.191-9.363-15.292
		c-0.175-0.287-0.357-0.39-0.693-0.39c-7.252,0.012-14.502,0.009-21.752,0.009C188.063,154.867,187.904,154.867,187.693,154.867z"/>
	<path fill="#FFFFFF" d="M125.691,145.015c16.28,0,32.497,0,48.733,0c0,3.285,0,6.549,0,9.848c-13.652,0-27.282,0-40.943,0
		c0,1.572,0,3.113,0,4.697c13.623,0,27.261,0,40.935,0c0,3.785,0,7.526,0,11.313c-0.164,0-0.32,0-0.477,0
		c-12.738,0-25.478-0.043-38.214,0.021c-5.295,0.025-9.051-3.892-9.854-8.365c-0.126-0.705-0.171-1.435-0.173-2.151
		c-0.015-4.994-0.008-9.988-0.008-14.981C125.691,145.277,125.691,145.16,125.691,145.015z"/>
	<path fill="#FFFFFF" d="M125.707,140.247c-0.128-3.507,1.066-6.413,3.681-8.71c1.76-1.546,3.825-2.268,6.163-2.267
		c12.844,0.004,25.688,0.002,38.531,0.002c0.105,0,0.211,0.011,0.343,0.018c0,3.652,0,7.29,0,10.956
		C158.188,140.247,141.963,140.247,125.707,140.247z"/>
</g>
</svg>
