<?xml version="1.0" encoding="utf-8"?>
<!-- Generator: Adobe Illustrator 16.0.0, SVG Export Plug-In . SVG Version: 6.00 Build 0)  -->
<!DOCTYPE svg PUBLIC "-//W3C//DTD SVG 1.1//EN" "http://www.w3.org/Graphics/SVG/1.1/DTD/svg11.dtd">
<svg version="1.1" id="Layer_1" xmlns="http://www.w3.org/2000/svg" xmlns:xlink="http://www.w3.org/1999/xlink" x="0px" y="0px"
	 width="300px" height="300px" viewBox="0 0 300 300" enable-background="new 0 0 300 300" xml:space="preserve">
<g>
	<path fill-rule="evenodd" clip-rule="evenodd" d="M246.908,117.75c0,21.553,0,43.105,0,64.658
		c-0.029,0.128-0.066,0.255-0.087,0.384c-0.144,0.891-0.413,1.741-0.881,2.514c-1.505,2.486-3.734,3.674-6.627,3.674
		c-59.488-0.001-118.977-0.001-178.465-0.002c-0.227,0-0.454-0.002-0.681-0.013c-2.884-0.13-5.472-2.023-6.442-4.748
		c-0.208-0.584-0.317-1.204-0.472-1.809c0-21.553,0-43.105,0-64.658c0.027-0.101,0.063-0.201,0.079-0.303
		c0.452-2.992,2.529-5.294,5.451-6.04c0.319-0.081,0.64-0.151,0.96-0.227c60.225,0,120.45,0,180.674,0
		c0.072,0.026,0.143,0.065,0.217,0.078c2.88,0.489,4.841,2.101,5.859,4.833C246.692,116.622,246.773,117.196,246.908,117.75z
		 M86.447,145.009c0,3.251,0,6.463,0,9.73c8.57,0,17.12,0,25.681,0c-0.007,0.107-0.005,0.16-0.014,0.212
		c-0.375,2.307-2.469,4.243-4.916,4.546c-0.304,0.038-0.611,0.075-0.917,0.075c-6.97,0.004-13.939,0.007-20.909-0.005
		c-0.941-0.001-1.86-0.189-2.704-0.631c-2.061-1.078-3.458-2.619-3.463-5.096c-0.005-2.631-0.013-5.261,0.003-7.891
		c0.009-1.492,0.61-2.734,1.68-3.767c1.429-1.378,3.159-1.912,5.107-1.911c11.216,0.006,22.432,0.003,33.647,0.003
		c0.171,0,0.342,0,0.537,0c0-3.677,0-7.316,0-11.003c-0.175,0-0.331,0-0.487,0c-3.952,0-7.904,0-11.856,0
		c-8.799,0-17.598,0.007-26.397-0.005c-2.153-0.003-4.117,0.535-5.824,1.872c-2.764,2.165-4.159,5.016-4.165,8.525
		c-0.012,6.943-0.009,13.886-0.001,20.829c0.003,2.81,0.896,5.298,2.826,7.366c1.927,2.065,4.327,3.023,7.15,3.02
		c9.6-0.015,19.2-0.006,28.8-0.007c0.267,0,0.534-0.004,0.8-0.021c2.671-0.168,4.86-1.307,6.609-3.313
		c1.813-2.08,2.575-4.532,2.571-7.262c-0.007-4.939-0.002-9.88-0.002-14.82c0-0.143,0-0.287,0-0.446
		C108.93,145.009,97.705,145.009,86.447,145.009z M187.693,154.867c0.212,0,0.369,0,0.526,0c7.25,0,14.501,0.003,21.752-0.008
		c0.336-0.001,0.52,0.102,0.694,0.389c3.116,5.101,6.245,10.192,9.363,15.292c0.149,0.245,0.304,0.341,0.597,0.339
		c2.55-0.013,5.101-0.007,7.651-0.008c0.122,0,0.245-0.014,0.416-0.024c-3.275-5.343-6.519-10.632-9.81-15.998
		c0.349,0,0.587,0.007,0.825-0.001c1.463-0.049,2.896-0.258,4.265-0.799c1.583-0.626,2.831-1.633,3.606-3.179
		c0.663-1.323,0.995-2.742,1.043-4.202c0.075-2.307,0.079-4.618,0.065-6.927c-0.011-1.778-0.376-3.496-1.09-5.133
		c-0.759-1.739-1.89-3.153-3.581-4.065c-1.643-0.886-3.404-1.275-5.27-1.274c-12.779,0.007-25.559,0.004-38.337,0.004
		c-0.141,0-0.281,0.013-0.422,0.02c0,3.681,0,7.317,0,11c13.564,0,27.097,0,40.63,0c0,1.586,0,3.128,0,4.711
		c-13.56,0-27.092,0-40.626,0c0,8.643,0,17.246,0,25.847c2.581,0,5.126,0,7.7,0C187.693,165.533,187.693,160.236,187.693,154.867z
		 M125.691,145.015c0,0.145,0,0.263,0,0.38c0,4.993-0.007,9.987,0.008,14.981c0.002,0.718,0.046,1.446,0.173,2.151
		c0.802,4.475,4.559,8.392,9.854,8.365c12.737-0.063,25.476-0.021,38.214-0.021c0.156,0,0.313,0,0.477,0c0-3.785,0-7.527,0-11.312
		c-13.674,0-27.312,0-40.935,0c0-1.584,0-3.125,0-4.698c13.661,0,27.29,0,40.943,0c0-3.299,0-6.563,0-9.848
		C158.188,145.015,141.971,145.015,125.691,145.015z M125.707,140.247c16.256,0,32.482,0,48.717,0c0-3.666,0-7.304,0-10.956
		c-0.132-0.007-0.237-0.018-0.343-0.018c-12.844,0-25.687,0.002-38.531-0.002c-2.337-0.001-4.402,0.72-6.163,2.267
		C126.773,133.834,125.579,136.74,125.707,140.247z"/>
	<path fill-rule="evenodd" clip-rule="evenodd" fill="#FFFFFF" d="M53.254,182.408c0.154,0.604,0.263,1.225,0.472,1.809
		c0.971,2.725,3.559,4.618,6.442,4.748c0.227,0.011,0.454,0.013,0.681,0.013c59.488,0.001,118.977,0.001,178.465,0.002
		c2.893,0,5.122-1.188,6.627-3.674c0.468-0.772,0.737-1.623,0.881-2.514c0.021-0.129,0.058-0.256,0.087-0.384
		c0,2.217,0,4.433,0,6.649c-64.552,0-129.103,0-193.654,0C53.254,186.841,53.254,184.625,53.254,182.408z"/>
	<path fill-rule="evenodd" clip-rule="evenodd" fill="#FFFFFF" d="M59.744,111.18c-0.32,0.076-0.642,0.146-0.96,0.227
		c-2.922,0.745-4.999,3.048-5.451,6.04c-0.016,0.103-0.052,0.202-0.079,0.303c0-2.183,0-4.366,0-6.57
		C55.417,111.18,57.581,111.18,59.744,111.18z"/>
	<path fill-rule="evenodd" clip-rule="evenodd" fill="#FFFFFF" d="M246.908,117.75c-0.135-0.554-0.216-1.128-0.414-1.659
		c-1.019-2.733-2.979-4.345-5.859-4.833c-0.074-0.013-0.145-0.051-0.217-0.078c2.164,0,4.327,0,6.49,0
		C246.908,113.37,246.908,115.56,246.908,117.75z"/>
	<path fill-rule="evenodd" clip-rule="evenodd" fill="#FFFFFF" d="M86.447,145.009c11.258,0,22.482,0,33.757,0
		c0,0.159,0,0.303,0,0.446c0,4.94-0.005,9.881,0.002,14.82c0.004,2.729-0.757,5.182-2.571,7.262
		c-1.749,2.006-3.938,3.145-6.609,3.313c-0.266,0.018-0.534,0.021-0.8,0.021c-9.6,0.001-19.2-0.008-28.8,0.007
		c-2.824,0.004-5.223-0.954-7.15-3.02c-1.93-2.068-2.822-4.557-2.826-7.366c-0.008-6.942-0.011-13.886,0.001-20.829
		c0.006-3.509,1.401-6.36,4.165-8.525c1.707-1.336,3.671-1.875,5.824-1.872c8.799,0.012,17.598,0.005,26.397,0.005
		c3.952,0,7.904,0,11.856,0c0.156,0,0.312,0,0.487,0c0,3.687,0,7.326,0,11.003c-0.195,0-0.366,0-0.537,0
		c-11.215,0-22.431,0.003-33.647-0.003c-1.949-0.001-3.679,0.533-5.107,1.911c-1.07,1.032-1.671,2.275-1.68,3.767
		c-0.016,2.63-0.008,5.26-0.003,7.891c0.005,2.477,1.403,4.018,3.463,5.096c0.843,0.441,1.762,0.63,2.704,0.631
		c6.97,0.012,13.939,0.009,20.909,0.005c0.306,0,0.612-0.037,0.917-0.075c2.447-0.303,4.541-2.239,4.916-4.546
		c0.009-0.052,0.007-0.104,0.014-0.212c-8.561,0-17.11,0-25.681,0C86.447,151.473,86.447,148.261,86.447,145.009z"/>
	<path fill-rule="evenodd" clip-rule="evenodd" fill="#FFFFFF" d="M187.693,154.867c0,5.369,0,10.666,0,15.983
		c-2.574,0-5.119,0-7.7,0c0-8.602,0-17.204,0-25.847c13.534,0,27.066,0,40.626,0c0-1.583,0-3.125,0-4.711
		c-13.533,0-27.065,0-40.63,0c0-3.682,0-7.319,0-11c0.141-0.007,0.281-0.02,0.422-0.02c12.778,0,25.558,0.003,38.337-0.004
		c1.865-0.001,3.627,0.389,5.27,1.274c1.691,0.912,2.822,2.326,3.581,4.065c0.714,1.637,1.079,3.354,1.09,5.133
		c0.014,2.309,0.01,4.62-0.065,6.927c-0.048,1.46-0.38,2.879-1.043,4.202c-0.775,1.546-2.023,2.553-3.606,3.179
		c-1.368,0.541-2.802,0.75-4.265,0.799c-0.238,0.008-0.477,0.001-0.825,0.001c3.291,5.366,6.534,10.655,9.81,15.998
		c-0.171,0.011-0.294,0.024-0.416,0.024c-2.551,0.001-5.102-0.005-7.651,0.008c-0.293,0.002-0.447-0.094-0.597-0.339
		c-3.118-5.1-6.247-10.191-9.363-15.292c-0.175-0.287-0.358-0.39-0.694-0.389c-7.251,0.011-14.502,0.008-21.752,0.008
		C188.063,154.867,187.905,154.867,187.693,154.867z"/>
	<path fill-rule="evenodd" clip-rule="evenodd" fill="#FFFFFF" d="M125.691,145.015c16.28,0,32.497,0,48.733,0
		c0,3.285,0,6.549,0,9.848c-13.653,0-27.282,0-40.943,0c0,1.573,0,3.114,0,4.698c13.623,0,27.261,0,40.935,0
		c0,3.784,0,7.526,0,11.312c-0.164,0-0.32,0-0.477,0c-12.738,0-25.477-0.043-38.214,0.021c-5.295,0.026-9.051-3.891-9.854-8.365
		c-0.126-0.705-0.171-1.434-0.173-2.151c-0.015-4.994-0.008-9.988-0.008-14.981C125.691,145.277,125.691,145.16,125.691,145.015z"/>
	<path fill-rule="evenodd" clip-rule="evenodd" fill="#FFFFFF" d="M125.707,140.247c-0.128-3.507,1.066-6.413,3.681-8.71
		c1.76-1.546,3.825-2.268,6.163-2.267c12.844,0.004,25.687,0.002,38.531,0.002c0.105,0,0.211,0.011,0.343,0.018
		c0,3.652,0,7.29,0,10.956C158.188,140.247,141.963,140.247,125.707,140.247z"/>
</g>
</svg>
