<?xml version="1.0" encoding="utf-8"?>
<!-- Generator: Adobe Illustrator 16.0.0, SVG Export Plug-In . SVG Version: 6.00 Build 0)  -->
<!DOCTYPE svg PUBLIC "-//W3C//DTD SVG 1.1//EN" "http://www.w3.org/Graphics/SVG/1.1/DTD/svg11.dtd">
<svg version="1.1" id="Layer_1" xmlns="http://www.w3.org/2000/svg" xmlns:xlink="http://www.w3.org/1999/xlink" x="0px" y="0px"
	 width="299.385px" height="315.652px" viewBox="0 0 299.385 315.652" enable-background="new 0 0 299.385 315.652"
	 xml:space="preserve">
<g>
	<path fill-rule="evenodd" clip-rule="evenodd" fill="#000001" d="M198.277,160.708c0.366,1.575,13.513,26.591,14.734,29.033
		c0.39,0.776,8.521,16.366,3.928,13.694c-1.072-0.624-8.08-7.993-11.655-10.778l-9.075-7.121c-1.75-1.306-8.627-6.519-10.002-6.636
		c-0.862-0.074-1.009-0.548-1.445,3.748c-0.236,2.337,0.844,12.721,0.826,15.696c-0.02,3.647-0.005,7.299-0.005,10.947
		c0.003,10.739-2.188,15.411-2.188,20.134h-0.875c-0.382-1.643-5.037-9.604-5.979-11.527c-1.085-2.207-1.97-3.46-3.065-5.689
		l-9.197-17.063c-7.524-13.619-9.731-8.997-16.421,1.367l-13.398,21.619c-1.003,1.604-5.536,9.449-7.526,9.981l-0.812-12.759
		c-0.686-6.115,2.183-34.227-0.939-38.89c-2.045,0.546-13.002,10.615-15.628,12.822c-0.919,0.773-1.331,1.387-2.252,2.125
		c-3.378,2.705-15.498,13.588-18.886,14.378c1.596-6.851,6.209-16.689,9.066-23.324c1.02-2.366,9.274-20.572,9.754-22.634
		c3.774,0,6.648,2.613,10.856,5.339c8.712,5.64,27.538,12.918,38.624,10.001c8.736-2.298,20.431-8.307,27.371-13.335
		c2.562-1.856,12.826-10.036,14.19-10.759l12.256,8.317c1.93,1.276,4.488,2.865,6.561,3.944l7.008,3.496
		c-3.109,0-4.783,0.215-7.025,0.055c-3.132-0.224-4.522-0.416-7.177-1.173C204.35,164.136,201.092,161.364,198.277,160.708
		L198.277,160.708z M73.97,159.833c4.455,2.139,18.436-8.339,22.323-10.942c-0.423,5.079-9.156,20.907-12.878,26.953
		c-3.256,5.288-2.034,3.09-4.63,8.501c1.523-0.354,1.257-0.328,2.309-1.193c3.616-2.979,23.824-22.916,25.267-25.068
		c-3.666-2.454-8.854-9.688-11.381-11.38c-1.658,1.11-3.656,2.137-5.555,3.198l-10.723,6.348
		C77.098,157.206,74.918,158.418,73.97,159.833L73.97,159.833z M101.545,48.659c0-3.619,0.563-6.426,1.572-9.37
		c3.573-10.417,16.417-18.02,27.903-10.914c11.295,6.987,3.201,14.927-3.751,20.621c-3.65,2.99-15.679,10.954-19.447,10.433
		C103.564,58.841,101.545,53.53,101.545,48.659L101.545,48.659z M160.198,35.528c0-5.802,10.006-10.067,15.318-10.067
		c4.216,0,9.83,2.349,12.87,5.078c2.4,2.157,4.177,4.625,5.517,7.612c2.247,5.003,2.101,14.751-1.035,18.667
		c-0.821,1.026-3.559,2.783-5.096,2.783c-3.449,0-13.735-7.556-16.255-9.568C168.118,47.317,160.198,40.969,160.198,35.528
		L160.198,35.528z M140.938,33.777c0,2.186,0.617,0.583,0.039,3.073c-2.217,9.543-20.945,24.939-31.115,24.939
		c-9.147,0-7.925-3.501-10.505-3.501c-6.114,0-11.018,10.785-13.075,15.813c-7.731,18.898-7.251,37.056,2.127,55.1
		c2.751,5.293,10.048,14.598,14.55,19.152c20.646,20.882,45.303,30.956,72.81,14.798c6.01-3.53,14.016-9.929,19.121-15.019
		c2.634-2.625,7.477-8.666,9.701-11.748c17.073-23.664,16.708-46.46,1.755-71.283c-10.313-17.123-6.89-3.311-18.574-3.311
		c-7.217,0-27.816-13.069-30.02-22.504c-0.799-3.424-0.089-6.124-2.244-8.261c-1.79-1.773-5.298-2.386-7.694-2.196
		C141.072,29.364,140.938,30.423,140.938,33.777L140.938,33.777z M0,65.729c0,5.896,2.85,13.993,4.289,19.785
		c8.888,35.791,23.191,84.767,41.371,117.512c1.505,2.711,2.706,5.53,5.113,7.143c3.267-2.188,7.476-9.145,9.808-12.515
		c0.926-1.338,9.013-13.113,9.013-13.31c0-1.666-3.541-7.954-4.374-9.632c-1.436-2.896-3.08-6.215-5.87-8.138
		c-4.84-3.337-18.808-2.781-21.708-6.742c1.739-2.373,9.213-2.935,13.068-3.564c3.515-0.573,5.21,0.506,3.879-3.264
		c-0.839-2.378-1.557-4.151-2.343-6.462c-5.849-17.181-11.187-33.566-16.169-51.235c-1.296-4.595-2.155-8.626-3.338-13.295
		c-4.978-19.642-3.994-14.957,11.907-25.475c4.92-3.254,10.622-6.254,15.737-9.211l16.029-8.918c2.754-1.645,5.41-2.681,8.044-4.212
		c8.041-4.672,17.146-8.212,25.72-11.921c12.977-5.613,26.928-9.232,41.521-7.136c5.494,0.789,15.146,1.711,18.566,6.821
		c-3.999,5.458-28.671,3.889-35.587,2.759c-9.71-1.586-13.794-5.835-23.153-0.221c-8.778,5.266-11.843,10.29-13.107,20.595
		c-0.717,5.84-4.622,10.699-7.626,14.696c-6.854,9.118-11.521,19.884-12.846,31.799c-1.796,16.155-0.845,22.855,6.093,36.732
		c2.54,5.079,5.122,9.998,6.566,16.195c-3.299,4.926-17.044,9.87-23.795,12.096c-3.053,1.007-6.818,1.616-10.345,1.91
		c0.23,2.771,2.233,3.358,4.976,3.778c3.507,0.537,13.657,0.44,16.724-0.023c2.743-0.416,5.976-0.254,8.938-0.254
		c-1.067,4.582-20.36,33.247-24.052,39.415c-1.131,1.888-2.321,3.874-3.522,5.668c2.159-0.576,17.138-14.912,19.762-17.005
		l4.126-3.752c4.191-3.256,7.127-6.426,12.003-9.007c0,2.438-0.987,4.028-1.684,5.758c-0.698,1.732-1.478,3.626-2.25,5.191
		c-2.219,4.505-14.382,28.019-14.45,31.069l8.312-6.131c11.045-8.441,21.778-17.319,32.641-26.011c4.248-3.398,5.026-2.169,5,3.695
		c-0.012,2.818,0.465,3.926,0.448,6.994l-0.005,45.964c2.311-2.659,6.121-9.88,7.879-13.131c4.301-7.955,9.072-15.701,13.759-23.444
		c1.499-2.475,8.482-15.159,11.188-15.51c2.92-0.379,8.863,12.23,10.211,14.737c0.736,1.368,1.175,1.879,1.903,3.35l13.852,26.416
		c0.729,1.461,1.177,1.987,1.903,3.35c0.567,1.062,1.157,2.508,1.896,3.356c0.79-3.387,1.583-10.02,1.748-13.571
		c0.456-9.848,1.328-19.561,1.316-29.323c-0.008-6.253,1.25-11.241,1.313-14.005c1.832,0.04,2.115,0.517,3.085,1.291
		c4.157,3.322,8.4,6.87,12.126,10.635c4.477,4.525,9.502,8.586,14.005,13.131c1.501,1.513,2.998,3.223,4.669,4.521
		c1.792,1.391,3.222,3.496,5.508,3.686c-0.107-4.793-14.275-32.489-16.78-37.495l-4.528-9.04c-0.639-1.279-0.909-2.227-1.452-3.361
		c5.154,0.429,10.449,2.778,15.939,1.937c4.109-0.63,12.178,0.076,14.7-3.688c-0.953-1.421-2.788-1.979-4.436-2.569
		c-5.42-1.938-9.643-1.95-15.516-5.493l-12.97-8.04c-1.421-0.952-2.646-2.281-4.284-2.719c0.378-1.42,2.405-3.644,3.378-4.938
		c9.694-12.915,16.756-25.602,16.756-43.645c0-31.222-20.582-39.915-22.761-66.092c5.656,3.787,12.121,6.748,17.637,10.814
		c2.888,2.129,5.648,3.797,8.502,5.941c1.467,1.102,2.702,1.815,4.131,2.874l21.004,15.323c5.541,4.158,10.827,8.473,16.57,12.319
		c-1.508,3.143-2.397,6.512-3.689,9.88c-3.884,10.138-7.615,20.205-11.816,30.203c-4.025,9.586-11.3,25.077-14.646,34.375
		c-2.759,7.664-2.133,6.092,8.59,7.506c1.061,0.14,3.756,0.652,5.094,1.033c1.813,0.517,3.346,1.06,4.213,2.354
		c-1.23,1.678-6.087,2.716-8.371,3.446c-6.08,1.944-12.635,3.539-18.389,6.123c-10.93,4.908-1.662,21.002,1.494,28.389
		c1.379,3.229,2.727,5.827,4.069,9.06c1.277,3.07,3.388,6.272,4.126,9.445c1.703-1.249,3.572-5.595,4.679-7.576
		c4.525-8.098,9.238-15.881,13.413-24.23c2.715-5.43,5.997-11.2,8.229-16.717c2.188-5.401,9.014-19.802,11.751-25.893
		c3.602-8.02,23.08-54.976,24.956-63.021c-1.44-2.15-5.396-4.95-7.69-6.755c-9.697-7.621-19.41-15.109-29.602-22.047
		c-1.533-1.044-2.873-1.991-4.357-3.082c-19.552-14.363-30.221-21.016-51.561-33.353c-0.919-0.53-1.315-0.847-2.493-1.445
		c-3.514-1.783-6.387-3.402-9.781-5.101c-35.6-17.803-53.621-18.092-91.531-4.428c-9.354,3.371-18.466,7.778-27.232,12.161
		l-17.509,9.19c-1.68,0.852-2.609,1.538-4.229,2.335c-1.54,0.757-2.62,1.461-4.227,2.338l-16.535,9.728
		c-5.653,3.399-10.781,6.542-16.36,9.901c-1.48,0.891-2.697,1.713-4.042,2.524C10.383,58.947,0,64.771,0,65.729z"/>
	<path fill-rule="evenodd" clip-rule="evenodd" fill="#000001" d="M54.712,216.733c0,4.414,9.711,18.893,12.514,22.939l5.624,7.508
		c2.979,3.964,2.383,2.753,5.128,5.814c2.58,2.878,3.391,2.74,7.406,3.535c9.832,1.949,20.158,3.375,30.3,4.718
		c5.147,0.68,11.011,1.001,16.086,1.421c2.985,0.247,5.812-0.015,8.412,0.341c6.02,0.825,39.82-0.333,44.457-0.822
		c7.292-0.771,15.646-1.426,22.309-3.08c7.084-1.761,6.02-1.984,10.913-7.471c1.783-2.001,3.984-5.026,5.456-7.236
		c0.989-1.486,1.723-2.385,2.72-3.847c0.894-1.317,1.527-2.46,2.366-3.763c3.404-5.287,1.715-8.98-2.226-13.379
		c-1.064-1.189-1.7-2.171-2.836-3.292l-8.764-9.621c-0.867-0.984-5.066-5.707-6.233-6.021l-6.436,6.694
		c-3.948,4.722-6.741,7.236-8.837,13.487c-2.068,6.183-2.878,15.596-4.24,22.458c-0.609,3.071-1.345,4.724-1.936,7.258
		c-1.778-1.304-5.197-8.498-6.312-11.195l-3.694-8.125c-1.301-3.173-4.837-10.583-5.313-12.633h-31.954
		c-1.356,2.566-2.642,5.274-3.938,7.88l-10.498,20.141c-0.76,1.438-1.321,2.59-3.071,3.057c-0.884-1.844-1.398-4.767-1.676-7.078
		c-0.324-2.725-0.283-5.736-0.697-8.493c-0.428-2.841-0.15-5.539-0.239-8.517c-0.095-3.161-0.452-3.108-0.452-8.739
		c-2.305,0-5.234-0.729-7.628-1.126l-14.878-2.629c-10.417-1.887-5.816-2.234-18.818,7.513c-2.061,1.545-3.893,2.672-5.883,4.182
		c-2.187,1.66-3.727,2.575-6.19,3.879c0.118-5.311,14.006-25.89,14.006-32.391C79.661,194.563,54.712,214.522,54.712,216.733z"/>
	<path fill-rule="evenodd" clip-rule="evenodd" fill="#000001" d="M149.254,138.824c-12.581,0-24.948-14.596-24.948-21.009
		c6.146,0,7.017,0.305,12.876,1.128l10.799,1.055l10.944-0.829c10.993-1.066,17.414-4.036,11.427,4.863
		c-3.122,4.641-6.831,8.99-11.707,11.929C156.537,137.23,152.362,138.824,149.254,138.824L149.254,138.824z M151.442,116.063
		c-21.465,0-31.91-5.014-48.399-15.066c-4.065-2.479-7.347-5.632-12.44-6.818c0.383,4.601,7.171,5.239,9.572,11
		c1.009,2.425,0.788,5.745,1.475,8.592c0.629,2.606,1.562,5.435,2.578,7.927c5.509,13.51,15.614,26.173,27.017,35.136
		c3.753,2.95,8.892,5.321,14.346,6.662c10.403,2.559,21.06-5.938,27.628-12.526c8.231-8.257,17.419-19.252,20.843-30.807
		c2.849-9.617,2.14-12.221,9.722-21.792c7.822-9.874-8.48,2.044-12.948,4.999C180.043,110.508,164.586,116.063,151.442,116.063z"/>
	<path fill-rule="evenodd" clip-rule="evenodd" fill="#000001" d="M238.981,308.211h-22.322c0-20.825-3.29-17.508,29.326-17.508
		C245.985,301.973,247.869,308.211,238.981,308.211L238.981,308.211z M206.156,290.266v25.386h41.143
		c3.385,0,8.754-4.019,8.754-7.003v-25.387h-40.704C212.032,283.262,206.156,286.957,206.156,290.266z"/>
	<path fill-rule="evenodd" clip-rule="evenodd" fill="#000001" d="M112.925,290.704h22.761v5.69H106.36
		c0.046-2.094,0.549-3.323,1.85-4.278C109.207,291.385,111.308,290.704,112.925,290.704L112.925,290.704z M96.293,290.704v24.948
		h10.067v-13.13h29.326v13.13h10.503v-32.39h-40.705C101.873,283.262,96.293,287.294,96.293,290.704z"/>
	<path fill-rule="evenodd" clip-rule="evenodd" fill="#000001" d="M41.581,290.266v25.386h49.897v-7.44H52.085
		c0-7.109-1.761-17.508,5.252-17.508h34.141v-7.441H50.772C47.281,283.262,41.581,287.057,41.581,290.266z"/>
	<path fill-rule="evenodd" clip-rule="evenodd" fill="#000001" d="M151.442,290.266v25.386h49.898v-7.44h-39.394
		c0-7.109-1.762-17.508,5.252-17.508h34.142v-7.441h-40.707C157.142,283.262,151.442,287.057,151.442,290.266z"/>
	<path fill-rule="evenodd" clip-rule="evenodd" fill="#000001" d="M170.701,33.777c0.355,4.252,2.347,1.992,3.802,4.079
		c1.12,1.61,0.229,3.729,2.197,5.68c1.416,1.406,3.347,1.699,5.255,2.625c3.906,1.895,1.223,4.249,4.503,4.249
		c3.264,0,4.056-11.304-1.206-14.549C182.25,34.008,174.578,31.454,170.701,33.777z"/>
	<path fill-rule="evenodd" clip-rule="evenodd" fill="#000001" d="M108.11,48.221c0,0.741,0.583,1.636,0.876,2.189
		c4.663-0.388,16.268-12.245,16.633-16.633c-3.015-1.594-4.328-0.794-8.416,0.339c-2.501,0.693-3.651,0.952-5.289,2.589
		C109.903,38.717,108.11,44.349,108.11,48.221z"/>
	<polygon fill-rule="evenodd" clip-rule="evenodd" fill="#AEACAD" points="198.277,160.708 198.277,160.271 197.765,160.635 	"/>
</g>
<g>
</g>
<g>
</g>
<g>
</g>
<g>
</g>
<g>
</g>
<g>
</g>
<g>
</g>
<g>
</g>
<g>
</g>
<g>
</g>
<g>
</g>
<g>
</g>
<g>
</g>
<g>
</g>
<g>
</g>
</svg>
