<?xml version="1.0" encoding="utf-8"?>
<!-- Generator: Adobe Illustrator 16.0.0, SVG Export Plug-In . SVG Version: 6.00 Build 0)  -->
<!DOCTYPE svg PUBLIC "-//W3C//DTD SVG 1.1//EN" "http://www.w3.org/Graphics/SVG/1.1/DTD/svg11.dtd">
<svg version="1.1" id="Layer_1" xmlns="http://www.w3.org/2000/svg" xmlns:xlink="http://www.w3.org/1999/xlink" x="0px" y="0px"
	 width="299.958px" height="246.563px" viewBox="0 0 299.958 246.563" enable-background="new 0 0 299.958 246.563"
	 xml:space="preserve">
<path fill-rule="evenodd" clip-rule="evenodd" d="M239.105,70.028c-0.38-3.694,0.99-12.897,3.893-20.394
	c3.477-8.982,7.677-14.825,10.295-16.66L299.958,0l-18.559,39.799C263.076,53.052,283.503,38.281,239.105,70.028L239.105,70.028z
	 M238.237,79.486c16.438-12.109,19.939-14.849,40.352-29.433l-17.044,36.552c-3.112,2.269-14.335,10.029-21.271,14.936
	C239.39,96.778,237.348,81.343,238.237,79.486L238.237,79.486z M258.873,96.244c-4.846,9.409-10.198,22.856-15.046,32.266
	c-0.3-6.437-1.694-14.448-2.636-20.329L258.873,96.244L258.873,96.244z M241.191,210.092l13.737-0.008v6.93L241.191,210.092
	L241.191,210.092z M278.707,202.926l15.162,14.088l-35.9-0.074l0.024-30.928l30.553,0.035L278.707,202.926L278.707,202.926z
	 M150.009,246.563l0.066-0.045l0.065,0.045v-0.088c8.53-5.652,15.609-11.613,23.866-19.342l-12.625-10.119
	c-3.791,2.922-6.813,5.25-11.306,8.717c-4.495-3.467-7.575-5.795-11.365-8.717l-12.626,10.119
	c8.256,7.729,15.394,13.689,23.924,19.342L150.009,246.563L150.009,246.563z M58.767,210.092l-13.737-0.008v6.93L58.767,210.092
	L58.767,210.092z M21.252,202.926L6.089,217.014l35.901-0.074l-0.025-30.928l-30.553,0.035L21.252,202.926L21.252,202.926z
	 M41.085,96.244c4.846,9.409,10.2,22.856,15.045,32.266c0.3-6.437,1.695-14.448,2.637-20.329L41.085,96.244L41.085,96.244z
	 M61.722,79.486C45.283,67.376,41.78,64.637,21.369,50.053l17.045,36.552c3.111,2.269,14.335,10.029,21.271,14.936
	C60.568,96.778,62.608,81.343,61.722,79.486L61.722,79.486z M60.853,70.028c0.38-3.694-0.989-12.897-3.891-20.394
	c-3.478-8.982-7.679-14.825-10.297-16.66L0,0l18.559,39.799C36.883,53.052,16.455,38.281,60.853,70.028L60.853,70.028z
	 M150.088,220.418c-0.096-0.061-0.193-0.127-0.288-0.189c-0.096,0.063-0.193,0.129-0.289,0.189v-0.381
	c-11.458-7.695-24.088-23.543-30.408,0.156l-12.839-13.029H45.169v-28.447h31.973c-5.058-6.834-9.152-12.133-12.883-19.068
	c-5.047-9.384-6.038-14.964-5.027-25.461c3.337-20.788,9.428-47.568,6.38-66.516c-2.529-15.695-3.626-21.429-16.189-40.318
	C51.773,23.843,75.359,0,78.412,0h71.041h0.635h71.1c3.053,0,26.639,23.843,28.988,27.354
	c-12.563,18.889-13.66,24.623-16.188,40.318c-3.05,18.947,3.043,45.728,6.38,66.516c1.011,10.497,0.021,16.077-5.026,25.461
	c-3.732,6.936-7.827,12.234-12.884,19.068h31.975v28.447h-61.096l-12.841,13.029c-6.319-23.699-18.947-7.852-30.407-0.156V220.418
	L150.088,220.418z"/>
<path fill-rule="evenodd" clip-rule="evenodd" fill="#FFFFFF" d="M149.956,207.164h-4.244c0.8,1.199,2.491,4.248,4.243,4.248
	L149.956,207.164L149.956,207.164z M150.009,5.471h-0.06H80.65c-2.917,0-19.837,18.83-21.883,21.883
	c11.25,21.261,14.378,45.074,11.376,69.037c-1.308,10.436-3.265,20.122-4.63,29.404c-2.242,15.218-2.463,23.031,6.864,36.896
	c4.626,6.875,7.064,10.691,12.65,16.025c22.823,0,43.337,0,64.921,0l0.03-86.623l0.03,86.623c21.585,0,42.1,0,64.92,0
	c5.586-5.334,8.025-9.15,12.651-16.025c9.327-13.866,9.104-21.678,6.864-36.896c-1.366-9.282-3.323-18.968-4.629-29.404
	c-3.004-23.963,0.125-47.776,11.375-69.037c-2.046-3.054-18.968-21.883-21.884-21.883H150.009L150.009,5.471z M150.002,207.164
	h4.243c-0.8,1.199-2.49,4.248-4.242,4.248L150.002,207.164L150.002,207.164z"/>
<path fill-rule="evenodd" clip-rule="evenodd" fill="#FFA500" d="M150.007,9.332H83.195c-2.744,0-16.286,15.104-18.21,18.022
	C75.565,47.667,77.724,73.305,74.901,96.2c-1.229,9.969-3.069,19.224-4.354,28.091c-2.108,14.541-2.316,22.005,6.455,35.253
	c4.351,6.568,9.973,14.076,15.225,19.17h115.781c5.253-5.094,10.596-12.602,14.946-19.17c8.772-13.248,8.563-20.713,6.455-35.253
	c-1.283-8.867-3.125-18.122-4.353-28.091c-2.822-22.896-0.688-48.533,9.892-68.846c-1.924-2.918-15.263-18.022-18.006-18.022
	H150.007L150.007,9.332z"/>
<path fill-rule="evenodd" clip-rule="evenodd" d="M137.731,44.768c0.384-0.081,0.884-0.063,1.25-0.004
	c0.366,0.058,0.599,0.155,0.909,0.305c0.308,0.15,0.694,0.352,1.414,0.498c0.719,0.146,1.771,0.237,2.554,0.336
	c0.781,0.101,1.293,0.211,1.616,0.347c0.325,0.134,0.46,0.293,0.65,0.515c0.191,0.223,0.437,0.509,0.888,1.035
	c0.452,0.526,1.109,1.294,1.755,1.878c0.646,0.585,1.282,0.988,1.996,1.508c0.715,0.52,1.506,1.155,2.386,1.582
	c0.879,0.428,1.844,0.647,2.795,0.863c0.953,0.216,1.891,0.431,2.686,0.494c0.794,0.063,1.445-0.024,2.095-0.111
	c0.648-0.086,1.295-0.172,1.653-0.065c0.359,0.107,0.43,0.408,0.494,0.689c0.065,0.282,0.126,0.542,0.052,1.189
	c-0.075,0.646-0.283,1.676-0.499,2.391c-0.218,0.714-0.442,1.111-0.754,1.502c-0.314,0.393-0.718,0.78-1.172,1.104
	c-0.455,0.325-0.96,0.587-1.223,0.817c-0.259,0.23-0.276,0.427-0.299,0.687c-0.021,0.26-0.048,0.582,0.139,1.085
	c0.186,0.502,0.584,1.186,0.888,1.705c0.303,0.52,0.51,0.874,0.69,1.208s0.334,0.645,0.399,1.207
	c0.063,0.563,0.04,1.376,0.105,2.452c0.066,1.075,0.22,2.413,0.337,3.217c0.118,0.805,0.199,1.077,0.135,1.329
	c-0.065,0.252-0.276,0.485-0.49,0.715c-0.214,0.229-0.43,0.457-0.484,0.668c-0.055,0.21,0.053,0.406,0.147,0.67
	c0.094,0.265,0.175,0.6,0.306,1.136c0.132,0.536,0.31,1.271,0.445,1.955c0.136,0.684,0.227,1.317,0.388,2.071
	c0.163,0.755,0.396,1.631,0.54,2.426c0.142,0.795,0.197,1.509,0.251,2.169c0.054,0.66,0.108,1.266,0.397,1.683
	s0.813,0.646,1.221,0.842c0.404,0.194,0.691,0.355,0.793,0.485c0.099,0.13,0.015,0.23-0.087,0.347
	c-0.1,0.117-0.215,0.252-0.32,0.495c-0.104,0.243-0.198,0.596-0.201,0.902c-0.003,0.306,0.083,0.566,0.354,0.685
	c0.272,0.12,0.73,0.099,1.205,0.077c0.476-0.021,0.972-0.044,1.287-0.194c0.313-0.148,0.446-0.423,0.627-0.793
	c0.18-0.369,0.405-0.832,0.567-1.341s0.26-1.065,0.297-1.738c0.039-0.674,0.016-1.465-0.126-2.072
	c-0.143-0.608-0.405-1.033-0.648-1.465c-0.243-0.433-0.468-0.874-0.903-1.403c-0.438-0.528-1.086-1.145-1.724-1.65
	c-0.635-0.507-1.257-0.901-1.584-1.31s-0.359-0.831-0.302-1.271c0.056-0.441,0.202-0.9,0.383-1.323
	c0.182-0.421,0.399-0.806,0.678-1.516c0.277-0.712,0.616-1.75,0.949-2.78c0.329-1.03,0.647-2.053,1.061-3.117
	c0.413-1.064,0.919-2.17,2.448-4.887c1.529-2.717,4.081-7.044,6.872-10.96c2.792-3.916,5.82-7.421,8.173-10.07
	c2.356-2.649,4.035-4.441,5.016-5.543s1.262-1.513,1.567-1.785c0.308-0.271,0.641-0.404,0.974-0.538
	c0.014,0.242,0.027,0.482,0.114,0.72c0.086,0.239,0.246,0.473,0.302,0.678c0.058,0.206,0.012,0.382,0.072,0.528
	c0.061,0.146,0.227,0.261,0.396,0.376c0.271-0.159,0.54-0.318,3.206-3.125c2.665-2.807,7.728-8.262,10.866-11.573
	c3.139-3.31,4.358-4.475,5.348-5.496c0.988-1.021,1.745-1.897,2.343-2.443s1.036-0.763,1.474-0.979
	c0.181,0.268,0.362,0.536,0.388,1.102c0.027,0.566-0.104,1.432-0.341,2.297c-0.239,0.865-0.585,1.73-0.844,2.466
	c-0.26,0.735-0.434,1.341-0.498,1.757c-0.062,0.415-0.017,0.639,0.028,0.864c0.375-0.179,0.748-0.357,1.157-0.686
	c0.41-0.329,0.857-0.808,1.208-1.133c0.353-0.326,0.614-0.5,0.872-0.673c-0.048,0.327-0.098,0.655-0.162,1.088
	c-0.065,0.432-0.146,0.97-0.575,2.148c-0.43,1.177-1.209,2.995-2.399,5.006c-1.189,2.013-2.791,4.22-4.391,6.231
	c-1.601,2.012-3.203,3.83-4.479,5.388c-1.276,1.557-2.229,2.855-2.878,3.678c-0.648,0.822-0.993,1.168-1.206,1.408
	c-0.212,0.24-0.289,0.374-0.364,0.508c0.38-0.048,0.759-0.095,1.327-0.49c0.565-0.396,1.32-1.139,2.319-2.104
	c0.999-0.964,2.243-2.148,3.981-3.908s3.97-4.094,5.355-5.473c1.385-1.38,1.921-1.803,2.38-2.265
	c0.456-0.463,0.832-0.963,1.228-1.348c0.393-0.385,0.805-0.655,1.216-0.925c0.068,0.308,0.138,0.615,0.086,1.31
	c-0.053,0.695-0.225,1.777-0.549,2.729c-0.324,0.952-0.802,1.774-1.71,3.181c-0.908,1.406-2.25,3.396-3.82,5.572
	c-1.57,2.176-3.369,4.538-4.409,5.901c-1.036,1.363-1.317,1.728-1.593,2.092c0.431-0.129,0.866-0.259,1.492-0.692
	c0.628-0.432,1.45-1.167,2.928-2.477c1.48-1.309,3.616-3.191,4.862-4.19c1.245-0.999,1.6-1.116,1.956-1.232
	c0.128,0.288,0.26,0.574,0.313,0.881s0.027,0.633-0.115,1.273c-0.142,0.639-0.401,1.591-1.006,2.673
	c-0.607,1.082-1.56,2.293-2.338,3.354c-0.78,1.059-1.385,1.968-1.954,2.839c-0.568,0.873-1.097,1.708-1.411,2.193
	c-0.312,0.486-0.405,0.621-0.501,0.757c0.15,0.068,0.298,0.135,0.721-0.047c0.42-0.182,1.111-0.615,1.827-1.056
	c0.715-0.441,1.454-0.891,2.029-1.222c0.574-0.331,0.986-0.544,1.396-0.757c-0.11,0.49-0.222,0.979-0.429,1.505
	c-0.206,0.526-0.511,1.088-0.943,1.998c-0.432,0.908-0.994,2.163-1.989,3.526c-0.996,1.363-2.423,2.835-4.002,4.349
	c-1.581,1.514-3.311,3.072-4.428,4.121c-1.119,1.047-1.626,1.586-1.999,2.058c-0.376,0.472-0.618,0.877-0.861,1.283
	c0.575-0.079,1.15-0.157,1.85-0.5c0.701-0.341,1.521-0.948,2.742-1.73c1.222-0.782,2.842-1.743,4.008-2.41
	c1.165-0.668,1.876-1.044,2.414-1.296c0.538-0.251,0.903-0.379,1.27-0.506c0.024,0.371,0.048,0.74-0.067,1.169
	c-0.116,0.428-0.371,0.915-0.863,1.83c-0.494,0.915-1.23,2.256-2.695,3.739c-1.464,1.484-3.656,3.108-5.496,4.601
	c-1.839,1.493-3.323,2.854-4.672,3.988s-2.561,2.043-3.209,2.564c-0.647,0.52-0.731,0.653-0.814,0.785
	c0.245,0.076,0.488,0.15,0.791,0.192c0.301,0.042,0.659,0.05,2.072-0.529c1.413-0.581,3.879-1.749,5.892-2.571
	c2.012-0.822,3.57-1.299,4.629-1.73c1.061-0.433,1.624-0.823,2.127-1.075c0.505-0.252,0.952-0.369,1.398-0.485
	c0.024,0.309,0.051,0.619,0.01,0.977c-0.039,0.357-0.146,0.762-0.729,1.682c-0.581,0.92-1.641,2.355-2.904,3.485
	c-1.266,1.128-2.736,1.952-4.056,2.665c-1.32,0.714-2.488,1.32-3.181,1.731c-0.692,0.412-0.908,0.627-1.082,0.805
	c-0.175,0.176-0.309,0.315-0.441,0.453c0.479,0.165,0.958,0.33,1.675,0.369c0.714,0.039,1.666-0.047,2.682-0.307
	c1.018-0.26,2.101-0.693,2.793-0.964c0.694-0.272,0.999-0.382,1.269-0.441c0.271-0.059,0.51-0.065,0.748-0.071
	c0.063,0.333,0.127,0.667-0.188,1.461c-0.314,0.794-1.008,2.049-2.263,3.174c-1.254,1.126-3.071,2.121-4.853,2.903
	c-1.782,0.783-3.524,1.354-5.349,1.902c-1.825,0.547-3.729,1.072-5.041,1.429c-1.313,0.355-2.036,0.543-2.54,0.684
	c-0.505,0.14-0.789,0.231-1.076,0.322c0.112,0.226,0.227,0.453,0.542,0.566c0.318,0.113,0.837,0.113,2.148,0.085
	c1.313-0.028,3.419-0.084,4.995-0.142c1.576-0.058,2.621-0.115,3.593-0.212c0.97-0.097,1.864-0.232,2.65-0.35
	c0.782-0.119,1.455-0.22,1.943-0.278c0.487-0.059,0.795-0.073,1.099-0.088c-0.015,0.252-0.029,0.504-0.313,0.947
	s-0.837,1.076-1.909,1.731c-1.072,0.656-2.667,1.335-4.375,1.898c-1.71,0.562-3.534,1.008-4.907,1.231
	c-1.369,0.223-2.287,0.223-2.827,0.223c-0.542,0-0.707,0-0.871,0c0.121,0.333,0.242,0.666,0.595,0.838
	c0.35,0.171,0.927,0.182,1.543,0.244c0.619,0.062,1.272,0.177,1.943,0.254c0.672,0.078,1.358,0.12,2.003,0.179
	c0.647,0.06,1.254,0.137,1.822,0.147c0.567,0.011,1.098-0.046,1.578-0.021c0.477,0.024,0.904,0.131,1.33,0.239
	c-0.211,0.167-0.421,0.332-0.796,0.56c-0.375,0.229-0.912,0.517-2.198,1.073c-1.285,0.555-3.32,1.378-4.921,1.918
	c-1.601,0.541-2.771,0.801-3.463,0.931s-0.907,0.13-1.123,0.13c0.001,0.262,0.004,0.525,0.056,0.734
	c0.049,0.209,0.146,0.367,0.56,0.629c0.416,0.264,1.146,0.634,1.688,0.932c0.54,0.297,0.891,0.523,1.24,0.747
	c-0.108,0.2-0.216,0.4-0.634,0.715c-0.418,0.315-1.146,0.745-1.941,1.068c-0.797,0.323-1.661,0.54-2.679,0.604
	c-1.017,0.065-2.186-0.021-2.89-0.012c-0.704,0.009-0.946,0.115-1.187,0.221c0.135,0.172,0.271,0.346,0.541,0.553
	c0.274,0.207,0.681,0.448,0.994,0.627s0.533,0.298,0.75,0.417c-0.231,0.082-0.466,0.163-0.791,0.277s-0.742,0.26-1.472,0.355
	c-0.729,0.095-1.767,0.138-3.044,0.073c-1.276-0.065-2.789-0.239-4.651-0.649c-1.859-0.411-4.066-1.061-5.904-1.752
	c-1.84-0.692-3.313-1.428-4.197-1.886c-0.886-0.458-1.186-0.64-1.582-0.769c-0.398-0.127-0.889-0.205-1.116-0.03
	c-0.227,0.173-0.188,0.595-0.117,0.917c0.071,0.323,0.178,0.548,0.402,1.245c0.226,0.697,0.572,1.864,1.07,2.816
	c0.498,0.951,1.147,1.688,1.679,2.107c0.53,0.421,0.944,0.526,1.378,0.552s0.889-0.029,1.094,0.092
	c0.204,0.121,0.157,0.416-0.051,0.59c-0.207,0.176-0.58,0.233-0.956,0.319c-0.377,0.085-0.76,0.199-0.812,0.46
	c-0.054,0.263,0.229,0.674,0.704,1.018c0.478,0.343,1.147,0.618,2.068,0.768c0.925,0.148,2.098,0.169,2.813,0.267
	c0.719,0.097,0.978,0.271,1.26,0.362c0.281,0.093,0.584,0.104,0.626,0.23c0.044,0.126-0.173,0.37-0.49,0.618
	c-0.318,0.247-0.737,0.499-1.466,0.755c-0.729,0.254-1.768,0.515-2.568,0.623c-0.799,0.109-1.363,0.065-1.666,0.261
	c-0.303,0.194-0.346,0.627-0.367,0.995c-0.021,0.367-0.021,0.67,0.324,1.059c0.346,0.39,1.038,0.866,1.946,1.493
	c0.909,0.627,2.034,1.407,3.009,2.208c0.974,0.801,1.795,1.622,2.769,2.293c0.974,0.671,2.1,1.19,3.354,1.363
	c1.255,0.172,2.64,0,3.459-0.123c0.821-0.124,1.079-0.196,1.51-0.435c0.434-0.237,1.044-0.641,1.479-1.014
	c0.435-0.374,0.698-0.717,0.907-1.116c0.209-0.398,0.366-0.853,0.494-1.331c0.13-0.476,0.229-0.977,0.575-1.685
	c0.347-0.71,0.938-1.626,1.566-2.016c0.626-0.389,1.29-0.251,1.717-0.07c0.427,0.181,0.619,0.405,0.838,0.597
	c0.22,0.191,0.465,0.35,0.643,0.606c0.179,0.257,0.29,0.612,0.461,0.983c0.17,0.372,0.402,0.759,0.555,1.24
	c0.154,0.48,0.233,1.058,0.32,1.527c0.088,0.469,0.186,0.832,0.276,1.193c0.091,0.36,0.173,0.719,0.354,0.947
	c0.183,0.226,0.46,0.318,0.792,0.382c0.331,0.063,0.715,0.097,0.905,0.309c0.188,0.212,0.184,0.602,0.176,1.058
	c-0.006,0.456-0.014,0.978,0.025,1.823s0.125,2.014,0.079,2.673c-0.048,0.658-0.229,0.807-0.435,0.897
	c-0.203,0.09-0.43,0.123-0.517,0.359c-0.087,0.235-0.033,0.672-0.073,1.106c-0.04,0.432-0.176,0.86-0.411,1.155
	c-0.232,0.297-0.566,0.461-0.84,0.696c-0.274,0.233-0.49,0.538-0.534,1.011c-0.043,0.479,0.087,1.127,0.021,1.731
	c-0.064,0.606-0.324,1.169-0.649,1.731c-0.324,0.564-0.713,1.127-1.155,1.381c-0.442,0.256-0.938,0.205-1.147,0.027
	c-0.208-0.176-0.134-0.48-0.142-0.824s-0.1-0.727-0.17-0.971s-0.118-0.346-0.307-0.367c-0.186-0.021-0.511,0.039-0.738,0.004
	c-0.227-0.031-0.355-0.156-0.581-0.289c-0.225-0.135-0.543-0.279-0.793-0.432c-0.25-0.155-0.431-0.315-0.562-0.513
	c-0.131-0.201-0.212-0.44-0.318-0.764c-0.109-0.325-0.246-0.735-0.574-1.093c-0.326-0.355-0.847-0.659-1.286-0.92
	s-0.799-0.481-1.211-0.61c-0.41-0.129-0.872-0.17-1.266-0.119c-0.392,0.051-0.713,0.195-1.016,0.411
	c-0.305,0.217-0.587,0.506-0.946,1.083c-0.358,0.579-0.791,1.444-1.311,2.072c-0.518,0.628-1.125,1.017-1.751,1.124
	c-0.628,0.109-1.276-0.064-1.796-0.193c-0.521-0.131-0.909-0.217-1.126-0.023c-0.216,0.197-0.259,0.672-0.237,1.17
	s0.109,1.018,0.021,1.43c-0.087,0.41-0.346,0.711-0.743,0.746c-0.395,0.033-0.929-0.201-1.188-0.072
	c-0.259,0.129-0.246,0.625-0.131,1.047c0.115,0.42,0.331,0.766,0.355,0.998c0.025,0.232-0.143,0.352-0.619,0.266
	c-0.476-0.088-1.261-0.379-1.956-0.699c-0.694-0.316-1.3-0.664-1.992-1.27s-1.472-1.471-1.914-2.504
	c-0.441-1.031-0.547-2.229-0.244-3.182c0.304-0.952,1.015-1.657,1.846-2.162c0.832-0.506,1.783-0.807,2.612-1.028
	c0.83-0.221,1.534-0.358,2.08-0.504c0.547-0.146,0.934-0.303,0.992-0.549c0.057-0.246-0.216-0.586-0.459-0.85
	c-0.241-0.266-0.457-0.457-0.986-1.016c-0.527-0.563-1.368-1.497-2.429-2.469c-1.06-0.975-2.34-1.988-3.206-2.767
	c-0.862-0.779-1.315-1.323-1.842-1.6c-0.525-0.277-1.127-0.288-1.661-0.323c-0.532-0.037-1-0.1-1.389-0.27
	c-0.39-0.171-0.703-0.45-1.133-0.79c-0.429-0.341-0.979-0.744-1.47-1.228c-0.49-0.482-0.923-1.045-1.27-1.197
	c-0.346-0.151-0.605,0.109-0.756,0.542c-0.151,0.432-0.195,1.038,0.042,2.012c0.238,0.973,0.756,2.314,1.32,3.655
	c0.562,1.341,1.168,2.682,1.644,3.808s0.822,2.035,0.909,2.662s-0.087,0.973-0.521,1.147c-0.432,0.172-1.125,0.172-1.891,0.049
	c-0.768-0.123-1.608-0.369-1.932-0.309c-0.323,0.063-0.129,0.428-0.012,0.723c0.117,0.297,0.159,0.522,0.283,1.378
	c0.126,0.854,0.333,2.339,0.571,4.155c0.238,1.818,0.505,3.969,0.747,6.234c0.243,2.264,0.459,4.645,0.546,6.42
	c0.087,1.773,0.044,2.943-0.194,3.633c-0.237,0.691-0.672,0.908-1.212,0.607c-0.54-0.305-1.19-1.125-1.751-2.143
	c-0.564-1.016-1.041-2.229-1.349-2.996c-0.309-0.768-0.451-1.09-0.601-1.523c-0.15-0.436-0.309-0.979-0.514-1.129
	c-0.204-0.15-0.454,0.098-0.619,0.461c-0.166,0.361-0.246,0.84-0.322,1.396c-0.075,0.557-0.146,1.193-0.222,1.848
	c-0.073,0.656-0.15,1.332-0.318,2.082c-0.167,0.748-0.428,1.57-0.753,2.566c-0.324,0.994-0.712,2.164-1.168,3.156
	c-0.453,0.998-0.973,1.818-1.339,2.35c-0.368,0.531-0.581,0.775-0.949,0.383c-0.368-0.389-0.89-1.408-1.315-2.514
	c-0.424-1.107-0.751-2.297-0.953-3.135c-0.201-0.834-0.277-1.309-0.352-2.076c-0.074-0.768-0.147-1.824-0.171-2.57
	c-0.024-0.746,0-1.182,0.022-1.572c0.021-0.389,0.04-0.732-0.03-0.947c-0.07-0.213-0.23-0.299-0.428-0.406
	c-0.199-0.105-0.437-0.234-0.79-0.127c-0.354,0.107-0.821,0.451-1.138,0.842c-0.315,0.389-0.478,0.824-0.608,1.172
	c-0.129,0.346-0.227,0.602-0.511,1.012c-0.287,0.41-0.763,0.971-1.233,1.426c-0.471,0.455-0.936,0.805-1.38,1.066
	c-0.444,0.262-0.866,0.443-1.29,0.621c-0.092-0.254-0.185-0.508-0.217-0.922c-0.031-0.416-0.002-0.99,0.081-1.514
	c0.083-0.52,0.221-0.988,0.502-2.373c0.281-1.383,0.707-3.686,1.121-5.938c0.416-2.254,0.822-4.453,1.1-5.76
	c0.277-1.304,0.424-1.712,0.574-2.25c0.149-0.536,0.301-1.2,0.426-1.878c0.125-0.676,0.221-1.368,0.309-1.862
	c0.085-0.495,0.162-0.795-0.012-0.931c-0.173-0.133-0.595-0.102-1.033-0.068c-0.438,0.033-0.892,0.064-1.316,0.139
	c-0.424,0.072-0.82,0.188-1.295,0.285c-0.476,0.096-1.033,0.176-1.444,0.119c-0.412-0.055-0.677-0.25-0.912-0.42
	c-0.236-0.17-0.441-0.317-0.614-0.596c-0.173-0.278-0.314-0.69-0.261-1.161c0.053-0.469,0.299-1,0.643-1.661
	c0.343-0.66,0.784-1.448,1.333-2.346c0.549-0.896,1.206-1.9,1.665-2.908c0.458-1.008,0.717-2.017,0.766-2.559
	c0.047-0.543-0.118-0.616-0.352-0.581c-0.235,0.036-0.539,0.183-0.846,0.5c-0.308,0.319-0.617,0.81-1.098,1.272
	c-0.481,0.462-1.134,0.898-2.246,1.037c-1.113,0.14-2.687-0.017-3.808,0.069c-1.122,0.087-1.792,0.419-2.669,1.079
	c-0.878,0.663-1.963,1.653-2.787,2.331c-0.822,0.679-1.382,1.043-2.008,1.521c-0.625,0.479-1.318,1.067-1.604,1.556
	c-0.287,0.487-0.168,0.87,0.003,1.237c0.171,0.367,0.396,0.715,1.076,0.954c0.679,0.239,1.811,0.364,2.724,0.512
	c0.913,0.146,1.605,0.314,2.175,0.737c0.569,0.426,1.016,1.106,1.338,1.873c0.321,0.764,0.518,1.614,0.171,2.484
	c-0.348,0.868-1.241,1.755-1.911,2.526c-0.671,0.771-1.121,1.426-1.611,1.939c-0.49,0.516-1.024,0.895-1.432,1.16
	c-0.409,0.266-0.692,0.418-1.045,0.533c-0.353,0.115-0.775,0.193-1.075,0.205c-0.301,0.01-0.479-0.047-0.586-0.367
	c-0.108-0.318-0.146-0.904-0.148-1.387c-0.003-0.48,0.029-0.859-0.081-1.07c-0.111-0.211-0.366-0.254-0.563-0.424
	c-0.197-0.17-0.338-0.467-0.379-0.809c-0.041-0.342,0.02-0.727-0.116-0.922c-0.135-0.193-0.465-0.197-0.796-0.252
	c-0.33-0.055-0.662-0.158-1.062-0.221c-0.4-0.063-0.87-0.084-1.209-0.283s-0.551-0.579-0.814-1.031c-0.265-0.449-0.581-0.973-1-1.28
	c-0.419-0.309-0.941-0.403-1.521-0.555s-1.218-0.364-1.854-0.303c-0.635,0.059-1.269,0.389-1.859,0.743
	c-0.592,0.352-1.14,0.727-1.652,1.132s-0.988,0.836-1.378,1.119c-0.389,0.281-0.692,0.412-0.988,0.4
	c-0.297-0.014-0.586-0.168-0.799-0.391c-0.212-0.224-0.347-0.515-0.614-0.362c-0.268,0.154-0.668,0.755-1.053,1.282
	s-0.754,0.982-1.134,1.24c-0.379,0.254-0.77,0.311-1.205,0.27c-0.434-0.041-0.914-0.178-1.246-0.461
	c-0.331-0.283-0.515-0.711-0.523-1.498c-0.011-0.79,0.153-1.939,0.238-3.081c0.083-1.142,0.087-2.273-0.278-3.567
	c-0.365-1.292-1.098-2.744-1.486-4.011c-0.388-1.266-0.431-2.35-0.359-3.318s0.258-1.827,0.589-2.68s0.808-1.702,1.212-2.27
	c0.404-0.567,0.737-0.85,1.299-1.369c0.562-0.517,1.354-1.273,2.174-1.89c0.819-0.618,1.666-1.1,2.494-1.313s1.636-0.161,2.062-0.01
	c0.426,0.151,0.47,0.4,0.488,0.897c0.02,0.498,0.013,1.244,0.023,1.884c0.01,0.639,0.034,1.172,0.11,1.807
	c0.077,0.634,0.208,1.37,0.328,1.996c0.12,0.626,0.23,1.142,1.239,1.389c1.007,0.249,2.911,0.227,4.625,0.172
	c1.714-0.054,3.24-0.141,4.569-0.69c1.33-0.551,2.463-1.565,3.239-2.235c0.776-0.671,1.195-0.999,1.662-1.432
	c0.465-0.432,0.979-0.97,1.538-1.509c0.56-0.538,1.167-1.076,1.635-1.437c0.468-0.361,0.798-0.544,0.814-0.801
	c0.017-0.257-0.281-0.587-0.87-0.767s-1.467-0.209-2.472-0.233c-1.005-0.023-2.136-0.042-2.811-0.126s-0.894-0.237-1.112-0.391
	c0.182-0.219,0.362-0.438,0.722-0.679c0.359-0.24,0.896-0.504,1.484-0.728c0.588-0.223,1.228-0.406,1.894-0.641
	c0.665-0.233,1.358-0.52,1.937-0.739s1.043-0.372,1.429-0.763c0.385-0.392,0.691-1.021,1.125-1.899
	c0.434-0.877,0.996-2.002,1.472-2.912c0.476-0.907,0.865-1.601,1.116-2.057c0.25-0.455,0.361-0.674,0.39-0.903
	c0.028-0.228-0.026-0.466-0.08-0.705c-0.287-0.205-0.573-0.411-0.901-0.356c-0.327,0.053-0.694,0.367-1.495,0.822
	c-0.801,0.455-2.034,1.049-3.343,1.595c-1.308,0.546-2.693,1.044-4.244,1.354c-1.552,0.31-3.269,0.432-4.725,0.472
	c-1.456,0.039-2.649-0.004-3.722-0.134c-1.074-0.129-2.024-0.345-2.976-0.561c0.155-0.13,0.31-0.261,0.789-0.59
	c0.48-0.331,1.284-0.859,1.699-1.271c0.416-0.412,0.442-0.708,0.467-1.004c-0.848,0.005-1.697,0.01-2.935-0.032
	c-1.238-0.042-2.862-0.131-3.983-0.26c-1.122-0.128-1.738-0.295-2.356-0.543c-0.618-0.248-1.237-0.575-1.636-0.876
	c-0.399-0.301-0.577-0.578-0.755-0.853c0.416-0.114,0.833-0.227,1.301-0.284c0.467-0.057,0.987-0.057,1.433-0.141
	c0.446-0.084,0.82-0.252,1.328-0.354c0.508-0.102,1.15-0.139,1.794-0.252c0.643-0.114,1.289-0.304,1.659-0.497
	c0.372-0.193,0.469-0.387,0.566-0.583c-0.194-0.113-0.39-0.226-1.095-0.29c-0.703-0.063-1.918-0.078-2.958-0.149
	c-1.04-0.071-1.904-0.202-2.82-0.424c-0.916-0.224-1.881-0.54-2.735-0.936c-0.854-0.396-1.597-0.87-2.336-1.471
	c-0.737-0.601-1.472-1.326-2.205-2.052c0.365-0.083,0.73-0.167,1.281-0.166c0.55,0.001,1.285,0.088,1.839,0.138
	c0.553,0.049,0.923,0.063,1.26,0.013c0.336-0.051,0.639-0.164,0.942-0.277c-0.129-0.292-0.26-0.584-0.683-0.794
	c-0.423-0.209-1.14-0.336-1.868-0.52c-0.728-0.185-1.467-0.425-2.185-0.722c-0.718-0.296-1.415-0.647-2.131-1.067
	c-0.715-0.419-1.449-0.907-1.982-1.32c-0.535-0.413-0.87-0.752-1.068-1.048c-0.198-0.297-0.26-0.553-0.322-0.808
	c0.21-0.011,0.421-0.022,1,0.03c0.579,0.051,1.525,0.164,2.534,0.25c1.009,0.086,2.079,0.146,3.108,0.153
	c1.029,0.007,2.017-0.04,2.993-0.014c0.976,0.024,1.941,0.119,2.595,0.09c0.653-0.028,0.993-0.181,1.194-0.315
	c0.201-0.135,0.263-0.253,0.325-0.372c-0.132-0.131-0.264-0.261-0.623-0.433c-0.359-0.172-0.947-0.385-1.824-0.644
	c-0.878-0.258-2.047-0.561-3.193-0.929c-1.146-0.368-2.271-0.8-3.189-1.243s-1.63-0.895-2.439-1.431
	c-0.81-0.537-1.719-1.159-2.546-1.756c-0.828-0.597-1.574-1.171-2.137-1.674c-0.562-0.502-0.942-0.936-1.236-1.469
	c-0.294-0.532-0.505-1.165-0.643-1.676c-0.138-0.511-0.203-0.9-0.233-1.248c-0.03-0.347-0.025-0.653-0.02-0.959
	c0.173-0.013,0.347-0.026,0.757,0.162c0.411,0.188,1.061,0.577,1.764,0.938c0.703,0.359,1.461,0.689,2.24,1.011
	s1.58,0.636,2.461,0.901c0.881,0.265,1.844,0.481,2.479,0.601c0.634,0.121,0.939,0.145,1.429,0.297
	c0.49,0.151,1.164,0.43,1.621,0.564c0.458,0.133,0.702,0.123,0.945,0.111c0.005-0.238,0.011-0.476-0.508-0.873
	c-0.52-0.398-1.563-0.955-2.677-1.548c-1.115-0.592-2.3-1.219-3.376-1.851c-1.078-0.631-2.049-1.268-2.863-1.826
	c-0.813-0.559-1.47-1.04-2.056-1.53c-0.585-0.492-1.099-0.994-1.526-1.512c-0.428-0.518-0.77-1.053-1.072-1.522
	c-0.303-0.47-0.569-0.875-0.832-1.283s-0.525-0.817-0.654-1.306c-0.128-0.487-0.124-1.055-0.118-1.621
	c0.343,0.045,0.687,0.092,0.958,0.182c0.272,0.09,0.472,0.227,0.718,0.396c0.246,0.17,0.539,0.376,1.134,0.652
	c0.596,0.276,1.495,0.623,2.149,0.893c0.655,0.27,1.064,0.465,1.44,0.581c0.375,0.116,0.715,0.154,0.918,0.224
	c0.203,0.07,0.268,0.173,0.455,0.235c0.186,0.063,0.495,0.084,0.755,0.105c0.259,0.021,0.47,0.043,0.728,0.152
	c0.257,0.107,0.562,0.302,0.856,0.402c0.294,0.1,0.58,0.106,0.865,0.111c-0.021-0.189-0.043-0.378-0.13-0.578
	c-0.086-0.2-0.238-0.411-0.481-0.589c-0.244-0.179-0.579-0.326-1.088-0.694c-0.51-0.369-1.194-0.962-1.947-1.625
	c-0.753-0.665-1.575-1.399-2.397-2.308c-0.822-0.909-1.644-1.991-2.185-2.769c-0.541-0.779-0.801-1.255-1.097-1.788
	c-0.295-0.534-0.627-1.125-0.844-1.774s-0.317-1.356-0.39-2.2c-0.074-0.845-0.12-1.826-0.167-2.808
	c0.401,0.33,0.801,0.66,1.204,0.979c0.404,0.32,0.809,0.628,1.41,1.076c0.601,0.447,1.397,1.035,2.095,1.592
	c0.698,0.557,1.297,1.084,2.013,1.645c0.716,0.561,1.549,1.156,2.289,1.593c0.74,0.437,1.386,0.715,1.9,0.939
	c0.514,0.224,0.895,0.395,1.276,0.565c-0.064-0.378-0.129-0.757-0.33-1.09c-0.201-0.333-0.536-0.619-1.263-1.139
	c-0.728-0.519-1.847-1.27-2.781-2.155c-0.933-0.885-1.682-1.902-2.366-2.858c-0.686-0.956-1.31-1.85-1.967-2.643
	c-0.658-0.794-1.351-1.486-2.086-2.287c-0.736-0.802-1.515-1.709-2.101-2.463c-0.585-0.753-0.978-1.35-1.207-1.812
	c-0.231-0.461-0.299-0.789-0.289-1.086s0.101-0.567,0.147-0.833s0.049-0.53,0.148-0.799c0.099-0.269,0.293-0.544,0.488-0.818
	c0.284,0.371,0.568,0.742,0.871,1.152c0.303,0.412,0.624,0.863,0.958,1.24c0.334,0.377,0.68,0.681,1.125,0.884
	c0.445,0.205,0.989,0.31,1.533,0.415c-0.021-0.225-0.041-0.45-0.053-0.741c-0.012-0.291-0.016-0.646-0.163-1.057
	c-0.147-0.409-0.437-0.872-0.718-1.239c-0.281-0.368-0.554-0.642-0.933-1.048c-0.377-0.407-0.86-0.948-1.272-1.533
	c-0.411-0.584-0.75-1.211-1.092-1.98c-0.343-0.768-0.689-1.676-0.904-2.653c-0.215-0.978-0.299-2.024-0.383-3.07
	c0.43,0.224,0.86,0.448,1.334,0.734c0.475,0.285,0.994,0.631,1.492,0.978c0.498,0.346,0.973,0.692,1.538,1.042
	c0.564,0.352,1.218,0.707,1.705,0.995c0.489,0.288,0.812,0.508,1.135,0.729c0.122-0.286,0.244-0.572,0.104-0.915
	c-0.139-0.342-0.542-0.739-0.911-1.217c-0.37-0.479-0.708-1.039-1.1-1.568c-0.392-0.53-0.836-1.032-1.405-1.844
	c-0.569-0.813-1.261-1.938-1.769-2.83c-0.507-0.892-0.829-1.548-1.192-2.504c-0.364-0.957-0.769-2.212-0.996-3.16
	c-0.229-0.948-0.282-1.588-0.307-2.016c-0.026-0.429-0.026-0.646-0.026-0.862c0.476,0.519,0.952,1.039,1.406,1.492
	c0.454,0.455,0.887,0.845,1.514,1.339c0.626,0.495,1.448,1.097,2.292,1.875c0.844,0.779,1.71,1.735,2.468,2.517
	s1.406,1.388,1.904,1.864c0.497,0.475,0.844,0.822,1.137,1.047c0.293,0.227,0.534,0.333,0.774,0.438
	c-0.023-0.366-0.048-0.731-0.298-1.195c-0.25-0.464-0.727-1.026-1.263-1.644c-0.538-0.619-1.135-1.292-1.758-2.083
	c-0.623-0.791-1.272-1.699-2.035-2.875c-0.763-1.177-1.639-2.621-2.181-3.497c-0.542-0.876-0.749-1.184-0.94-1.612
	c-0.193-0.427-0.369-0.973-0.563-1.455c-0.193-0.48-0.405-0.897-0.535-1.352c-0.129-0.454-0.179-0.946-0.24-1.409
	c-0.062-0.461-0.138-0.895-0.144-1.362c-0.005-0.468,0.06-0.971,0.125-1.474c0.138,0.1,0.276,0.2,0.431,0.488
	c0.156,0.289,0.329,0.764,0.55,1.025c0.22,0.261,0.488,0.307,0.669,0.184c0.182-0.123,0.277-0.416,0.273-0.721
	c-0.004-0.304-0.107-0.62-0.161-1.636c-0.054-1.018-0.056-2.735-0.024-3.713c0.031-0.978,0.095-1.215,0.16-1.452
	c0.154,0.138,0.309,0.276,0.494,0.496c0.185,0.22,0.402,0.523,0.606,0.879c0.204,0.356,0.396,0.765,1.013,1.622
	c0.617,0.857,1.659,2.164,3.423,3.993c1.764,1.83,4.252,4.183,6.297,6.091c2.045,1.908,3.649,3.371,5.076,4.727
	c1.427,1.357,2.676,2.606,3.639,3.236c0.962,0.63,1.637,0.641,2.094,0.647c0.457,0.005,0.696,0.005,0.91,0.083
	c0.214,0.079,0.403,0.235,0.49,0.47s0.07,0.549,0.103,0.919c0.033,0.371,0.114,0.798,0.249,1.123s0.324,0.546,0.78,1.311
	c0.456,0.763,1.177,2.07,2.36,3.804c1.184,1.735,2.828,3.898,4.148,5.413c1.319,1.515,2.315,2.38,3.137,3.483
	c0.822,1.104,1.471,2.446,2.553,4.393c1.081,1.947,2.595,4.5,3.98,6.859c1.385,2.357,2.64,4.521,3.765,6.577
	c1.125,2.056,2.12,4.002,2.748,5.452c0.627,1.45,0.887,2.402,0.972,3.036s-0.004,0.951-0.307,1.427
	c-0.303,0.477-0.819,1.111-1.402,1.711c-0.583,0.6-1.232,1.161-1.902,1.702c-0.671,0.541-1.363,1.061-1.947,1.601
	c-0.584,0.541-1.061,1.104-1.355,1.568c-0.294,0.466-0.408,0.834-0.521,1.319c-0.113,0.486-0.226,1.09-0.189,1.705
	c0.036,0.614,0.221,1.241,0.601,1.765c0.379,0.524,0.954,0.945,1.646,1.272c0.691,0.325,1.498,0.556,2.186,0.615
	c0.688,0.058,1.255-0.054,1.573-0.221c0.318-0.167,0.386-0.386,0.449-0.654c0.063-0.267,0.119-0.583,0.141-0.833
	c0.021-0.249,0.008-0.43-0.097-0.64c-0.104-0.209-0.298-0.447-0.485-0.66c-0.187-0.214-0.364-0.403-0.464-0.602
	c-0.099-0.198-0.121-0.404-0.093-0.595c0.028-0.191,0.105-0.368,0.189-0.529c0.083-0.162,0.173-0.311,0.364-0.496
	c0.192-0.185,0.483-0.406,0.876-0.866c0.392-0.459,0.884-1.157,1.372-2.059c0.488-0.901,0.973-2.005,1.341-2.781
	c0.368-0.776,0.619-1.224,0.862-1.721c0.243-0.495,0.479-1.039,0.697-1.598c0.22-0.561,0.422-1.137,0.416-1.559
	c-0.007-0.424-0.223-0.694-0.483-0.905s-0.563-0.362-0.753-0.564s-0.269-0.456-0.298-0.788c-0.03-0.333-0.011-0.745,0.103-1.004
	c0.114-0.258,0.324-0.362,0.524-0.463c0.2-0.1,0.39-0.195,0.715-0.225c0.325-0.028,0.785,0.009,1.096-0.072
	c0.312-0.081,0.474-0.281,0.612-0.56c0.138-0.279,0.25-0.636,0.352-0.963c0.101-0.328,0.187-0.625,0.262-0.933
	c0.076-0.308,0.141-0.627,0.192-0.968c0.052-0.342,0.091-0.705,0.001-0.995c-0.09-0.29-0.307-0.504-0.745-0.602
	s-1.098-0.075-1.561-0.143c-0.462-0.068-0.729-0.227-0.941-0.526c-0.214-0.3-0.376-0.744-0.54-1.353
	c-0.164-0.61-0.329-1.385-0.545-2.219c-0.217-0.833-0.486-1.725-0.802-2.359c-0.314-0.635-0.676-1.011-1.185-1.383
	c-0.509-0.372-1.166-0.739-1.553-1.158c-0.386-0.419-0.503-0.891-0.447-1.265c0.055-0.374,0.282-0.65,0.248-0.938
	c-0.034-0.289-0.328-0.588-0.681-0.962c-0.351-0.373-0.76-0.819-1.215-1.308c-0.455-0.488-0.959-1.018-1.357-1.487
	c-0.399-0.47-0.693-0.878-0.913-1.3c-0.219-0.422-0.362-0.857-0.434-1.355c-0.072-0.5-0.072-1.062-0.072-1.625
	c0.167,0.26,0.335,0.52,0.586,0.85c0.252,0.33,0.586,0.73,0.94,1.099c0.352,0.37,0.723,0.708,1.209,1.002
	c0.487,0.295,1.091,0.546,1.561,0.662c0.468,0.115,0.804,0.093,1.139,0.072c0.06-0.417,0.12-0.833,0.277-1.359
	c0.159-0.526,0.416-1.162,0.652-1.588c0.237-0.426,0.453-0.642,0.777-0.922c0.325-0.282,0.758-0.628,1.122-0.97
	c0.363-0.343,0.658-0.681,0.939-0.94C137.08,45.03,137.347,44.849,137.731,44.768L137.731,44.768z"/>
<path fill-rule="evenodd" clip-rule="evenodd" fill="#FFA500" d="M134.38,51.529c0.277-0.039,0.681-0.039,0.977,0.044
	c0.297,0.082,0.487,0.246,0.657,0.41c0.171,0.164,0.322,0.329,0.411,0.512s0.114,0.385,0.126,0.562
	c0.012,0.176,0.012,0.328,0.012,0.479c0,0.151,0,0.304-0.063,0.379c-0.063,0.076-0.188,0.076-0.296,0.019
	c-0.108-0.057-0.196-0.171-0.291-0.279c-0.095-0.107-0.195-0.208-0.284-0.315c-0.088-0.107-0.164-0.221-0.233-0.315
	c-0.069-0.095-0.132-0.171-0.233-0.272c-0.101-0.101-0.24-0.227-0.341-0.302c-0.101-0.076-0.165-0.101-0.285-0.146
	c-0.12-0.045-0.296-0.107-0.429-0.139c-0.133-0.032-0.221-0.032-0.297-0.07c-0.075-0.037-0.138-0.113-0.138-0.182
	c0-0.07,0.063-0.133,0.17-0.202S134.102,51.566,134.38,51.529L134.38,51.529z"/>
<path fill-rule="evenodd" clip-rule="evenodd" fill="#FFA500" d="M137.568,54.81c0.092-0.049,0.26,0.021,0.374,0.077
	c0.112,0.056,0.168,0.098,0.267,0.176c0.099,0.078,0.239,0.19,0.337,0.337c0.099,0.148,0.155,0.331,0.268,0.464
	c0.112,0.134,0.282,0.219,0.38,0.261c0.099,0.042,0.126,0.042,0.147,0.119c0.021,0.077,0.035,0.231,0.078,0.358
	c0.042,0.127,0.112,0.225,0.183,0.303c0.07,0.077,0.141,0.133,0.197,0.239c0.057,0.105,0.098,0.26,0.155,0.401
	c0.056,0.141,0.126,0.267,0.14,0.387c0.015,0.119-0.028,0.232-0.035,0.33c-0.007,0.099,0.021,0.183-0.049,0.219
	c-0.07,0.034-0.239,0.021-0.352-0.064c-0.112-0.084-0.168-0.239-0.231-0.388c-0.063-0.147-0.134-0.288-0.218-0.407
	c-0.084-0.12-0.183-0.218-0.295-0.29c-0.112-0.07-0.239-0.112-0.331-0.182c-0.091-0.071-0.147-0.169-0.211-0.275
	s-0.134-0.218-0.19-0.331c-0.057-0.113-0.099-0.225-0.148-0.302c-0.049-0.078-0.105-0.119-0.183-0.155
	c-0.078-0.035-0.176-0.063-0.254-0.112c-0.077-0.05-0.133-0.12-0.154-0.254c-0.021-0.134-0.007-0.33,0.007-0.513
	S137.477,54.859,137.568,54.81L137.568,54.81z"/>
<path fill-rule="evenodd" clip-rule="evenodd" fill="#FFA500" d="M145.07,54.579c0.121-0.072,0.376-0.022,0.556,0.009
	c0.179,0.031,0.281,0.043,0.367,0.044c0.086,0.002,0.157-0.005,0.232,0.011c0.075,0.017,0.154,0.058,0.225,0.096
	c0.07,0.037,0.133,0.071,0.169,0.12c0.037,0.049,0.047,0.114,0.092,0.168c0.044,0.053,0.124,0.096,0.251,0.108
	c0.127,0.012,0.301-0.006,0.402,0.098c0.103,0.103,0.133,0.328,0.141,0.51c0.008,0.182-0.005,0.322-0.023,0.439
	c-0.019,0.116-0.041,0.209-0.123,0.314s-0.225,0.224-0.382,0.269c-0.158,0.045-0.332,0.019-0.434-0.071
	c-0.1-0.09-0.128-0.244-0.182-0.32c-0.055-0.076-0.134-0.074-0.231-0.079c-0.097-0.005-0.212-0.018-0.301-0.09
	c-0.089-0.072-0.15-0.205-0.258-0.292c-0.106-0.088-0.257-0.132-0.354-0.197c-0.098-0.064-0.141-0.151-0.17-0.268
	c-0.03-0.116-0.046-0.262-0.062-0.432C144.967,54.847,144.95,54.652,145.07,54.579L145.07,54.579z"/>
<path fill-rule="evenodd" clip-rule="evenodd" fill="#FFA500" d="M99.262,140.11c0.103-0.118,0.25-0.059,0.354-0.014
	c0.103,0.042,0.163,0.073,0.251,0.119c0.088,0.043,0.207,0.103,0.281,0.19c0.073,0.089,0.103,0.206,0.205,0.34
	c0.104,0.132,0.282,0.281,0.415,0.414c0.132,0.133,0.221,0.249,0.28,0.383c0.059,0.133,0.088,0.28,0.088,0.428
	s-0.029,0.295-0.103,0.385c-0.075,0.086-0.192,0.117-0.326,0.133c-0.133,0.014-0.28,0.014-0.413,0
	c-0.132-0.016-0.251-0.047-0.31-0.133c-0.059-0.09-0.059-0.237-0.118-0.37c-0.06-0.133-0.178-0.252-0.281-0.37
	c-0.103-0.119-0.192-0.236-0.28-0.367c-0.089-0.134-0.177-0.281-0.192-0.503C99.1,140.523,99.159,140.229,99.262,140.11
	L99.262,140.11z"/>
<path fill-rule="evenodd" clip-rule="evenodd" fill="#FFA500" d="M125.658,150.78c-0.108,0-0.21,0.057-0.298,0.096
	c-0.088,0.039-0.162,0.059-0.223,0.113c-0.061,0.053-0.109,0.142-0.168,0.237s-0.126,0.197-0.198,0.273
	c-0.07,0.076-0.144,0.123-0.212,0.168c-0.069,0.045-0.132,0.082-0.181,0.137c-0.049,0.053-0.083,0.121-0.116,0.213
	c-0.031,0.09-0.06,0.201-0.131,0.311c-0.071,0.107-0.184,0.211-0.261,0.295c-0.08,0.086-0.124,0.152-0.166,0.236
	c-0.041,0.084-0.08,0.182-0.124,0.297c-0.044,0.115-0.093,0.248-0.098,0.379c-0.005,0.133,0.034,0.266,0.105,0.338
	c0.071,0.078,0.173,0.096,0.288,0.025s0.242-0.23,0.339-0.363c0.098-0.131,0.166-0.234,0.267-0.299
	c0.1-0.068,0.231-0.098,0.371-0.143c0.139-0.047,0.286-0.109,0.398-0.256c0.112-0.145,0.19-0.369,0.293-0.531
	c0.103-0.16,0.229-0.258,0.34-0.4c0.109-0.141,0.203-0.326,0.217-0.498c0.015-0.174-0.049-0.336-0.137-0.45
	C125.877,150.847,125.765,150.784,125.658,150.78L125.658,150.78z"/>
<path fill-rule="evenodd" clip-rule="evenodd" fill="#FFA500" d="M102.159,147.067c-0.119-0.061-0.297-0.146-0.461-0.162
	c-0.165-0.016-0.318,0.039-0.464,0.164c-0.147,0.127-0.287,0.322-0.382,0.545c-0.094,0.223-0.144,0.473-0.159,0.721
	c-0.015,0.246,0.003,0.49,0.009,0.723c0.006,0.23,0,0.453-0.002,0.7c-0.003,0.246-0.003,0.521,0.049,0.696
	c0.052,0.174,0.155,0.248,0.256,0.291c0.101,0.043,0.199,0.055,0.314,0.029c0.116-0.023,0.251-0.086,0.458-0.219
	c0.208-0.137,0.489-0.342,0.69-0.479c0.201-0.139,0.324-0.205,0.477-0.25c0.153-0.041,0.336-0.061,0.464-0.143
	s0.202-0.229,0.211-0.348s-0.046-0.209-0.071-0.35c-0.023-0.141-0.018-0.333,0.007-0.504c0.024-0.174,0.067-0.334-0.019-0.481
	c-0.086-0.146-0.299-0.281-0.51-0.412c-0.211-0.131-0.419-0.258-0.553-0.34C102.339,147.165,102.277,147.127,102.159,147.067
	L102.159,147.067z"/>
<path fill-rule="evenodd" clip-rule="evenodd" fill="#FFA500" d="M170.534,154.346c0.113-0.037,0.171-0.084,0.186-0.188
	c0.014-0.102-0.015-0.262-0.087-0.4c-0.069-0.137-0.184-0.25-0.315-0.365c-0.133-0.113-0.281-0.229-0.408-0.359
	c-0.126-0.131-0.228-0.283-0.334-0.402c-0.105-0.119-0.214-0.211-0.338-0.262c-0.121-0.053-0.258-0.064-0.358-0.012
	c-0.101,0.051-0.163,0.166-0.209,0.291c-0.045,0.125-0.074,0.266-0.074,0.428s0.029,0.352,0.128,0.514
	c0.101,0.164,0.272,0.301,0.432,0.408c0.161,0.109,0.309,0.188,0.46,0.258c0.151,0.068,0.307,0.125,0.471,0.139
	C170.248,154.41,170.419,154.381,170.534,154.346L170.534,154.346z"/>
<path fill-rule="evenodd" clip-rule="evenodd" fill="#FFA500" d="M192.14,149.232c-0.127-0.043-0.183-0.043-0.267,0.035
	c-0.082,0.076-0.194,0.232-0.268,0.368c-0.072,0.133-0.106,0.246-0.135,0.406c-0.027,0.162-0.049,0.374-0.065,0.551
	c-0.018,0.178-0.029,0.322-0.029,0.464c0,0.139,0.012,0.271-0.005,0.422c-0.016,0.15-0.061,0.318-0.089,0.43
	c-0.027,0.109-0.038,0.166,0.039,0.178c0.078,0.012,0.245-0.023,0.357-0.09s0.168-0.166,0.2-0.283
	c0.033-0.117,0.044-0.25,0.121-0.379c0.079-0.129,0.224-0.25,0.347-0.351c0.122-0.102,0.223-0.18,0.288-0.279
	c0.068-0.102,0.102-0.223,0.122-0.379c0.023-0.156,0.035-0.344,0.019-0.494c-0.019-0.15-0.062-0.262-0.185-0.362
	C192.469,149.367,192.268,149.279,192.14,149.232L192.14,149.232z"/>
<path fill-rule="evenodd" clip-rule="evenodd" fill="#FFA500" d="M193.725,142.949c0.006,0.155,0.052,0.348,0.143,0.524
	c0.091,0.178,0.227,0.338,0.398,0.485c0.172,0.15,0.375,0.285,0.577,0.336c0.198,0.053,0.393,0.018,0.53-0.016
	c0.137-0.035,0.215-0.068,0.296-0.148c0.08-0.08,0.158-0.205,0.194-0.33c0.033-0.125,0.022-0.252-0.074-0.348
	c-0.098-0.098-0.279-0.166-0.399-0.258c-0.119-0.09-0.178-0.206-0.206-0.375s-0.028-0.4-0.068-0.592
	c-0.039-0.195-0.12-0.354-0.233-0.451c-0.114-0.098-0.263-0.131-0.377-0.08c-0.113,0.051-0.193,0.188-0.263,0.348
	c-0.067,0.16-0.126,0.342-0.198,0.434c-0.074,0.092-0.166,0.092-0.229,0.148S193.718,142.794,193.725,142.949L193.725,142.949z"/>
<g>
	<path fill="#FFFFFF" d="M55.438,198.443v-11.824c0-0.246,0.089-0.455,0.266-0.625c0.177-0.172,0.389-0.258,0.636-0.258h10.95
		c0.247,0,0.457,0.09,0.631,0.266c0.174,0.178,0.261,0.391,0.261,0.637v0.893c0,0.248-0.087,0.457-0.261,0.633
		c-0.174,0.174-0.385,0.26-0.631,0.26h-8.272v2.764h7.123c0.247,0,0.458,0.088,0.632,0.262c0.174,0.174,0.261,0.385,0.261,0.631
		v0.893c0,0.248-0.087,0.459-0.261,0.633c-0.174,0.174-0.385,0.26-0.632,0.26h-7.123v2.803h8.253c0.24,0,0.446,0.084,0.617,0.256
		s0.256,0.381,0.256,0.627v0.912c0,0.246-0.089,0.457-0.266,0.631s-0.389,0.262-0.636,0.262H56.34c-0.247,0-0.459-0.088-0.636-0.262
		S55.438,198.703,55.438,198.443z"/>
	<path fill="#FFFFFF" d="M69.151,192.451c0-2.412,0.649-4.182,1.947-5.309c1.298-1.127,3.205-1.691,5.722-1.691
		s4.416,0.535,5.698,1.605s1.923,2.803,1.923,5.195c0,1.266-0.247,2.297-0.741,3.096c-0.348,0.576-0.722,1.088-1.121,1.539h1.51
		c0.259,0,0.475,0.086,0.646,0.26s0.257,0.385,0.257,0.633v0.777c0,0.248-0.086,0.459-0.257,0.633s-0.386,0.26-0.646,0.26h-7.294
		c-2.501,0-4.4-0.563-5.698-1.689C69.8,196.633,69.151,194.863,69.151,192.451z M76.796,196.887c2.71,0,4.065-1.545,4.065-4.635
		c0-1.438-0.32-2.502-0.959-3.195c-0.639-0.693-1.67-1.041-3.091-1.041c-1.421,0-2.457,0.377-3.105,1.131
		c-0.649,0.754-0.974,1.855-0.974,3.305s0.324,2.551,0.974,3.305C74.354,196.51,75.385,196.887,76.796,196.887z"/>
	<path fill="#FFFFFF" d="M86.161,193.971v-7.332c0-0.246,0.087-0.459,0.261-0.637c0.174-0.176,0.391-0.266,0.65-0.266h1.776
		c0.24,0,0.449,0.09,0.626,0.266c0.177,0.178,0.266,0.391,0.266,0.637v7.352c0,0.93,0.204,1.623,0.612,2.078
		c0.409,0.457,1.04,0.684,1.895,0.684h1.52c0.854,0,1.486-0.227,1.895-0.684c0.408-0.455,0.612-1.148,0.612-2.078v-7.352
		c0-0.246,0.087-0.459,0.261-0.637c0.174-0.176,0.385-0.266,0.631-0.266h1.767c0.26,0,0.478,0.09,0.655,0.266
		c0.177,0.178,0.266,0.391,0.266,0.637v7.332c0,1.734-0.51,3.078-1.529,4.031c-1.019,0.953-2.507,1.43-4.463,1.43h-1.709
		c-1.963,0-3.452-0.477-4.468-1.43S86.161,195.705,86.161,193.971z"/>
	<path fill="#FFFFFF" d="M102.381,198.48v-11.842c0-0.246,0.089-0.459,0.266-0.637c0.177-0.176,0.389-0.266,0.636-0.266h1.767
		c0.259,0,0.476,0.09,0.65,0.266c0.174,0.178,0.261,0.391,0.261,0.637v11.824c0,0.246-0.09,0.457-0.271,0.631
		c-0.181,0.174-0.395,0.262-0.641,0.262h-1.767c-0.247,0-0.459-0.084-0.636-0.252S102.381,198.729,102.381,198.48z"/>
	<path fill="#FFFFFF" d="M108.687,198.463v-11.824c0-0.246,0.085-0.459,0.256-0.637c0.171-0.176,0.38-0.266,0.627-0.266h7.246
		c3.831,0,5.746,1.766,5.746,5.295s-1.915,5.295-5.746,5.295h-4.549v2.137c0,0.246-0.087,0.457-0.261,0.631
		c-0.174,0.174-0.385,0.262-0.631,0.262h-1.786c-0.247,0-0.459-0.088-0.636-0.262S108.687,198.709,108.687,198.463z
		 M112.268,193.639h3.466c1.063,0,1.871-0.18,2.422-0.537s0.826-1.047,0.826-2.07c0-1.021-0.275-1.713-0.826-2.07
		s-1.358-0.537-2.422-0.537h-3.466V193.639z"/>
	<path fill="#FFFFFF" d="M124.31,198.443v-11.824c0-0.246,0.089-0.455,0.266-0.625c0.177-0.172,0.389-0.258,0.636-0.258h10.95
		c0.247,0,0.457,0.09,0.631,0.266c0.174,0.178,0.261,0.391,0.261,0.637v0.893c0,0.248-0.087,0.457-0.261,0.633
		c-0.174,0.174-0.385,0.26-0.631,0.26h-8.272v2.764h7.123c0.247,0,0.458,0.088,0.632,0.262c0.174,0.174,0.261,0.385,0.261,0.631
		v0.893c0,0.248-0.087,0.459-0.261,0.633c-0.174,0.174-0.385,0.26-0.632,0.26h-7.123v2.803h8.253c0.24,0,0.446,0.084,0.617,0.256
		s0.256,0.381,0.256,0.627v0.912c0,0.246-0.089,0.457-0.266,0.631s-0.389,0.262-0.636,0.262h-10.902
		c-0.247,0-0.459-0.088-0.636-0.262S124.31,198.703,124.31,198.443z"/>
	<path fill="#FFFFFF" d="M145.611,198.463v-11.824c0-0.246,0.085-0.459,0.256-0.637c0.171-0.176,0.38-0.266,0.627-0.266h7.246
		c3.83,0,5.746,1.766,5.746,5.295s-1.916,5.295-5.746,5.295h-4.549v2.137c0,0.246-0.087,0.457-0.261,0.631
		c-0.174,0.174-0.385,0.262-0.631,0.262h-1.786c-0.247,0-0.459-0.088-0.636-0.262S145.611,198.709,145.611,198.463z
		 M149.192,193.639h3.466c1.064,0,1.871-0.18,2.422-0.537s0.826-1.047,0.826-2.07c0-1.021-0.275-1.713-0.826-2.07
		s-1.357-0.537-2.422-0.537h-3.466V193.639z"/>
	<path fill="#FFFFFF" d="M161.234,198.463v-11.824c0-0.246,0.088-0.459,0.266-0.637c0.177-0.176,0.396-0.266,0.655-0.266h1.767
		c0.247,0,0.457,0.09,0.631,0.266c0.175,0.178,0.262,0.391,0.262,0.637v4.273h6.534v-4.273c0-0.246,0.088-0.459,0.266-0.637
		c0.177-0.176,0.39-0.266,0.636-0.266h1.767c0.26,0,0.477,0.09,0.65,0.266c0.175,0.178,0.262,0.391,0.262,0.637v11.824
		c0,0.246-0.091,0.457-0.271,0.631c-0.181,0.174-0.395,0.262-0.642,0.262h-1.767c-0.246,0-0.459-0.084-0.636-0.252
		c-0.178-0.168-0.266-0.375-0.266-0.623V193.6h-6.534v4.881c0,0.248-0.087,0.455-0.262,0.623c-0.174,0.168-0.384,0.252-0.631,0.252
		h-1.767c-0.247,0-0.462-0.088-0.646-0.262S161.234,198.709,161.234,198.463z"/>
	<path fill="#FFFFFF" d="M190.222,197.945c-1.294,1.137-3.193,1.703-5.697,1.703c-2.505,0-4.405-0.566-5.703-1.703
		s-1.947-2.936-1.947-5.398s0.649-4.262,1.947-5.395s3.198-1.701,5.703-1.701c2.504,0,4.403,0.568,5.697,1.701
		c1.295,1.133,1.942,2.932,1.942,5.395S191.517,196.809,190.222,197.945z M187.625,189.156c-0.64-0.76-1.674-1.141-3.101-1.141
		c-1.428,0-2.464,0.381-3.105,1.141c-0.644,0.76-0.965,1.891-0.965,3.395s0.321,2.633,0.965,3.391
		c0.642,0.756,1.678,1.135,3.105,1.135c1.427,0,2.461-0.379,3.101-1.135c0.639-0.758,0.959-1.887,0.959-3.391
		S188.264,189.916,187.625,189.156z"/>
	<path fill="#FFFFFF" d="M194.113,198.443v-11.824c0-0.246,0.088-0.455,0.266-0.625c0.177-0.172,0.39-0.258,0.637-0.258h10.949
		c0.247,0,0.458,0.09,0.632,0.266c0.174,0.178,0.261,0.391,0.261,0.637v0.893c0,0.248-0.087,0.457-0.261,0.633
		c-0.174,0.174-0.385,0.26-0.632,0.26h-8.271v2.764h7.123c0.246,0,0.457,0.088,0.631,0.262s0.262,0.385,0.262,0.631v0.893
		c0,0.248-0.088,0.459-0.262,0.633s-0.385,0.26-0.631,0.26h-7.123v2.803h8.253c0.24,0,0.446,0.084,0.617,0.256
		s0.256,0.381,0.256,0.627v0.912c0,0.246-0.088,0.457-0.266,0.631c-0.177,0.174-0.39,0.262-0.636,0.262h-10.902
		c-0.247,0-0.46-0.088-0.637-0.262C194.201,198.92,194.113,198.703,194.113,198.443z"/>
	<path fill="#FFFFFF" d="M208.605,198.463v-11.824c0-0.246,0.085-0.459,0.256-0.637c0.171-0.176,0.38-0.266,0.627-0.266h2.792
		c0.222,0,0.456,0.09,0.703,0.266c0.247,0.178,0.449,0.391,0.607,0.637l5.736,8.822v-8.842c0-0.246,0.087-0.455,0.261-0.625
		c0.175-0.172,0.385-0.258,0.632-0.258h1.634c0.247,0,0.457,0.086,0.632,0.258c0.174,0.17,0.261,0.385,0.261,0.645v11.824
		c0,0.246-0.087,0.457-0.261,0.631c-0.175,0.174-0.385,0.262-0.632,0.262H218.7c-0.247,0-0.5-0.088-0.76-0.262
		s-0.465-0.385-0.617-0.631l-5.252-8.148v8.148c0,0.246-0.087,0.457-0.261,0.631c-0.175,0.174-0.385,0.262-0.632,0.262h-1.671
		c-0.247,0-0.46-0.088-0.637-0.262C208.693,198.92,208.605,198.709,208.605,198.463z"/>
	<path fill="#FFFFFF" d="M225.471,198.48v-11.842c0-0.246,0.088-0.459,0.266-0.637c0.177-0.176,0.39-0.266,0.637-0.266h1.766
		c0.26,0,0.477,0.09,0.65,0.266c0.175,0.178,0.262,0.391,0.262,0.637v11.824c0,0.246-0.09,0.457-0.271,0.631
		s-0.395,0.262-0.642,0.262h-1.766c-0.247,0-0.46-0.084-0.637-0.252C225.559,198.936,225.471,198.729,225.471,198.48z"/>
	<path fill="#FFFFFF" d="M231.14,199.355c-0.316,0-0.494-0.143-0.532-0.428c0-0.139,0.067-0.295,0.2-0.465l4.786-6.107l-4.511-5.717
		c-0.133-0.164-0.199-0.318-0.199-0.465c0-0.291,0.174-0.438,0.521-0.438h2.042c0.633,0,1.188,0.301,1.662,0.902l2.603,3.305
		l2.602-3.305c0.469-0.594,1.022-0.895,1.662-0.902h2.042c0.348,0,0.522,0.146,0.522,0.438c0,0.139-0.066,0.295-0.199,0.465
		l-4.512,5.717l4.787,6.107c0.133,0.164,0.199,0.297,0.199,0.398s-0.013,0.174-0.038,0.219c-0.069,0.184-0.234,0.275-0.494,0.275
		h-2.022c-0.633,0-1.185-0.299-1.652-0.893l-2.896-3.695l-2.896,3.695c-0.469,0.594-1.02,0.893-1.653,0.893H231.14z"/>
</g>
<g>
</g>
<g>
</g>
<g>
</g>
<g>
</g>
<g>
</g>
<g>
</g>
<g>
</g>
<g>
</g>
<g>
</g>
<g>
</g>
<g>
</g>
<g>
</g>
<g>
</g>
<g>
</g>
<g>
</g>
</svg>
