<?xml version="1.0" encoding="utf-8"?>
<!-- Generator: Adobe Illustrator 19.0.0, SVG Export Plug-In . SVG Version: 6.00 Build 0)  -->
<svg version="1.1" id="Layer_1" xmlns="http://www.w3.org/2000/svg" xmlns:xlink="http://www.w3.org/1999/xlink" x="0px" y="0px"
	 viewBox="0 0 500 500" style="enable-background:new 0 0 500 500;" xml:space="preserve">
<style type="text/css">
	.st0{display:none;fill:#FFFFFF;}
	.st1{fill:#393E45;}
	.st2{fill:#EF404D;}
</style>
<path id="XMLID_14_" class="st0" d="M419.6,81v39.8H260.2V81H419.6z M419.6,140.7v39.8H260.2v-39.8H419.6z M419.6,200.4v39.8H260.2
	v-39.8H419.6z"/>
<g id="XMLID_2_">
	<path id="XMLID_18_" class="st1" d="M240,240H80V80h40v120h80V80h40V240z"/>
	<path id="XMLID_7_" class="st1" d="M80,260h160v40H80V260z M80,360v-40h160v100H80v-40h120v-20H80z"/>
	<path id="XMLID_5_" class="st1" d="M260,420V260h40v120h120v40H260z"/>
	<g id="XMLID_3_">
		<path id="XMLID_10_" class="st1" d="M420,80v40H260V80H420z M359.7,140v40H260v-40H359.7z M420,200v40H260v-40H420z"/>
		<polygon id="XMLID_4_" class="st2" points="420,180.2 379.8,180.2 379.8,140 420,140 		"/>
	</g>
</g>
</svg>
