<?xml version="1.0" encoding="utf-8"?>
<!-- Generator: Adobe Illustrator 16.0.0, SVG Export Plug-In . SVG Version: 6.00 Build 0)  -->
<!DOCTYPE svg PUBLIC "-//W3C//DTD SVG 1.1//EN" "http://www.w3.org/Graphics/SVG/1.1/DTD/svg11.dtd">
<svg version="1.1" id="Layer_1" xmlns="http://www.w3.org/2000/svg" xmlns:xlink="http://www.w3.org/1999/xlink" x="0px" y="0px"
	 width="300.074px" height="298.861px" viewBox="0 0 300.074 298.861" enable-background="new 0 0 300.074 298.861"
	 xml:space="preserve">
<g>
	<path fill-rule="evenodd" clip-rule="evenodd" fill="#71706E" d="M120.233,156.725c0.84,0,1.521,1.521,1.521,3.399
		c0,1.876-0.681,3.397-1.521,3.397c-0.839,0-1.521-1.521-1.521-3.397C118.712,158.246,119.394,156.725,120.233,156.725
		L120.233,156.725z"/>
	<path fill-rule="evenodd" clip-rule="evenodd" fill="#000001" d="M150.037,0C67.173,0,0,66.902,0,149.431
		c0,82.527,67.173,149.431,150.037,149.431c82.861,0,150.037-66.903,150.037-149.431C300.074,66.902,232.898,0,150.037,0z
		 M49.887,107.021c1.209,3.321,2.913,6.472,5.724,9.05c2.708,2.484,9.057,6.579,1.424,6.084c-3.889-0.252-7.443-2.218-10.778-5.314
		C47.311,113.495,48.523,110.218,49.887,107.021z M45.972,117.783c0.889,5.498,2.338,10.393,3.131,12.078
		c0.884,1.878,1.804,5.389,4.175,7.573c3.268,3.011,3.345,3.978-1.974,3.463c-3.265-0.316-6.479-0.996-9.475-2.149
		C42.518,131.528,43.92,124.516,45.972,117.783z M149.818,256.709c-55.179,0-100.733-40.901-107.588-93.833
		c2.352,2.384,4.381,4.122,5.871,4.78c-0.507,6.862,0.506,14.41,5.178,20.583c1.683,10.856,7.702,15.333,16.635,15.469
		c1.944,0.03,3.579-0.354,4.919-1.035c13.546,28.077,34.761,43.505,62.6,46.527c11.025,1.197,24.43-4.792,41.353-10.667
		l52.257-18.143C211.168,242.664,182.147,256.709,149.818,256.709z M184.159,60.275c-23.216-8.994-39.289-14.889-47.639-14.11
		c-27.98,2.612-52.81,22.655-65.892,55.795c-3.335,8.448-5.455,10.183-9.061,3.884c-1.711-2.988-3.924-5.993-6.722-8.917
		c18.491-33.168,54.087-55.627,94.973-55.627c32.927,0,62.423,14.567,82.318,37.562L184.159,60.275z"/>
	<path fill-rule="evenodd" clip-rule="evenodd" fill="#ED1C24" d="M197.502,204.071c7.546-11.963,11.701-30.84,12.425-57.09
		c-3.176-1.304-3.494-2.6-0.517-3.884c-0.609-17.949-4.311-34.523-11.133-49.71c-5.405,1.209-5.989-0.604-2.591-4.919
		c-12.8-22.192-29.788-37.406-56.053-37.153c-1.607,2.552-2.925,2.324-4.014-0.129c-29.96,1.131-47.627,20.354-59.289,48.416
		c8.2-6.482,16.667-12.162,23.306-19.416c7.42-8.109,18.673-8.418,29.581-1.942c4.006,2.378,5.948,1.245,8.544-1.877
		c1.833-2.205,3.93-3.758,6.019-4.984c-0.14,5.971-1.66,11.254-4.66,15.729c-2.294,3.422-7.935,7.283-10.227,8.673
		c5.904,2.239,13.192,3.243,22.205,2.848c6.177-0.27,12.1-2.143,17.675-6.342c0.063,8.124-4.03,14.413-11.456,16.797
		c-6.063,1.946-14.408,1.731-24.271,1.458c11.343,7.002,21.928,14.026,31.847,21.07c7.205,1.355,13.844,3.433,20.52,5.373
		c6.69,1.944,8.095,2.791,1.779,4.499c-2.947,0.797-5.794,1.35-8.654,1.93c-1.711,0.347-3.374,0.691-4.885,1.447
		c-7.536,3.769-15.097,6.956-22.98,8.696c-8.389,1.851-9.611,3.782-2.027,8.406c8.022,4.891,14.827,10.858,20.828,16.907
		c1.882,1.896,4.93,4.248,7.167,5.899c2.68,1.977,2.765,3.481-0.349,3.085c-1.858-0.238-3.717-0.476-5.575-0.714
		c-1.746-0.348-3.723-0.464-5.89-0.128c-3.404,0.524-6.896,0.384-11.359,0.548c-5.514,0.205-5.772,1.953-0.907,4.532
		c5.169,2.74,7.308,7.51,7.313,12.622c0.006,5.918-0.224,9.771,3.462,13.624c3.488,3.646,1.075,7.847-4.309,10.877
		c-4.678,2.06-9.738,2.984-15.019,2.913c-3.129-0.043-6.714-1.149-10.569-4.028c-2.841-2.123-5.866-3.299-9.791-2.92
		c-3.341,0.324-7.152-0.171-10.746-2.458c-3.286-2.089-5.31-3.446-6.86-3.49c-3.314-0.095-6.29-2.077-8.868-5.372
		c-3.042-3.888-6.149-7.873-10.098-11.263c-4.221-3.625-6.761-3.146-8.037-0.736c10.468,23.969,36.419,44.15,58.01,42.86
		c1.903-3.711,3.663-3.497,5.307-0.13c21.141-3.374,39.573-12.589,51.908-34.955C191.635,203.669,192.193,201.236,197.502,204.071z"
		/>
	<path fill-rule="evenodd" clip-rule="evenodd" fill="#71706E" d="M142.797,224.796c6.285-2.41,12.009-5.161,16.57-8.607
		c3.742,3.111,4.987,7.513,0.646,9.839C154.297,229.091,148.002,227.517,142.797,224.796L142.797,224.796z M126.932,201.064
		c-2.668,7.528-5.709,14.781,2.219,16.655c3.481,0.822,7.125,2.497,11.521,2.914c4.099,0.387,6.875-0.598,7.749-2.74
		c0.34-0.835,1-1.776,2.482-2.188c1.543-0.428,2.024-1.17,1.754-3.093l-1.058-7.522c-0.16-1.68,0.217-1.435,1.288-3.443
		c1.551-2.909,0.491-7.358-5.992-9.481c-9.569-3.133-5.945-4.272-0.033-5.664c2.616-0.613,8.674-1.323,11.638-1.308
		c6.707,0.039,7.42-1.758-0.47-5.36c-8.458-3.557-17.322-3.239-25.373,3.235c-6.216,4.999-6.638,8.261-5.34,10.259
		C128.916,195.793,127.902,198.484,126.932,201.064L126.932,201.064z M61.518,172.111c-6.966-0.242-10.334,1.12-10.1,5.024
		c0.139,2.332,1.084,4.852,3.775,6.809c1.158,0.843,2.144,1.44,2.238,2.77c0.157,2.224,0.086,3.23,0.543,4.892
		c0.834,3.032,4.042,6.823,9.311,7.488c3.478,0.44,7.819-0.82,10.737-2.88c2.571-1.815,5.151-1.18,7.832-0.318
		c2.247,0.725,5.262,0.788,8.716,0.476c0.176-2.683,0.559-5.482,3.472-6.838l10.078-4.684c5.604-2.604,7.702-5.156,8.026-10.398
		c0.495-8.014,1.041-15.726,1.737-25.833c0.305-4.427,0.964-4.045,2.381,1.375c1.026,3.928,2.496,0.43,2.276-1.909
		c-0.22-2.341-0.832-2.572-1.268-4.636c-0.483-2.28,0.728-3.25,2.458-4.691c1.328-1.106,2.198-5.759,1.993-12.551
		c0.229-2.625,0.327-5.439,1.882-8.103c0.846-1.452,2.098-3.091,2.89-3.84c0.637-0.602,1.034,0.3,1.101,1.457
		c0.964,16.565,2.208,33.002,5.184,48.317c0.484,2.492,0.468,4.343-0.925,5.457c-3.188,2.553-4.445,4.427-6.719,8.035
		c-1.539,2.442-0.168,2.934,2.541,2.245c3.372-0.854,6.576-3.063,9.977-5.046c2.851-2.52,6.667-3.226,10.655-1.186
		c3.512,1.797,7.162,2.551,10.614,3.106c-3.067-3.101-7.443-6.366-13.549-10.269c-3.855-2.466-7.35-5.796-10.788-9.408
		c5.532-3.873,12.429-7.615,21.318-10.27c3.659-1.094,7.42-1.989,10.872-3.625c5.134-2.43,4.297-5.042-0.517-7.076
		c-20.215-8.547-34.578-18.109-42.59-28.739c7.747,0.889,15.627,1.239,23.604,1.208l-5.221-7.725
		c-11.233-0.623-18.931-1.261-21.879-4.186c4.161-3.144,7.318-5.63,9.409-7.509c-8.384-13.623-22.747-14.613-34.262-2.244
		c-2.667,2.25-5.484,4.25-5.696,7.508c-0.09,1.389-0.669,2.613-3.193,3.539c-1.24,0.454-4.316,2.296,0,2.589
		c11.715,0.794,9.066,4.717-1.641,6.645c-6.233,1.123-9.448,1.988-10.294,6.723c-0.227,1.262-1.593,4.551-3.521,5.441
		c-2.941,1.356-3.5,2.673-4.547,5.735c5.431,1.585,6.704,2.839,3.677,5.287c-1.64,0.665-1.629,4.609-0.876,8.929
		c0.58,3.329,0.204,6.251-0.662,9.558C68.659,163.693,65.625,168.661,61.518,172.111L61.518,172.111z"/>
	<path fill-rule="evenodd" clip-rule="evenodd" fill="#000001" d="M102.333,103.145c-0.383,2.578,1.596,2.769,2.979,1.254
		c1.403-1.536,1.537-1.296,3.494,0.428c2.864,2.523,1.703,2.47,0.193,3.754c-4.106,3.498-4.325,5.812-0.193,7.25
		c3.247,1.13,5.124,4.013,6.084,7.896c0.692,2.788,1.898,5.094,3.302,7.185c-1.124-2.573-2.024-5.203-1.554-7.832
		c0.817-4.557,1.874-8.229-2.395-8.091c-1.279,0.041-2.095-0.622-2.783-1.165c-1.451-1.147-1.081-1.481,1.359-3.171
		c4.787-3.317,6.993-9.891,5.793-19.321c-0.604-4.751-1.155-7.613-0.84-8.868c-1.409,2.932-3.491,5.355-6.587,7.148
		c-2.606,1.509-5.17,5.135-6.898,8.002C103.514,98.899,102.689,100.757,102.333,103.145L102.333,103.145z"/>
	<path fill-rule="evenodd" clip-rule="evenodd" fill="#000001" d="M86.553,145.79l2.978-2.039c-0.325,0.562-0.366,1.359-0.906,1.715
		C88.042,145.851,87.243,145.683,86.553,145.79L86.553,145.79z"/>
	<path fill-rule="evenodd" clip-rule="evenodd" fill="#000001" d="M80.049,163.168c4.391-8.072,12.335-15.019,21.813-20.841
		c-4.154,3.098-7.678,5.899-10.228,8.48c3.336-0.827,6.989-1.019,10.843-0.809c-3.475,5.168-6.157,9.126-10.276,9.967
		c-1.83,0.372-1.965,2.594-4.514,0.681c-0.807-0.608-1.307-0.375-2.758,1.55C84.215,163.143,82.412,163.336,80.049,163.168
		L80.049,163.168z"/>
	<path fill-rule="evenodd" clip-rule="evenodd" fill="#000001" d="M110.32,153.205l-6.082,6.023
		c-2.041,2.022,1.847,4.774,5.348,2.166l5.686-4.239c-1.428,0.166-2.712,0.045-3.806-0.058c-1.053-0.099-1.508-0.061-1.619-0.84
		C109.732,155.444,109.705,154.472,110.32,153.205L110.32,153.205z"/>
	<path fill-rule="evenodd" clip-rule="evenodd" fill="#000001" d="M66.453,185.762c-1.339,1.779-1.665,3.15,0.129,4.985
		c3.813,3.212,2.517,1.272,4.498-1.102c1.647-1.971,4.368-0.923,0.292-3.819C67.797,183.287,67.872,183.877,66.453,185.762
		L66.453,185.762z"/>
	<path fill-rule="evenodd" clip-rule="evenodd" fill="#FFFFFF" d="M89.846,153.984c3.495,0.574,3.795,2.475,3.494,4.602
		c3.231-1.512,6.358-4.619,7.174-7.511C96.596,150.748,92.554,152.067,89.846,153.984L89.846,153.984z"/>
	<path fill-rule="evenodd" clip-rule="evenodd" fill="#000001" d="M89.143,188.228c-0.112-4.44-1.049-6.552,2.762-9.628l6.328-6.051
		c3.272-2.803,7.521-3.487,13.382-1.197c3.213,1.253,1.663,3.539-2.266,5.372c-4.013,1.872-7.982,4.362-11.909,7.443
		c-1.883,1.479-2.868,3.664-4.014,5.631C91.451,193.193,89.309,194.694,89.143,188.228L89.143,188.228z"/>
	<path fill-rule="evenodd" clip-rule="evenodd" fill="#FFFFFF" d="M90,182.136l-0.13,2.588l2.653-1.683
		c2.812-1.781,3.066-1.468,2.163-3.461l-0.776-1.714C92.979,179.073,90.023,181.645,90,182.136L90,182.136z"/>
	<path fill-rule="evenodd" clip-rule="evenodd" fill="#FFFFFF" d="M95.137,176.657c0.171,1.487,0.454,2.598,0.971,3.139l2.46-1.278
		c0.721-0.375,1.995-2.028,1.729-3.21c-0.498-2.198-0.939-2.577-2.802-0.845L95.137,176.657L95.137,176.657z"/>
	<path fill-rule="evenodd" clip-rule="evenodd" fill="#FFFFFF" d="M100.704,174.439c-0.571-1.216-0.121-2.194,2.492-2.849
		c1.676-0.419,2.495-0.089,2.994,0.615c1.234,1.418,0.625,1.957-2.216,2.864l-2.687,0.858L100.704,174.439L100.704,174.439z"/>
	<path fill-rule="evenodd" clip-rule="evenodd" fill="#FFFFFF" d="M90.163,185.646l-0.186,2.636c0.144,1.449,0.9,1.389,1.91,0.341
		l3.787-3.934c0.188-1.18,0.183-2.231-0.145-3.066C93.579,183.467,91.85,184.805,90.163,185.646L90.163,185.646z"/>
	<path fill-rule="evenodd" clip-rule="evenodd" fill="#FFFFFF" d="M96.503,180.423c1.833-0.917,3.495-2.028,4.984-3.334
		c0.732,0.11,1.929,0.927,1.748,1.101c-1.697,1.628-3.242,2.711-5.632,3.932c-0.557,0.284-0.703,0.365-0.841-0.356L96.503,180.423
		L96.503,180.423z"/>
	<path fill-rule="evenodd" clip-rule="evenodd" fill="#FFFFFF" d="M102.758,176.497c2.012-0.843,3.565-1.638,5.048-2.33l1.01,0.945
		c-1.3,0.824-2.725,1.536-4.24,2.168C104.326,177.456,102.588,176.588,102.758,176.497L102.758,176.497z"/>
	<path fill-rule="evenodd" clip-rule="evenodd" fill="#FFFFFF" d="M106.619,171.336l0.901,1.547l1.894,0.242
		c0.361,0.081,0.075-1.505-0.13-1.602C108.399,171.251,107.504,171.178,106.619,171.336L106.619,171.336z"/>
	<path fill-rule="evenodd" clip-rule="evenodd" fill="#FFFFFF" d="M109.463,173.396l-0.042,0.874
		c0.627,0.075,1.24,0.077,1.845,0.023c0.057-0.294,0.049-0.6-0.023-0.913C110.7,173.334,110.104,173.343,109.463,173.396
		L109.463,173.396z"/>
	<path fill-rule="evenodd" clip-rule="evenodd" fill="#FFFFFF" d="M26.694,134.313c6.365,14.728,16.333,26.119,29.385,34.435
		c2.842,1.811,4.649,1.495,6.085-0.777c4.747-7.511,6.064-14.669,8.672-22.266C57.889,148.089,43.093,144.011,26.694,134.313
		L26.694,134.313z M48.766,122.144c3.637,9.05,9.989,15.28,18.964,18.836c2.067,0.818,3.525,0.69,3.302-1.036
		c-0.639-4.946-0.558-8.937,1.876-11.263C65.055,129.783,56.966,126.911,48.766,122.144L48.766,122.144z"/>
	<path fill-rule="evenodd" clip-rule="evenodd" fill="#000001" d="M60.024,166.372c-8.046-4.906-14.889-11.17-21.619-17.606
		c4.61,5.984,9.215,11.147,14.11,15.274c2.085,1.758,3.102,2.709,5.656,3.144C59.399,167.393,60.827,166.859,60.024,166.372
		L60.024,166.372z M63.174,159.306c1.115,0.197,0.884,2.117-0.366,1.661c-2.611-0.953-4.239-2.734-5.825-4.629
		C59.764,158.349,61.79,159.061,63.174,159.306L63.174,159.306z M62.945,157.311c-5.365-1.735-9.058-4.174-13.276-7.38
		c4.851,2.862,9.03,4.251,13.974,5.769C64.823,156.063,64.225,157.726,62.945,157.311L62.945,157.311z M55.948,149.8
		c2.346,1.712,3.328,2.43,6.019,3.366c0.816,0.193,2.238,0.474,2.867-0.095c0.449-0.404,0.82-1.363-0.921-1.41
		C61.839,151.604,59.748,151.085,55.948,149.8L55.948,149.8z M35.306,142.734c3.965,3.227,6.942,5.806,11.333,6.843
		c0.764,0.18,1.694-1.34-0.617-2.096C43.712,146.724,39.711,145.195,35.306,142.734L35.306,142.734z"/>
	<path fill-rule="evenodd" clip-rule="evenodd" fill="#000001" d="M55.271,128.388c3.22,2.707,5.942,3.925,9.708,4.79
		c1.249,0.286,2.896,0.499,3.302-0.194C64.277,132.033,59.967,130.548,55.271,128.388L55.271,128.388z M59.485,132.934
		c2.584,1.331,4.946,2.347,6.926,2.815c-0.218,0.286-1.043,0.557-1.398,0.502C61.524,135.726,60.653,133.845,59.485,132.934
		L59.485,132.934z"/>
	<path fill-rule="evenodd" clip-rule="evenodd" fill="#FFFFFF" d="M202.087,89.57c12.776,4.027,26.466,5.374,42.166,9.797
		c1.487,0.418,4.429,3.585,5.19,6.449c-5.354-2.205-23.191-6.013-44.104-11.585C203.675,93.788,202.408,91.508,202.087,89.57
		L202.087,89.57z M203.406,203.748c-0.548,0.142-1.77,2.274-3.199,5.382c13.419-3.111,28.018-6.623,44.661-11.651
		c2.022-0.612,3.936-3.258,5.372-6.99C245.687,192.356,225.998,197.867,203.406,203.748L203.406,203.748z M214.344,143.485v4.304
		l44.015-0.162l0.033-4.272L214.344,143.485L214.344,143.485z"/>
	<path fill="#FFFFFF" d="M95.187,251.872l7.357,4.191l-8.09,14.197c-0.801,1.404-1.782,2.61-2.931,3.608
		c-1.153,1.004-2.463,1.704-3.935,2.108c-1.473,0.402-2.827,0.497-4.072,0.296c-1.732-0.288-3.604-1.002-5.607-2.145
		c-1.16-0.66-2.377-1.464-3.656-2.406c-1.278-0.941-2.243-1.918-2.89-2.924c-0.645-1.008-1.1-2.172-1.354-3.492
		c-0.26-1.324-0.26-2.537-0.006-3.642c0.409-1.773,0.946-3.245,1.613-4.417l8.09-14.197l7.357,4.192l-8.282,14.536
		c-0.74,1.298-0.959,2.52-0.657,3.653c0.304,1.143,1.095,2.08,2.37,2.806c1.26,0.718,2.458,0.924,3.591,0.613
		c1.124-0.308,2.065-1.124,2.818-2.444L95.187,251.872L95.187,251.872z"/>
	<polygon fill="#FFFFFF" points="101.213,256.206 108.877,258.169 115.088,275.394 118.844,260.72 126.602,262.706 119.797,289.283 
		112.04,287.296 105.866,270.166 102.13,284.759 94.41,282.782 101.213,256.206 	"/>
	<polygon fill="#FFFFFF" points="128.046,262.882 136.511,263.701 133.87,291.005 125.404,290.187 128.046,262.882 	"/>
	<path fill="#FFFFFF" d="M158.236,280.576l7.432,2.241c-0.497,2.082-1.282,3.825-2.361,5.219c-1.073,1.396-2.401,2.452-3.997,3.16
		c-1.59,0.708-3.614,1.065-6.074,1.065c-2.989,0-5.422-0.434-7.317-1.296c-1.89-0.868-3.519-2.396-4.892-4.571
		c-1.373-2.178-2.063-4.976-2.063-8.373c0-4.533,1.208-8.02,3.621-10.46c2.42-2.433,5.837-3.651,10.256-3.651
		c3.454,0,6.175,0.696,8.153,2.095c1.973,1.397,3.448,3.543,4.405,6.443l-7.471,1.653c-0.261-0.83-0.537-1.437-0.823-1.821
		c-0.479-0.643-1.059-1.142-1.744-1.487c-0.688-0.351-1.455-0.522-2.304-0.522c-1.93,0-3.404,0.773-4.425,2.311
		c-0.773,1.144-1.163,2.945-1.163,5.39c0,3.04,0.46,5.115,1.386,6.246c0.925,1.124,2.222,1.687,3.895,1.687
		c1.621,0,2.849-0.454,3.679-1.367C157.26,283.629,157.859,282.307,158.236,280.576L158.236,280.576z"/>
	<path fill="#FFFFFF" d="M184.586,283.518l-9.421,1.869l-0.474,4.703l-8.486,1.683l4.792-28.918l9.103-1.804l15.42,24.91
		l-8.707,1.726L184.586,283.518L184.586,283.518z M181.672,278.041l-4.855-9.087l-1.033,10.255L181.672,278.041L181.672,278.041z"/>
	<polygon fill="#FFFFFF" points="185.905,262.241 195.845,257.117 207.279,270.002 203.427,253.207 213.32,248.107 225.892,272.492 
		219.728,275.668 210.144,257.08 214.972,278.12 209.387,281.001 195.058,264.858 204.642,283.447 198.477,286.625 185.905,262.241 
			"/>
	<path fill="#FFFFFF" d="M213.78,248.556l11.342-8.377c2.47-1.825,4.75-2.606,6.854-2.34c2.095,0.269,3.949,1.487,5.554,3.659
		c1.647,2.229,2.265,4.473,1.849,6.718c-0.411,2.247-1.997,4.39-4.749,6.422l-3.74,2.762l6.032,8.168l-6.84,5.054L213.78,248.556
		L213.78,248.556z M227.588,252.933l1.681-1.24c1.324-0.98,2.083-1.898,2.278-2.75c0.197-0.851,0.032-1.634-0.495-2.349
		c-0.513-0.694-1.176-1.108-2-1.244c-0.818-0.143-1.87,0.262-3.154,1.209l-1.951,1.442L227.588,252.933L227.588,252.933z"/>
	<path fill="#FFFFFF" d="M17.43,204.59l-4.67-15.179c-0.777-2.527-0.746-4.662,0.089-6.399c0.834-1.74,2.176-2.896,4.026-3.465
		c1.549-0.478,3.029-0.404,4.432,0.227c0.942,0.413,1.813,1.18,2.628,2.285c-0.128-2.024,0.222-3.642,1.053-4.873
		c0.833-1.226,2.08-2.098,3.747-2.61c1.361-0.418,2.679-0.478,3.959-0.182c1.282,0.3,2.402,0.904,3.374,1.802
		c0.6,0.563,1.203,1.499,1.802,2.819c0.8,1.752,1.293,2.922,1.478,3.52l4.304,13.989L17.43,204.59L17.43,204.59z M25.209,193.258
		l-1.088-3.533c-0.388-1.265-0.881-2.081-1.466-2.442c-0.591-0.358-1.297-0.416-2.122-0.161c-0.761,0.234-1.283,0.668-1.558,1.294
		c-0.281,0.627-0.228,1.561,0.15,2.787l1.103,3.589L25.209,193.258L25.209,193.258z M35.5,190.092l-1.271-4.131
		c-0.43-1.399-0.983-2.305-1.653-2.725c-0.672-0.422-1.418-0.507-2.255-0.249c-0.775,0.239-1.311,0.711-1.607,1.423
		c-0.295,0.712-0.227,1.779,0.211,3.202l1.265,4.113L35.5,190.092L35.5,190.092z"/>
	<polygon fill="#FFFFFF" points="16.087,105.833 24.038,84.59 29.528,86.645 24.56,99.921 28.65,101.453 33.256,89.145 
		38.496,91.105 33.89,103.413 38.948,105.307 44.065,91.635 49.878,93.812 41.78,115.449 16.087,105.833 	"/>
	<polygon fill="#FFFFFF" points="52.223,47.793 58.361,41.905 77.354,61.701 71.215,67.589 52.223,47.793 	"/>
	<path fill="#FFFFFF" d="M93.115,44.768l-7.903,5.455l1.432,4.505l-7.122,4.915L72.437,31.2l7.637-5.271l24.044,16.738l-7.306,5.042
		L93.115,44.768L93.115,44.768z M88.264,40.899l-8.066-6.413l3.126,9.823L88.264,40.899L88.264,40.899z"/>
	<path fill="#FFFFFF" d="M52.245,90.416L30.441,73.768l8.572-11.226c1.588-2.081,2.983-3.54,4.18-4.361
		c1.197-0.83,2.539-1.21,4.019-1.149c1.485,0.065,2.924,0.633,4.314,1.694c1.208,0.922,2.056,1.98,2.539,3.168
		c0.491,1.187,0.659,2.44,0.513,3.767c-0.092,0.837-0.407,1.85-0.943,3.024c0.882-0.596,1.592-0.979,2.14-1.138
		c0.364-0.108,1.025-0.174,1.968-0.2c0.941-0.021,1.634,0.009,2.073,0.096l8.798,1.536l-5.812,7.613l-9.397-1.478
		c-1.211-0.202-2.079-0.222-2.61-0.064c-0.706,0.231-1.297,0.657-1.766,1.271l-0.454,0.594l8.831,6.743L52.245,90.416L52.245,90.416
		z M44.464,73.773l2.174-2.847c0.233-0.305,0.589-0.981,1.065-2.015c0.254-0.513,0.306-1.053,0.148-1.614
		c-0.154-0.567-0.467-1.031-0.943-1.396c-0.706-0.539-1.419-0.73-2.136-0.57c-0.722,0.156-1.549,0.85-2.49,2.083l-2.263,2.964
		L44.464,73.773L44.464,73.773z"/>
	<polygon fill="#FFFFFF" points="139.853,7.39 148.7,7.847 153.853,27.884 160.957,8.48 169.547,8.924 157.958,35.795 
		148.788,35.321 139.853,7.39 	"/>
	<path fill="#FFFFFF" d="M185.582,37.47l-9.095-3.085l-2.758,3.838l-8.193-2.78l18.59-22.662l8.787,2.98l0.923,29.282l-8.406-2.851
		L185.582,37.47L185.582,37.47z M185.791,31.269l0.331-10.299l-6.015,8.371L185.791,31.269L185.791,31.269z"/>
	<polygon fill="#FFFFFF" points="209.142,21.98 216.567,26.048 206.628,44.194 218.254,50.563 215.013,56.477 195.961,46.039 
		209.142,21.98 	"/>
	<path fill="#FFFFFF" d="M227.466,46.573c3.344-2.976,6.776-4.364,10.296-4.155c3.525,0.205,6.765,1.972,9.729,5.301
		c3.036,3.41,4.458,6.854,4.274,10.326c-0.187,3.477-1.935,6.681-5.229,9.615c-2.396,2.131-4.713,3.476-6.96,4.033
		c-2.249,0.557-4.482,0.45-6.69-0.313c-2.214-0.766-4.326-2.286-6.353-4.562c-2.054-2.309-3.39-4.549-4.005-6.719
		c-0.607-2.17-0.538-4.437,0.219-6.795C223.498,50.951,225.07,48.704,227.466,46.573L227.466,46.573z M233.08,52.91
		c-2.065,1.838-3.21,3.549-3.427,5.12c-0.213,1.575,0.267,3.028,1.448,4.354c1.209,1.359,2.596,2.024,4.141,1.982
		c1.553-0.041,3.469-1.079,5.763-3.121c1.926-1.715,2.985-3.359,3.181-4.926c0.195-1.576-0.298-3.025-1.487-4.361
		c-1.139-1.278-2.508-1.905-4.098-1.875C237.006,50.108,235.166,51.055,233.08,52.91L233.08,52.91z"/>
	<path fill="#FFFFFF" d="M240.347,80.019l23.057-14.863l7.652,11.872c1.418,2.201,2.318,4.007,2.683,5.413
		c0.377,1.407,0.278,2.799-0.281,4.17c-0.564,1.375-1.587,2.535-3.059,3.483c-1.276,0.824-2.559,1.262-3.839,1.313
		c-1.284,0.06-2.52-0.207-3.719-0.794c-0.756-0.371-1.603-1.011-2.525-1.913c0.263,1.032,0.381,1.829,0.345,2.398
		c-0.021,0.379-0.183,1.023-0.479,1.92c-0.298,0.892-0.563,1.532-0.794,1.917l-4.429,7.755l-5.188-8.051l4.577-8.338
		c0.602-1.071,0.915-1.881,0.947-2.434c0.021-0.743-0.178-1.442-0.597-2.092l-0.406-0.628l-9.337,6.02L240.347,80.019
		L240.347,80.019z M258.641,78.345l1.941,3.011c0.207,0.322,0.722,0.886,1.534,1.685c0.395,0.414,0.886,0.644,1.468,0.687
		c0.586,0.048,1.129-0.089,1.632-0.414c0.748-0.481,1.17-1.087,1.261-1.815c0.099-0.732-0.272-1.746-1.114-3.05l-2.021-3.135
		L258.641,78.345L258.641,78.345z"/>
	<path fill="#FFFFFF" d="M266.778,99.105c4.129-1.726,7.826-1.92,11.088-0.577c3.267,1.341,5.755,4.066,7.473,8.179
		c1.76,4.212,1.984,7.932,0.681,11.155c-1.308,3.226-4.003,5.687-8.075,7.388c-2.959,1.236-5.587,1.752-7.893,1.547
		c-2.309-0.205-4.384-1.033-6.225-2.472c-1.843-1.445-3.346-3.571-4.521-6.381c-1.192-2.851-1.725-5.404-1.601-7.657
		c0.135-2.249,0.936-4.37,2.419-6.353C261.602,101.953,263.821,100.341,266.778,99.105L266.778,99.105z M270.023,106.926
		c-2.551,1.066-4.188,2.312-4.906,3.726c-0.714,1.419-0.733,2.95-0.049,4.588c0.702,1.679,1.797,2.758,3.271,3.222
		c1.481,0.467,3.63,0.11,6.465-1.075c2.38-0.995,3.916-2.204,4.61-3.622c0.699-1.427,0.703-2.958,0.015-4.608
		c-0.661-1.579-1.752-2.618-3.266-3.107C274.65,105.554,272.601,105.85,270.023,106.926L270.023,106.926z"/>
	<path fill="#FFFFFF" d="M273.604,132.066l0.953,8.005c-1.29,0.245-2.265,0.657-2.91,1.231c-1.056,0.935-1.541,2.209-1.45,3.829
		c0.067,1.205,0.4,2.12,1.004,2.739c0.604,0.625,1.279,0.913,2.024,0.872c0.708-0.04,1.33-0.381,1.856-1.031
		c0.525-0.65,0.967-2.12,1.346-4.411c0.621-3.757,1.582-6.458,2.878-8.117c1.289-1.671,3.003-2.566,5.146-2.686
		c1.402-0.079,2.752,0.256,4.046,1.001c1.303,0.747,2.353,1.916,3.159,3.514c0.805,1.599,1.288,3.823,1.448,6.673
		c0.195,3.5-0.306,6.202-1.512,8.112c-1.197,1.908-3.21,3.115-6.033,3.624l-0.917-7.931c1.231-0.28,2.113-0.777,2.636-1.484
		c0.528-0.713,0.758-1.667,0.69-2.859c-0.055-0.982-0.306-1.716-0.75-2.19c-0.441-0.474-0.965-0.694-1.564-0.66
		c-0.434,0.024-0.811,0.25-1.14,0.671c-0.342,0.409-0.62,1.372-0.849,2.881c-0.59,3.743-1.253,6.434-1.979,8.073
		c-0.729,1.646-1.669,2.869-2.841,3.664c-1.164,0.795-2.496,1.232-3.993,1.317c-1.754,0.097-3.399-0.298-4.94-1.184
		c-1.532-0.892-2.738-2.18-3.601-3.885c-0.861-1.698-1.367-3.87-1.515-6.522c-0.261-4.654,0.458-7.931,2.15-9.822
		C268.639,133.598,270.858,132.457,273.604,132.066L273.604,132.066z"/>
	<path fill="#FFFFFF" d="M266.303,179.492l2.206-9.348l-4.084-2.38l1.984-8.422l24.331,16.346l-2.128,9.031l-29.061,3.711
		l2.036-8.639L266.303,179.492L266.303,179.492z M272.496,179.109l10.284-0.653l-8.907-5.188L272.496,179.109L272.496,179.109z"/>
	<path fill-rule="evenodd" clip-rule="evenodd" fill="#FFFFFF" d="M8.51,138.219l4.76-25.318l6.66,1.252l-1.598,8.498l20.297,3.816
		l-1.566,8.329l-6.106-1.148c-2.482-1.278-4.936-2.754-7.365-4.437l0.339,3.116l-7.166-1.347l-1.596,8.492L8.51,138.219
		L8.51,138.219z"/>
	<path fill-rule="evenodd" clip-rule="evenodd" fill="#FFFFFF" d="M31.288,151.931l0.379,9.649l4.576,1.148l0.342,8.652
		l-27.813-9.217l-0.364-9.234l19.784-8.344c1.36,2.383,2.948,4.64,4.778,6.771L31.288,151.931L31.288,151.931z M31.558,143.167
		l3.851-1.624l0.203,5.175L31.558,143.167L31.558,143.167z M25.428,153.939l-9.732,3.419l9.971,2.624L25.428,153.939L25.428,153.939
		z"/>
</g>
<g>
</g>
<g>
</g>
<g>
</g>
<g>
</g>
<g>
</g>
<g>
</g>
<g>
</g>
<g>
</g>
<g>
</g>
<g>
</g>
<g>
</g>
<g>
</g>
<g>
</g>
<g>
</g>
<g>
</g>
</svg>
